<svg width="82" height="61" viewBox="0 0 82 61" fill="none" xmlns="http://www.w3.org/2000/svg">
<path d="M70.1685 0.229464C66.6523 1.17979 64.3715 4.63266 64.9259 8.16472C65.5911 12.3145 69.6934 15.0388 73.7164 13.9934C75.7438 13.4549 77.5019 11.9819 78.4364 10.002C78.9116 8.98834 78.9433 8.82996 78.9433 7.10352C78.9433 5.37709 78.9116 5.2187 78.4364 4.20501C77.8345 2.93791 76.5041 1.46489 75.4112 0.878857C73.8115 0.00771999 71.8633 -0.229862 70.1685 0.229464ZM73.0037 5.01279C74.9519 5.97896 74.5559 9.02002 72.4493 9.41599C71.6891 9.55854 70.9922 9.35264 70.3744 8.81412C68.3629 7.04017 70.5803 3.7932 73.0037 5.01279Z" fill="#E9DABE"/>
<path d="M19.9912 14.4682C17.9005 14.9276 16.475 15.9412 15.7306 17.541C15.1445 18.7764 15.097 20.5345 15.6355 21.073C15.9523 21.4056 16.1424 21.4373 17.4728 21.4373C18.8191 21.4373 19.0092 21.4056 19.3577 21.073C19.6269 20.8038 19.8011 20.4395 19.8645 19.9168C20.0387 18.6655 20.3238 18.4438 21.7968 18.3804C23.3649 18.3171 23.9509 18.618 24.2202 19.6317C24.537 20.7721 24.1251 22.4035 23.4441 22.7678C23.2857 22.8628 22.7472 22.9895 22.272 23.037C21.0366 23.1796 20.6564 23.5914 20.6564 24.8427C20.6564 26.1573 20.9891 26.4899 22.5888 26.7117C23.6025 26.8542 23.8717 26.9492 24.2835 27.361C24.7429 27.8362 24.7745 27.9312 24.8221 29.2459C24.9013 31.5267 24.236 32.2869 22.1295 32.2869C20.4981 32.2869 19.4685 31.7326 19.4685 30.8614C19.4685 30.117 19.1517 29.4676 18.7083 29.3092C17.5045 28.8499 15.7306 28.9766 15.1445 29.5626C14.8911 29.8161 14.8277 30.0853 14.8436 30.8139C14.8911 34.1242 17.7738 36.3892 21.9394 36.405C26.2951 36.405 28.9243 34.4727 29.4628 30.8614C29.8905 27.9788 29.1144 25.9672 27.2137 24.9852L26.596 24.6843L27.2929 24.0032C28.3224 23.0054 28.7026 21.865 28.7184 19.7742C28.7343 17.8894 28.4333 16.9708 27.4988 16.0046C26.0892 14.5316 22.7947 13.8664 19.9912 14.4682Z" fill="#E9DABE"/>
<path d="M38.776 14.4049C36.7803 14.69 34.9588 15.7987 34.0877 17.2559C33.169 18.8081 33.0898 19.4258 33.0898 25.2703C33.0898 28.5648 33.1532 30.8456 33.2641 31.3683C33.961 34.5994 36.5269 36.405 40.4549 36.405C43.6068 36.405 45.9351 35.233 47.0122 33.0947C48.0576 31.0673 48.0892 27.5828 47.0914 25.6029C46.1411 23.7181 44.3354 22.7995 41.5478 22.7836C40.1381 22.7836 39.0611 23.037 38.3483 23.5597C38.0791 23.734 37.8257 23.8923 37.7623 23.8923C37.6989 23.8923 37.6673 23.0846 37.7148 22.0867C37.7781 20.7246 37.8732 20.1227 38.1108 19.6634C38.7126 18.4755 40.5975 17.9845 42.0388 18.6497C42.8624 19.014 43.0366 19.2516 43.2109 20.1861C43.3851 21.1364 43.8919 21.6115 44.8898 21.7541C45.9668 21.9283 46.9172 21.7224 47.3606 21.2631C47.8992 20.6929 47.8992 18.9189 47.3765 17.8419C46.0302 15.1018 42.8149 13.803 38.776 14.4049ZM42.213 26.9017C42.8466 27.4878 43.0683 28.1688 43.0683 29.5468C43.0683 30.9406 42.7991 31.6692 42.0705 32.1919C41.4211 32.6671 39.4887 32.6671 38.8393 32.1919C38.0157 31.5742 37.7781 30.9406 37.7781 29.4359C37.7781 27.1076 38.4751 26.379 40.5658 26.4582C41.5953 26.5058 41.8329 26.5691 42.213 26.9017Z" fill="#E9DABE"/>
<path d="M56.8482 14.4051C55.0901 14.706 53.4271 15.7356 52.6034 17.0502C51.5739 18.6816 51.5422 18.935 51.5422 25.3181C51.5422 31.7486 51.5898 32.1288 52.6034 33.6493C53.7755 35.3757 55.5653 36.231 58.3529 36.3577C61.2673 36.5003 63.1204 35.8667 64.6093 34.2353C65.0369 33.7602 65.5438 32.9841 65.7497 32.4772C66.0981 31.6061 66.114 31.4002 66.1615 25.8724C66.209 21.881 66.1615 19.9012 66.0348 19.2993C65.7814 18.1272 65.0211 16.7176 64.245 16.0365C62.6136 14.5635 59.7468 13.9299 56.8482 14.4051ZM60.4595 18.7766C60.6971 18.9508 61.0297 19.331 61.2039 19.6319C61.5049 20.1388 61.5207 20.4555 61.5207 25.3181C61.5207 30.2281 61.5049 30.4974 61.1881 31.02C60.6654 31.907 59.9685 32.2871 58.8281 32.2871C57.6719 32.2871 56.9274 31.8912 56.4998 31.02C56.2464 30.529 56.2147 29.9113 56.2147 25.3972C56.2147 20.7248 56.2464 20.2813 56.5315 19.6477C56.7691 19.1409 57.0066 18.8875 57.5135 18.6499C58.4005 18.2381 59.826 18.3014 60.4595 18.7766Z" fill="#E9DABE"/>
<path d="M8.77726 22.1661C6.65486 23.3065 3.56628 25.9674 2.2675 27.7889C-1.94564 33.681 -0.219201 40.2858 6.8766 45.3859C12.0717 49.1397 20.989 52.1015 30.1597 53.1469C31.3793 53.2736 32.4722 53.4162 32.5989 53.4478C32.7414 53.4954 32.2821 54.0814 31.3001 55.0634C29.7162 56.679 29.5103 57.0591 29.6529 58.1045C29.8271 59.4033 31.0467 60.2902 32.3613 60.0843C32.9473 59.9893 33.375 59.6092 36.7011 56.2988C41.9121 51.1195 41.9121 51.6739 36.9229 46.6688C35.0381 44.7682 33.28 43.1209 32.9949 42.9784C31.0308 42.0597 28.9876 43.9604 29.7637 46.0036C29.8588 46.2253 30.3973 46.9222 30.9833 47.5241L32.0445 48.617L31.4268 48.522C28.0056 48.0626 26.8969 47.8884 25.2497 47.5558C15.1445 45.5126 7.55767 41.442 5.38775 36.8963C4.86507 35.8034 4.81755 35.5658 4.81755 34.3304C4.81755 33.0791 4.86507 32.889 5.43527 31.7486C6.21137 30.1489 8.017 28.3116 10.2344 26.8544C11.3907 26.0942 11.8975 25.6507 12.0876 25.2547C13.1171 23.1006 10.8997 21.0416 8.77726 22.1661Z" fill="#E9DABE"/>
<path d="M71.4358 23.1322C70.5805 23.7182 70.2479 24.2726 70.2479 25.112C70.2479 25.5397 70.3429 26.0307 70.438 26.2207C70.5488 26.4108 71.3091 27.1077 72.1327 27.7571C76.2983 31.0833 77.3437 34.4253 75.2688 37.7197C74.6828 38.6542 72.9563 40.4124 71.7367 41.3152C67.4127 44.4988 59.6042 47.2072 51.6214 48.2843C49.6732 48.5535 49.008 49.0445 48.7071 50.4542C48.5645 51.0877 49.0555 52.2756 49.6099 52.6399C50.4018 53.1468 50.9245 53.1943 53.0469 52.8775C71.3725 50.1374 82.7447 41.7903 80.8599 32.4454C80.3214 29.8478 79.0543 27.7096 76.6943 25.4763C74.0017 22.9104 72.6396 22.3085 71.4358 23.1322Z" fill="#E9DABE"/>
</svg>
