<svg width="326" height="326" viewBox="0 0 326 326" fill="none" xmlns="http://www.w3.org/2000/svg">
<path d="M87.702 24.0923H79.5122V18.6325C79.5122 17.1311 80.7407 15.9026 82.2421 15.9026H87.702V24.0923Z" fill="#362709"/>
<path d="M95.6534 16.9946C95.6534 18.9055 89.3746 24.0923 87.4636 24.0923V15.9026H94.5614C95.1074 15.9026 95.6534 16.4486 95.6534 16.9946Z" fill="#362709"/>
<path d="M118.688 19.7244C117.459 17.4039 114.866 15.766 112.955 15.9025C111.181 16.039 110.771 18.0864 112 20.2703C113.365 22.5908 115.821 24.2287 117.732 24.0922C119.643 23.9557 120.053 21.9083 118.688 19.7244Z" fill="#362709"/>
<path d="M143.361 24.0923H135.171V18.6325C135.171 17.1311 136.399 15.9026 137.901 15.9026H143.361V24.0923Z" fill="#362709"/>
<path d="M151.312 15.9026H143.122V24.0923H151.312V15.9026Z" fill="#362709"/>
<path d="M159.263 15.9026H151.073V24.0923H159.263V15.9026Z" fill="#362709"/>
<path d="M167.214 15.9026H159.024V24.0923H167.214V15.9026Z" fill="#362709"/>
<path d="M175.166 15.9026H166.976V24.0923H175.166V15.9026Z" fill="#362709"/>
<path d="M183.117 16.9946C183.117 18.9055 176.838 24.0923 174.927 24.0923V15.9026H182.025C182.571 15.9026 183.117 16.4486 183.117 16.9946Z" fill="#362709"/>
<path d="M190.829 23.0004C190.829 21.0894 197.108 15.9026 199.019 15.9026V24.0923H191.921C191.375 24.0923 190.829 23.5464 190.829 23.0004Z" fill="#362709"/>
<path d="M198.781 24.0923V15.9026H204.24C205.742 15.9026 206.97 17.1311 206.97 18.6325V24.0923H198.781Z" fill="#362709"/>
<path d="M87.702 23.8538H79.5122V32.0435H87.702V23.8538Z" fill="#362709"/>
<path d="M110.737 27.6755C109.508 25.3551 106.915 23.7171 105.004 23.8536C103.229 23.9901 102.82 26.0376 104.048 28.2215C105.413 30.5419 107.87 32.1799 109.781 32.0434C111.692 31.9069 112.102 29.8595 110.737 27.6755Z" fill="#362709"/>
<path d="M143.361 23.8538V32.0435H137.901C136.399 32.0435 135.171 30.8151 135.171 29.3136V23.8538H143.361Z" fill="#362709"/>
<path d="M151.312 23.8538H143.122V32.0435H151.312V23.8538Z" fill="#362709"/>
<path d="M205.878 32.0435C203.967 32.0435 198.781 25.7647 198.781 23.8538H206.97V30.9515C206.97 31.4975 206.424 32.0435 205.878 32.0435Z" fill="#362709"/>
<path d="M222.054 27.6755C220.825 25.3551 218.232 23.7171 216.321 23.8536C214.547 23.9901 214.137 26.0376 215.366 28.2215C216.731 30.5419 219.187 32.1799 221.098 32.0434C223.009 31.9069 223.419 29.8595 222.054 27.6755Z" fill="#362709"/>
<path d="M238.775 32.0435H230.585V26.5837C230.585 25.0822 231.814 23.8538 233.315 23.8538H238.775V32.0435Z" fill="#362709"/>
<path d="M246.726 24.9457C246.726 26.8567 240.448 32.0435 238.537 32.0435V23.8538H245.634C246.18 23.8538 246.726 24.3997 246.726 24.9457Z" fill="#362709"/>
<path d="M87.702 31.8049V39.9947H82.2421C80.7407 39.9947 79.5122 38.7662 79.5122 37.2648V31.8049H87.702Z" fill="#362709"/>
<path d="M87.4636 39.9947V31.8049H92.9235C94.4249 31.8049 95.6534 33.0334 95.6534 34.5349V39.9947H87.4636Z" fill="#362709"/>
<path d="M118.688 35.6267C117.459 33.3063 114.866 31.6683 112.955 31.8048C111.181 31.9413 110.771 33.9887 112 36.1727C113.365 38.4931 115.821 40.1311 117.732 39.9946C119.643 39.8581 120.053 37.8106 118.688 35.6267Z" fill="#362709"/>
<path d="M128.312 31.8049C130.223 31.8049 135.409 38.0837 135.409 39.9947H127.22V32.8969C127.22 32.3509 127.766 31.8049 128.312 31.8049Z" fill="#362709"/>
<path d="M151.312 31.8049H143.122V39.9947H151.312V31.8049Z" fill="#362709"/>
<path d="M159.024 38.9027C159.024 36.9918 165.303 31.8049 167.214 31.8049V39.9947H160.116C159.57 39.9947 159.024 39.4487 159.024 38.9027Z" fill="#362709"/>
<path d="M175.166 32.8969C175.166 34.8078 168.887 39.9947 166.976 39.9947V31.8049H174.074C174.62 31.8049 175.166 32.3509 175.166 32.8969Z" fill="#362709"/>
<path d="M190.249 35.6267C189.02 33.3063 186.427 31.6683 184.516 31.8048C182.742 31.9413 182.332 33.9887 183.561 36.1727C184.926 38.4931 187.383 40.1311 189.293 39.9946C191.204 39.8581 191.614 37.8106 190.249 35.6267Z" fill="#362709"/>
<path d="M214.103 35.6267C212.874 33.3063 210.281 31.6683 208.37 31.8048C206.595 31.9413 206.186 33.9887 207.414 36.1727C208.779 38.4931 211.236 40.1311 213.147 39.9946C215.058 39.8581 215.468 37.8106 214.103 35.6267Z" fill="#362709"/>
<path d="M230.824 39.9947H222.634V34.5349C222.634 33.0334 223.863 31.8049 225.364 31.8049H230.824V39.9947Z" fill="#362709"/>
<path d="M230.585 31.8049H238.775V37.2648C238.775 38.7662 237.547 39.9947 236.045 39.9947H230.585V31.8049Z" fill="#362709"/>
<path d="M95.6534 39.7561H87.4636V47.9459H95.6534V39.7561Z" fill="#362709"/>
<path d="M134.318 47.9459C132.407 47.9459 127.22 41.667 127.22 39.7561H135.409V46.8539C135.409 47.3999 134.863 47.9459 134.318 47.9459Z" fill="#362709"/>
<path d="M151.312 39.7561H143.122V47.9459H151.312V39.7561Z" fill="#362709"/>
<path d="M159.263 40.8481C159.263 42.759 152.984 47.9459 151.073 47.9459V39.7561H158.171C158.717 39.7561 159.263 40.3021 159.263 40.8481Z" fill="#362709"/>
<path d="M176.019 39.7561C177.93 39.7561 183.117 46.0349 183.117 47.9459H174.927V40.8481C174.927 40.3021 175.473 39.7561 176.019 39.7561Z" fill="#362709"/>
<path d="M214.683 46.8539C214.683 44.9429 220.962 39.7561 222.873 39.7561V47.9459H215.775C215.229 47.9459 214.683 47.3999 214.683 46.8539Z" fill="#362709"/>
<path d="M222.634 39.7561H230.824V45.2159C230.824 46.7174 229.596 47.9459 228.094 47.9459H222.634V39.7561Z" fill="#362709"/>
<path d="M94.5614 55.897C92.6505 55.897 87.4636 49.6182 87.4636 47.7073H95.6534V54.8051C95.6534 55.351 95.1074 55.897 94.5614 55.897Z" fill="#362709"/>
<path d="M151.312 47.7073H143.122V55.897H151.312V47.7073Z" fill="#362709"/>
<path d="M167.214 55.897H159.024V50.4372C159.024 48.9357 160.253 47.7073 161.754 47.7073H167.214V55.897Z" fill="#362709"/>
<path d="M175.166 47.7073H166.976V55.897H175.166V47.7073Z" fill="#362709"/>
<path d="M183.117 47.7073H174.927V55.897H183.117V47.7073Z" fill="#362709"/>
<path d="M191.921 47.7073C193.832 47.7073 199.019 53.9861 199.019 55.897H190.829V48.7992C190.829 48.2533 191.375 47.7073 191.921 47.7073Z" fill="#362709"/>
<path d="M80.6042 55.6584C82.5151 55.6584 87.702 61.9373 87.702 63.8482H79.5122V56.7504C79.5122 56.2044 80.0582 55.6584 80.6042 55.6584Z" fill="#362709"/>
<path d="M96.5068 55.6584C98.4177 55.6584 103.605 61.9373 103.605 63.8482H95.4148V56.7504C95.4148 56.2044 95.9608 55.6584 96.5068 55.6584Z" fill="#362709"/>
<path d="M119.507 63.8482H111.317V58.3884C111.317 56.8869 112.546 55.6584 114.047 55.6584H119.507V63.8482Z" fill="#362709"/>
<path d="M127.458 55.6584H119.268V63.8482H127.458V55.6584Z" fill="#362709"/>
<path d="M127.22 63.8482V55.6584H132.68C134.181 55.6584 135.409 56.8869 135.409 58.3884V63.8482H127.22Z" fill="#362709"/>
<path d="M151.312 55.6584H143.122V63.8482H151.312V55.6584Z" fill="#362709"/>
<path d="M159.263 55.6584H151.073V63.8482H159.263V55.6584Z" fill="#362709"/>
<path d="M167.214 55.6584H159.024V63.8482H167.214V55.6584Z" fill="#362709"/>
<path d="M175.166 55.6584H166.976V63.8482H175.166V55.6584Z" fill="#362709"/>
<path d="M183.117 55.6584H174.927V63.8482H183.117V55.6584Z" fill="#362709"/>
<path d="M191.068 55.6584H182.878V63.8482H191.068V55.6584Z" fill="#362709"/>
<path d="M199.019 55.6584H190.829V63.8482H199.019V55.6584Z" fill="#362709"/>
<path d="M230.824 63.8482H222.634V58.3884C222.634 56.8869 223.863 55.6584 225.364 55.6584H230.824V63.8482Z" fill="#362709"/>
<path d="M238.775 55.6584H230.585V63.8482H238.775V55.6584Z" fill="#362709"/>
<path d="M238.537 63.8482V55.6584H243.996C245.498 55.6584 246.726 56.8869 246.726 58.3884V63.8482H238.537Z" fill="#362709"/>
<path d="M87.702 63.6099H79.5122V71.7996H87.702V63.6099Z" fill="#362709"/>
<path d="M103.605 63.6099H95.4148V71.7996H103.605V63.6099Z" fill="#362709"/>
<path d="M118.415 71.7996C116.504 71.7996 111.317 65.5208 111.317 63.6099H119.507V70.7077C119.507 71.2536 118.961 71.7996 118.415 71.7996Z" fill="#362709"/>
<path d="M135.409 63.6099H127.22V71.7996H135.409V63.6099Z" fill="#362709"/>
<path d="M151.312 63.6099H143.122V71.7996H151.312V63.6099Z" fill="#362709"/>
<path d="M167.214 63.6099H159.024V71.7996H167.214V63.6099Z" fill="#362709"/>
<path d="M182.025 71.7996C180.114 71.7996 174.927 65.5208 174.927 63.6099H183.117V70.7077C183.117 71.2536 182.571 71.7996 182.025 71.7996Z" fill="#362709"/>
<path d="M197.927 71.7996C196.016 71.7996 190.829 65.5208 190.829 63.6099H199.019V70.7077C199.019 71.2536 198.473 71.7996 197.927 71.7996Z" fill="#362709"/>
<path d="M207.824 63.6099C209.735 63.6099 214.922 69.8887 214.922 71.7996H206.732V64.7018C206.732 64.1558 207.278 63.6099 207.824 63.6099Z" fill="#362709"/>
<path d="M229.732 71.7996C227.821 71.7996 222.634 65.5208 222.634 63.6099H230.824V70.7077C230.824 71.2536 230.278 71.7996 229.732 71.7996Z" fill="#362709"/>
<path d="M246.726 63.6099H238.537V71.7996H246.726V63.6099Z" fill="#362709"/>
<path d="M87.702 71.561H79.5122V79.7508H87.702V71.561Z" fill="#362709"/>
<path d="M95.6534 71.561H87.4636V79.7508H95.6534V71.561Z" fill="#362709"/>
<path d="M103.605 71.561H95.4148V79.7508H103.605V71.561Z" fill="#362709"/>
<path d="M103.366 79.7508V71.561H108.826C110.327 71.561 111.556 72.7895 111.556 74.291V79.7508H103.366Z" fill="#362709"/>
<path d="M135.409 71.561H127.22V79.7508H135.409V71.561Z" fill="#362709"/>
<path d="M151.312 71.561H143.122V79.7508H151.312V71.561Z" fill="#362709"/>
<path d="M167.214 71.561V79.7508H161.754C160.253 79.7508 159.024 78.5223 159.024 77.0209V71.561H167.214Z" fill="#362709"/>
<path d="M175.166 72.653C175.166 74.5639 168.887 79.7508 166.976 79.7508V71.561H174.074C174.62 71.561 175.166 72.107 175.166 72.653Z" fill="#362709"/>
<path d="M190.249 75.3828C189.02 73.0624 186.427 71.4244 184.516 71.5609C182.742 71.6974 182.332 73.7449 183.561 75.9288C184.926 78.2492 187.383 79.8872 189.293 79.7507C191.204 79.6142 191.614 77.5667 190.249 75.3828Z" fill="#362709"/>
<path d="M213.83 79.7508C211.919 79.7508 206.732 73.472 206.732 71.561H214.922V78.6588C214.922 79.2048 214.376 79.7508 213.83 79.7508Z" fill="#362709"/>
<path d="M246.726 71.561H238.537V79.7508H246.726V71.561Z" fill="#362709"/>
<path d="M31.8049 86.61C31.8049 84.6991 38.0837 79.5122 39.9947 79.5122V87.702H32.8969C32.3509 87.702 31.8049 87.156 31.8049 86.61Z" fill="#362709"/>
<path d="M47.9459 79.5122H39.7561V87.702H47.9459V79.5122Z" fill="#362709"/>
<path d="M47.7075 87.702V79.5122H53.1674C54.6688 79.5122 55.8973 80.7407 55.8973 82.2421V87.702H47.7075Z" fill="#362709"/>
<path d="M70.9806 83.3342C69.7521 81.0138 67.1587 79.3758 65.2478 79.5123C63.4733 79.6488 63.0638 81.6963 64.2923 83.8802C65.6573 86.2006 68.1142 87.8386 70.0251 87.7021C71.9361 87.5656 72.3456 85.5182 70.9806 83.3342Z" fill="#362709"/>
<path d="M87.702 79.5122H79.5122V87.702H87.702V79.5122Z" fill="#362709"/>
<path d="M95.6534 79.5122H87.4636V87.702H95.6534V79.5122Z" fill="#362709"/>
<path d="M103.605 79.5122H95.4148V87.702H103.605V79.5122Z" fill="#362709"/>
<path d="M111.556 79.5122H103.366V87.702H111.556V79.5122Z" fill="#362709"/>
<path d="M119.507 79.5122H111.317V87.702H119.507V79.5122Z" fill="#362709"/>
<path d="M127.458 79.5122H119.268V87.702H127.458V79.5122Z" fill="#362709"/>
<path d="M127.22 79.5122H135.409V84.972C135.409 86.4735 134.181 87.702 132.68 87.702H127.22V79.5122Z" fill="#362709"/>
<path d="M151.312 79.5122V87.702H145.852C144.351 87.702 143.122 86.4735 143.122 84.972V79.5122H151.312Z" fill="#362709"/>
<path d="M151.073 87.702V79.5122H156.533C158.035 79.5122 159.263 80.7407 159.263 82.2421V87.702H151.073Z" fill="#362709"/>
<path d="M190.829 86.61C190.829 84.6991 197.108 79.5122 199.019 79.5122V87.702H191.921C191.375 87.702 190.829 87.156 190.829 86.61Z" fill="#362709"/>
<path d="M206.97 80.6042C206.97 82.5151 200.691 87.702 198.781 87.702V79.5122H205.878C206.424 79.5122 206.97 80.0582 206.97 80.6042Z" fill="#362709"/>
<path d="M223.726 79.5122C225.637 79.5122 230.824 85.791 230.824 87.702H222.634V80.6042C222.634 80.0582 223.18 79.5122 223.726 79.5122Z" fill="#362709"/>
<path d="M246.726 79.5122V87.702H241.267C239.765 87.702 238.537 86.4735 238.537 84.972V79.5122H246.726Z" fill="#362709"/>
<path d="M254.678 79.5122H246.488V87.702H254.678V79.5122Z" fill="#362709"/>
<path d="M262.629 79.5122H254.439V87.702H262.629V79.5122Z" fill="#362709"/>
<path d="M262.39 87.702V79.5122H267.85C269.352 79.5122 270.58 80.7407 270.58 82.2421V87.702H262.39Z" fill="#362709"/>
<path d="M294.434 87.702H286.244V82.2421C286.244 80.7407 287.473 79.5122 288.974 79.5122H294.434V87.702Z" fill="#362709"/>
<path d="M302.385 79.5122H294.195V87.702H302.385V79.5122Z" fill="#362709"/>
<path d="M310.336 80.6042C310.336 82.5151 304.057 87.702 302.146 87.702V79.5122H309.244C309.79 79.5122 310.336 80.0582 310.336 80.6042Z" fill="#362709"/>
<path d="M24.9457 87.4634C26.8567 87.4634 32.0435 93.7422 32.0435 95.6531H23.8538V88.5553C23.8538 88.0094 24.3997 87.4634 24.9457 87.4634Z" fill="#362709"/>
<path d="M55.8973 87.4634V95.6531H50.4374C48.936 95.6531 47.7075 94.4247 47.7075 92.9232V87.4634H55.8973Z" fill="#362709"/>
<path d="M55.6587 95.6531V87.4634H61.1185C62.62 87.4634 63.8484 88.6918 63.8484 90.1933V95.6531H55.6587Z" fill="#362709"/>
<path d="M71.561 94.5612C71.561 92.6502 77.8398 87.4634 79.7508 87.4634V95.6531H72.653C72.107 95.6531 71.561 95.1072 71.561 94.5612Z" fill="#362709"/>
<path d="M87.702 87.4634H79.5122V95.6531H87.702V87.4634Z" fill="#362709"/>
<path d="M103.605 87.4634H95.4148V95.6531H103.605V87.4634Z" fill="#362709"/>
<path d="M119.507 87.4634H111.317V95.6531H119.507V87.4634Z" fill="#362709"/>
<path d="M142.542 91.2854C141.313 88.965 138.72 87.327 136.809 87.4635C135.034 87.6 134.625 89.6474 135.853 91.8314C137.218 94.1518 139.675 95.7898 141.586 95.6533C143.497 95.5168 143.907 93.4693 142.542 91.2854Z" fill="#362709"/>
<path d="M158.171 95.6531C156.26 95.6531 151.073 89.3743 151.073 87.4634H159.263V94.5612C159.263 95.1072 158.717 95.6531 158.171 95.6531Z" fill="#362709"/>
<path d="M222.873 95.6531H214.683V90.1933C214.683 88.6918 215.912 87.4634 217.413 87.4634H222.873V95.6531Z" fill="#362709"/>
<path d="M230.824 87.4634H222.634V95.6531H230.824V87.4634Z" fill="#362709"/>
<path d="M262.629 87.4634H254.439V95.6531H262.629V87.4634Z" fill="#362709"/>
<path d="M262.39 87.4634H270.58V92.9232C270.58 94.4247 269.352 95.6531 267.85 95.6531H262.39V87.4634Z" fill="#362709"/>
<path d="M293.342 95.6531C291.431 95.6531 286.244 89.3743 286.244 87.4634H294.434V94.5612C294.434 95.1072 293.888 95.6531 293.342 95.6531Z" fill="#362709"/>
<path d="M32.0435 95.4146H23.8538V103.604H32.0435V95.4146Z" fill="#362709"/>
<path d="M39.9947 95.4146H31.8049V103.604H39.9947V95.4146Z" fill="#362709"/>
<path d="M39.7561 103.604V95.4146H45.2159C46.7174 95.4146 47.9459 96.643 47.9459 98.1445V103.604H39.7561Z" fill="#362709"/>
<path d="M63.8484 95.4146H55.6587V103.604H63.8484V95.4146Z" fill="#362709"/>
<path d="M71.7996 96.5065C71.7996 98.4175 65.5208 103.604 63.6099 103.604V95.4146H70.7077C71.2536 95.4146 71.7996 95.9605 71.7996 96.5065Z" fill="#362709"/>
<path d="M87.702 95.4146H79.5122V103.604H87.702V95.4146Z" fill="#362709"/>
<path d="M103.605 95.4146H95.4148V103.604H103.605V95.4146Z" fill="#362709"/>
<path d="M111.556 95.4146H103.366V103.604H111.556V95.4146Z" fill="#362709"/>
<path d="M111.317 95.4146H119.507V100.874C119.507 102.376 118.278 103.604 116.777 103.604H111.317V95.4146Z" fill="#362709"/>
<path d="M144.214 95.4146C146.125 95.4146 151.312 101.693 151.312 103.604H143.122V96.5065C143.122 95.9605 143.668 95.4146 144.214 95.4146Z" fill="#362709"/>
<path d="M166.395 99.2366C165.167 96.9161 162.574 95.2782 160.663 95.4147C158.888 95.5512 158.479 97.5986 159.707 99.7825C161.072 102.103 163.529 103.741 165.44 103.604C167.351 103.468 167.76 101.42 166.395 99.2366Z" fill="#362709"/>
<path d="M174.927 102.512C174.927 100.601 181.206 95.4146 183.117 95.4146V103.604H176.019C175.473 103.604 174.927 103.058 174.927 102.512Z" fill="#362709"/>
<path d="M191.068 95.4146H182.878V103.604H191.068V95.4146Z" fill="#362709"/>
<path d="M190.829 103.604V95.4146H196.289C197.791 95.4146 199.019 96.643 199.019 98.1445V103.604H190.829Z" fill="#362709"/>
<path d="M222.873 95.4146V103.604H217.413C215.912 103.604 214.683 102.376 214.683 100.874V95.4146H222.873Z" fill="#362709"/>
<path d="M230.824 95.4146H222.634V103.604H230.824V95.4146Z" fill="#362709"/>
<path d="M238.775 95.4146H230.585V103.604H238.775V95.4146Z" fill="#362709"/>
<path d="M238.537 103.604V95.4146H243.996C245.498 95.4146 246.726 96.643 246.726 98.1445V103.604H238.537Z" fill="#362709"/>
<path d="M262.629 95.4146H254.439V103.604H262.629V95.4146Z" fill="#362709"/>
<path d="M303.238 95.4146C305.149 95.4146 310.336 101.693 310.336 103.604H302.146V96.5065C302.146 95.9605 302.692 95.4146 303.238 95.4146Z" fill="#362709"/>
<path d="M32.0435 103.366H23.8538V111.556H32.0435V103.366Z" fill="#362709"/>
<path d="M39.9947 103.366H31.8049V111.556H39.9947V103.366Z" fill="#362709"/>
<path d="M47.9459 103.366H39.7561V111.556H47.9459V103.366Z" fill="#362709"/>
<path d="M55.8973 103.366H47.7075V111.556H55.8973V103.366Z" fill="#362709"/>
<path d="M63.8484 103.366H55.6587V111.556H63.8484V103.366Z" fill="#362709"/>
<path d="M79.7508 111.556H71.561V106.096C71.561 104.594 72.7895 103.366 74.291 103.366H79.7508V111.556Z" fill="#362709"/>
<path d="M87.702 103.366H79.5122V111.556H87.702V103.366Z" fill="#362709"/>
<path d="M95.6534 103.366H87.4636V111.556H95.6534V103.366Z" fill="#362709"/>
<path d="M103.605 103.366H95.4148V111.556H103.605V103.366Z" fill="#362709"/>
<path d="M120.36 103.366C122.271 103.366 127.458 109.645 127.458 111.556H119.268V104.458C119.268 103.912 119.814 103.366 120.36 103.366Z" fill="#362709"/>
<path d="M143.361 111.556H135.171V106.096C135.171 104.594 136.399 103.366 137.901 103.366H143.361V111.556Z" fill="#362709"/>
<path d="M151.312 103.366H143.122V111.556H151.312V103.366Z" fill="#362709"/>
<path d="M168.068 103.366C169.979 103.366 175.166 109.645 175.166 111.556H166.976V104.458C166.976 103.912 167.522 103.366 168.068 103.366Z" fill="#362709"/>
<path d="M199.019 103.366H190.829V111.556H199.019V103.366Z" fill="#362709"/>
<path d="M206.97 103.366H198.781V111.556H206.97V103.366Z" fill="#362709"/>
<path d="M214.922 104.458C214.922 106.369 208.643 111.556 206.732 111.556V103.366H213.83C214.376 103.366 214.922 103.912 214.922 104.458Z" fill="#362709"/>
<path d="M230.824 103.366H222.634V111.556H230.824V103.366Z" fill="#362709"/>
<path d="M238.775 103.366H230.585V111.556H238.775V103.366Z" fill="#362709"/>
<path d="M246.726 103.366H238.537V111.556H246.726V103.366Z" fill="#362709"/>
<path d="M262.629 103.366H254.439V111.556H262.629V103.366Z" fill="#362709"/>
<path d="M271.434 103.366C273.344 103.366 278.531 109.645 278.531 111.556H270.342V104.458C270.342 103.912 270.888 103.366 271.434 103.366Z" fill="#362709"/>
<path d="M302.385 111.556H294.195V106.096C294.195 104.594 295.424 103.366 296.925 103.366H302.385V111.556Z" fill="#362709"/>
<path d="M302.146 103.366H310.336V108.826C310.336 110.327 309.108 111.556 307.606 111.556H302.146V103.366Z" fill="#362709"/>
<path d="M24.0923 119.507H15.9026V114.047C15.9026 112.546 17.1311 111.317 18.6325 111.317H24.0923V119.507Z" fill="#362709"/>
<path d="M32.0435 111.317H23.8538V119.507H32.0435V111.317Z" fill="#362709"/>
<path d="M47.9459 111.317H39.7561V119.507H47.9459V111.317Z" fill="#362709"/>
<path d="M63.8484 111.317V119.507H58.3886C56.8872 119.507 55.6587 118.278 55.6587 116.777V111.317H63.8484Z" fill="#362709"/>
<path d="M71.7996 111.317H63.6099V119.507H71.7996V111.317Z" fill="#362709"/>
<path d="M71.561 111.317H79.7508V116.777C79.7508 118.278 78.5223 119.507 77.0209 119.507H71.561V111.317Z" fill="#362709"/>
<path d="M102.513 119.507C100.602 119.507 95.4148 113.228 95.4148 111.317H103.605V118.415C103.605 118.961 103.059 119.507 102.513 119.507Z" fill="#362709"/>
<path d="M127.458 111.317H119.268V119.507H127.458V111.317Z" fill="#362709"/>
<path d="M135.409 111.317H127.22V119.507H135.409V111.317Z" fill="#362709"/>
<path d="M143.361 111.317H135.171V119.507H143.361V111.317Z" fill="#362709"/>
<path d="M151.312 111.317H143.122V119.507H151.312V111.317Z" fill="#362709"/>
<path d="M151.073 119.507V111.317H156.533C158.035 111.317 159.263 112.546 159.263 114.047V119.507H151.073Z" fill="#362709"/>
<path d="M174.074 119.507C172.163 119.507 166.976 113.228 166.976 111.317H175.166V118.415C175.166 118.961 174.62 119.507 174.074 119.507Z" fill="#362709"/>
<path d="M199.019 111.317H190.829V119.507H199.019V111.317Z" fill="#362709"/>
<path d="M206.97 111.317H198.781V119.507H206.97V111.317Z" fill="#362709"/>
<path d="M222.873 119.507H214.683V114.047C214.683 112.546 215.912 111.317 217.413 111.317H222.873V119.507Z" fill="#362709"/>
<path d="M222.634 111.317H230.824V116.777C230.824 118.278 229.596 119.507 228.094 119.507H222.634V111.317Z" fill="#362709"/>
<path d="M246.726 111.317H238.537V119.507H246.726V111.317Z" fill="#362709"/>
<path d="M254.678 111.317H246.488V119.507H254.678V111.317Z" fill="#362709"/>
<path d="M262.629 111.317H254.439V119.507H262.629V111.317Z" fill="#362709"/>
<path d="M270.58 111.317H262.39V119.507H270.58V111.317Z" fill="#362709"/>
<path d="M278.531 111.317H270.342V119.507H278.531V111.317Z" fill="#362709"/>
<path d="M286.482 111.317H278.293V119.507H286.482V111.317Z" fill="#362709"/>
<path d="M294.434 111.317H286.244V119.507H294.434V111.317Z" fill="#362709"/>
<path d="M294.195 111.317H302.385V116.777C302.385 118.278 301.157 119.507 299.655 119.507H294.195V111.317Z" fill="#362709"/>
<path d="M24.0923 119.268V127.458H18.6325C17.1311 127.458 15.9026 126.23 15.9026 124.728V119.268H24.0923Z" fill="#362709"/>
<path d="M23.8538 119.268H32.0435V124.728C32.0435 126.23 30.8151 127.458 29.3136 127.458H23.8538V119.268Z" fill="#362709"/>
<path d="M47.9459 119.268V127.458H42.486C40.9846 127.458 39.7561 126.23 39.7561 124.728V119.268H47.9459Z" fill="#362709"/>
<path d="M47.7075 127.458V119.268H53.1674C54.6688 119.268 55.8973 120.497 55.8973 121.998V127.458H47.7075Z" fill="#362709"/>
<path d="M111.556 127.458H103.366V121.998C103.366 120.497 104.594 119.268 106.096 119.268H111.556V127.458Z" fill="#362709"/>
<path d="M119.507 119.268H111.317V127.458H119.507V119.268Z" fill="#362709"/>
<path d="M127.458 119.268H119.268V127.458H127.458V119.268Z" fill="#362709"/>
<path d="M127.22 119.268H135.409V124.728C135.409 126.23 134.181 127.458 132.68 127.458H127.22V119.268Z" fill="#362709"/>
<path d="M158.171 127.458C156.26 127.458 151.073 121.179 151.073 119.268H159.263V126.366C159.263 126.912 158.717 127.458 158.171 127.458Z" fill="#362709"/>
<path d="M199.019 119.268V127.458H193.559C192.058 127.458 190.829 126.23 190.829 124.728V119.268H199.019Z" fill="#362709"/>
<path d="M206.97 119.268H198.781V127.458H206.97V119.268Z" fill="#362709"/>
<path d="M214.922 119.268H206.732V127.458H214.922V119.268Z" fill="#362709"/>
<path d="M222.873 119.268H214.683V127.458H222.873V119.268Z" fill="#362709"/>
<path d="M246.726 119.268H238.537V127.458H246.726V119.268Z" fill="#362709"/>
<path d="M254.678 119.268H246.488V127.458H254.678V119.268Z" fill="#362709"/>
<path d="M269.488 127.458C267.577 127.458 262.39 121.179 262.39 119.268H270.58V126.366C270.58 126.912 270.034 127.458 269.488 127.458Z" fill="#362709"/>
<path d="M286.482 119.268H278.293V127.458H286.482V119.268Z" fill="#362709"/>
<path d="M286.244 119.268H294.434V124.728C294.434 126.23 293.205 127.458 291.704 127.458H286.244V119.268Z" fill="#362709"/>
<path d="M54.8053 135.409C52.8944 135.409 47.7075 129.13 47.7075 127.219H55.8973V134.317C55.8973 134.863 55.3513 135.409 54.8053 135.409Z" fill="#362709"/>
<path d="M70.9806 131.041C69.7521 128.721 67.1587 127.083 65.2478 127.22C63.4733 127.356 63.0638 129.404 64.2923 131.587C65.6573 133.908 68.1142 135.546 70.0251 135.409C71.9361 135.273 72.3456 133.225 70.9806 131.041Z" fill="#362709"/>
<path d="M87.4636 134.317C87.4636 132.406 93.7424 127.219 95.6534 127.219V135.409H88.5556C88.0096 135.409 87.4636 134.863 87.4636 134.317Z" fill="#362709"/>
<path d="M103.605 127.219H95.4148V135.409H103.605V127.219Z" fill="#362709"/>
<path d="M103.366 127.219H111.556V132.679C111.556 134.181 110.327 135.409 108.826 135.409H103.366V127.219Z" fill="#362709"/>
<path d="M126.366 135.409C124.455 135.409 119.268 129.13 119.268 127.219H127.458V134.317C127.458 134.863 126.912 135.409 126.366 135.409Z" fill="#362709"/>
<path d="M143.361 135.409H135.171V129.949C135.171 128.448 136.399 127.219 137.901 127.219H143.361V135.409Z" fill="#362709"/>
<path d="M143.122 135.409V127.219H148.582C150.083 127.219 151.312 128.448 151.312 129.949V135.409H143.122Z" fill="#362709"/>
<path d="M159.024 134.317C159.024 132.406 165.303 127.219 167.214 127.219V135.409H160.116C159.57 135.409 159.024 134.863 159.024 134.317Z" fill="#362709"/>
<path d="M175.166 127.219H166.976V135.409H175.166V127.219Z" fill="#362709"/>
<path d="M183.117 128.311C183.117 130.222 176.838 135.409 174.927 135.409V127.219H182.025C182.571 127.219 183.117 127.765 183.117 128.311Z" fill="#362709"/>
<path d="M222.873 127.219V135.409H217.413C215.912 135.409 214.683 134.181 214.683 132.679V127.219H222.873Z" fill="#362709"/>
<path d="M230.824 127.219H222.634V135.409H230.824V127.219Z" fill="#362709"/>
<path d="M238.775 127.219H230.585V135.409H238.775V127.219Z" fill="#362709"/>
<path d="M246.726 127.219H238.537V135.409H246.726V127.219Z" fill="#362709"/>
<path d="M254.678 127.219H246.488V135.409H254.678V127.219Z" fill="#362709"/>
<path d="M285.391 135.409C283.48 135.409 278.293 129.13 278.293 127.219H286.482V134.317C286.482 134.863 285.936 135.409 285.391 135.409Z" fill="#362709"/>
<path d="M309.517 131.041C308.289 128.721 305.695 127.083 303.784 127.22C302.01 127.356 301.6 129.404 302.829 131.587C304.194 133.908 306.651 135.546 308.562 135.409C310.473 135.273 310.882 133.225 309.517 131.041Z" fill="#362709"/>
<path d="M23.2733 138.993C22.0449 136.672 19.4514 135.034 17.5405 135.171C15.7661 135.307 15.3566 137.355 16.585 139.539C17.95 141.859 20.4069 143.497 22.3179 143.361C24.2288 143.224 24.6383 141.177 23.2733 138.993Z" fill="#362709"/>
<path d="M47.1271 138.993C45.8986 136.672 43.3052 135.034 41.3943 135.171C39.6198 135.307 39.2103 137.355 40.4388 139.539C41.8038 141.859 44.2607 143.497 46.1716 143.361C48.0826 143.224 48.4921 141.177 47.1271 138.993Z" fill="#362709"/>
<path d="M56.7507 135.171C58.6616 135.171 63.8484 141.449 63.8484 143.36H55.6587V136.263C55.6587 135.717 56.2047 135.171 56.7507 135.171Z" fill="#362709"/>
<path d="M102.513 143.36C100.602 143.36 95.4148 137.082 95.4148 135.171H103.605V142.268C103.605 142.814 103.059 143.36 102.513 143.36Z" fill="#362709"/>
<path d="M118.688 138.993C117.459 136.672 114.866 135.034 112.955 135.171C111.181 135.307 110.771 137.355 112 139.539C113.365 141.859 115.821 143.497 117.732 143.361C119.643 143.224 120.053 141.177 118.688 138.993Z" fill="#362709"/>
<path d="M143.361 135.171H135.171V143.36H143.361V135.171Z" fill="#362709"/>
<path d="M151.312 135.171H143.122V143.36H151.312V135.171Z" fill="#362709"/>
<path d="M191.068 143.36H182.878V137.901C182.878 136.399 184.107 135.171 185.608 135.171H191.068V143.36Z" fill="#362709"/>
<path d="M190.829 143.36V135.171H196.289C197.791 135.171 199.019 136.399 199.019 137.901V143.36H190.829Z" fill="#362709"/>
<path d="M207.824 135.171C209.735 135.171 214.922 141.449 214.922 143.36H206.732V136.263C206.732 135.717 207.278 135.171 207.824 135.171Z" fill="#362709"/>
<path d="M246.726 135.171H238.537V143.36H246.726V135.171Z" fill="#362709"/>
<path d="M254.678 135.171H246.488V143.36H254.678V135.171Z" fill="#362709"/>
<path d="M301.566 138.993C300.338 136.672 297.744 135.034 295.833 135.171C294.059 135.307 293.649 137.355 294.878 139.539C296.243 141.859 298.7 143.497 300.611 143.361C302.522 143.224 302.931 141.177 301.566 138.993Z" fill="#362709"/>
<path d="M23.8538 150.22C23.8538 148.309 30.1326 143.122 32.0435 143.122V151.312H24.9457C24.3997 151.312 23.8538 150.766 23.8538 150.22Z" fill="#362709"/>
<path d="M31.8049 151.312V143.122H37.2648C38.7662 143.122 39.9947 144.351 39.9947 145.852V151.312H31.8049Z" fill="#362709"/>
<path d="M55.8973 151.312H47.7075V145.852C47.7075 144.351 48.936 143.122 50.4374 143.122H55.8973V151.312Z" fill="#362709"/>
<path d="M63.8484 143.122H55.6587V151.312H63.8484V143.122Z" fill="#362709"/>
<path d="M71.7996 143.122H63.6099V151.312H71.7996V143.122Z" fill="#362709"/>
<path d="M71.561 151.312V143.122H77.0209C78.5223 143.122 79.7508 144.351 79.7508 145.852V151.312H71.561Z" fill="#362709"/>
<path d="M104.458 143.122C106.369 143.122 111.556 149.401 111.556 151.312H103.366V144.214C103.366 143.668 103.912 143.122 104.458 143.122Z" fill="#362709"/>
<path d="M127.22 150.22C127.22 148.309 133.499 143.122 135.409 143.122V151.312H128.312C127.766 151.312 127.22 150.766 127.22 150.22Z" fill="#362709"/>
<path d="M143.361 143.122H135.171V151.312H143.361V143.122Z" fill="#362709"/>
<path d="M143.122 143.122H151.312V148.582C151.312 150.083 150.083 151.312 148.582 151.312H143.122V143.122Z" fill="#362709"/>
<path d="M160.116 143.122C162.027 143.122 167.214 149.401 167.214 151.312H159.024V144.214C159.024 143.668 159.57 143.122 160.116 143.122Z" fill="#362709"/>
<path d="M174.927 150.22C174.927 148.309 181.206 143.122 183.117 143.122V151.312H176.019C175.473 151.312 174.927 150.766 174.927 150.22Z" fill="#362709"/>
<path d="M191.068 143.122H182.878V151.312H191.068V143.122Z" fill="#362709"/>
<path d="M199.019 143.122H190.829V151.312H199.019V143.122Z" fill="#362709"/>
<path d="M214.922 143.122V151.312H209.462C207.96 151.312 206.732 150.083 206.732 148.582V143.122H214.922Z" fill="#362709"/>
<path d="M222.873 143.122H214.683V151.312H222.873V143.122Z" fill="#362709"/>
<path d="M230.824 144.214C230.824 146.125 224.545 151.312 222.634 151.312V143.122H229.732C230.278 143.122 230.824 143.668 230.824 144.214Z" fill="#362709"/>
<path d="M246.726 143.122H238.537V151.312H246.726V143.122Z" fill="#362709"/>
<path d="M254.678 143.122H246.488V151.312H254.678V143.122Z" fill="#362709"/>
<path d="M262.629 144.214C262.629 146.125 256.35 151.312 254.439 151.312V143.122H261.537C262.083 143.122 262.629 143.668 262.629 144.214Z" fill="#362709"/>
<path d="M277.712 146.944C276.484 144.623 273.89 142.985 271.979 143.122C270.205 143.258 269.796 145.306 271.024 147.49C272.389 149.81 274.846 151.448 276.757 151.312C278.668 151.175 279.077 149.128 277.712 146.944Z" fill="#362709"/>
<path d="M287.336 143.122C289.247 143.122 294.434 149.401 294.434 151.312H286.244V144.214C286.244 143.668 286.79 143.122 287.336 143.122Z" fill="#362709"/>
<path d="M309.517 146.944C308.289 144.623 305.695 142.985 303.784 143.122C302.01 143.258 301.6 145.306 302.829 147.49C304.194 149.81 306.651 151.448 308.562 151.312C310.473 151.175 310.882 149.128 309.517 146.944Z" fill="#362709"/>
<path d="M16.9946 151.073C18.9055 151.073 24.0923 157.352 24.0923 159.263H15.9026V152.165C15.9026 151.619 16.4486 151.073 16.9946 151.073Z" fill="#362709"/>
<path d="M39.9947 151.073V159.263H34.5349C33.0334 159.263 31.8049 158.035 31.8049 156.533V151.073H39.9947Z" fill="#362709"/>
<path d="M47.9459 151.073H39.7561V159.263H47.9459V151.073Z" fill="#362709"/>
<path d="M55.8973 151.073H47.7075V159.263H55.8973V151.073Z" fill="#362709"/>
<path d="M63.8484 151.073H55.6587V159.263H63.8484V151.073Z" fill="#362709"/>
<path d="M79.7508 151.073H71.561V159.263H79.7508V151.073Z" fill="#362709"/>
<path d="M111.556 151.073V159.263H106.096C104.594 159.263 103.366 158.035 103.366 156.533V151.073H111.556Z" fill="#362709"/>
<path d="M119.507 151.073H111.317V159.263H119.507V151.073Z" fill="#362709"/>
<path d="M127.458 152.165C127.458 154.076 121.179 159.263 119.268 159.263V151.073H126.366C126.912 151.073 127.458 151.619 127.458 152.165Z" fill="#362709"/>
<path d="M151.073 158.171C151.073 156.26 157.352 151.073 159.263 151.073V159.263H152.165C151.619 159.263 151.073 158.717 151.073 158.171Z" fill="#362709"/>
<path d="M167.214 151.073H159.024V159.263H167.214V151.073Z" fill="#362709"/>
<path d="M191.068 151.073V159.263H185.608C184.107 159.263 182.878 158.035 182.878 156.533V151.073H191.068Z" fill="#362709"/>
<path d="M190.829 151.073H199.019V156.533C199.019 158.035 197.791 159.263 196.289 159.263H190.829V151.073Z" fill="#362709"/>
<path d="M221.781 159.263C219.87 159.263 214.683 152.984 214.683 151.073H222.873V158.171C222.873 158.717 222.327 159.263 221.781 159.263Z" fill="#362709"/>
<path d="M245.634 159.263C243.723 159.263 238.537 152.984 238.537 151.073H246.726V158.171C246.726 158.717 246.18 159.263 245.634 159.263Z" fill="#362709"/>
<path d="M263.482 151.073C265.393 151.073 270.58 157.352 270.58 159.263H262.39V152.165C262.39 151.619 262.936 151.073 263.482 151.073Z" fill="#362709"/>
<path d="M294.434 151.073H286.244V159.263H294.434V151.073Z" fill="#362709"/>
<path d="M24.0923 159.024V167.214H18.6325C17.1311 167.214 15.9026 165.986 15.9026 164.484V159.024H24.0923Z" fill="#362709"/>
<path d="M32.0435 160.116C32.0435 162.027 25.7647 167.214 23.8538 167.214V159.024H30.9515C31.4975 159.024 32.0435 159.57 32.0435 160.116Z" fill="#362709"/>
<path d="M63.8484 159.024V167.214H58.3886C56.8872 167.214 55.6587 165.986 55.6587 164.484V159.024H63.8484Z" fill="#362709"/>
<path d="M71.7996 159.024H63.6099V167.214H71.7996V159.024Z" fill="#362709"/>
<path d="M71.561 159.024H79.7508V164.484C79.7508 165.986 78.5223 167.214 77.0209 167.214H71.561V159.024Z" fill="#362709"/>
<path d="M87.4636 166.122C87.4636 164.211 93.7424 159.024 95.6534 159.024V167.214H88.5556C88.0096 167.214 87.4636 166.668 87.4636 166.122Z" fill="#362709"/>
<path d="M103.605 160.116C103.605 162.027 97.3257 167.214 95.4148 167.214V159.024H102.513C103.059 159.024 103.605 159.57 103.605 160.116Z" fill="#362709"/>
<path d="M134.59 162.846C133.362 160.526 130.769 158.888 128.858 159.025C127.083 159.161 126.674 161.208 127.902 163.392C129.267 165.713 131.724 167.351 133.635 167.214C135.546 167.078 135.955 165.03 134.59 162.846Z" fill="#362709"/>
<path d="M167.214 159.024H159.024V167.214H167.214V159.024Z" fill="#362709"/>
<path d="M176.019 159.024C177.93 159.024 183.117 165.303 183.117 167.214H174.927V160.116C174.927 159.57 175.473 159.024 176.019 159.024Z" fill="#362709"/>
<path d="M231.677 159.024C233.588 159.024 238.775 165.303 238.775 167.214H230.585V160.116C230.585 159.57 231.131 159.024 231.677 159.024Z" fill="#362709"/>
<path d="M262.629 167.214H254.439V161.754C254.439 160.253 255.668 159.024 257.169 159.024H262.629V167.214Z" fill="#362709"/>
<path d="M270.58 159.024H262.39V167.214H270.58V159.024Z" fill="#362709"/>
<path d="M278.293 166.122C278.293 164.211 284.572 159.024 286.482 159.024V167.214H279.385C278.839 167.214 278.293 166.668 278.293 166.122Z" fill="#362709"/>
<path d="M294.434 159.024H286.244V167.214H294.434V159.024Z" fill="#362709"/>
<path d="M302.385 159.024H294.195V167.214H302.385V159.024Z" fill="#362709"/>
<path d="M310.336 160.116C310.336 162.027 304.057 167.214 302.146 167.214V159.024H309.244C309.79 159.024 310.336 159.57 310.336 160.116Z" fill="#362709"/>
<path d="M39.1757 170.798C37.9472 168.477 35.3538 166.839 33.4428 166.976C31.6684 167.112 31.2589 169.16 32.4874 171.344C33.8523 173.664 36.3093 175.302 38.2202 175.165C40.1311 175.029 40.5406 172.982 39.1757 170.798Z" fill="#362709"/>
<path d="M86.8832 170.798C85.6547 168.477 83.0613 166.839 81.1504 166.976C79.3759 167.112 78.9664 169.16 80.1949 171.344C81.5599 173.664 84.0168 175.302 85.9277 175.165C87.8387 175.029 88.2482 172.982 86.8832 170.798Z" fill="#362709"/>
<path d="M110.737 170.798C109.508 168.477 106.915 166.839 105.004 166.976C103.229 167.112 102.82 169.16 104.048 171.344C105.413 173.664 107.87 175.302 109.781 175.165C111.692 175.029 112.102 172.982 110.737 170.798Z" fill="#362709"/>
<path d="M120.36 166.976C122.271 166.976 127.458 173.254 127.458 175.165H119.268V168.068C119.268 167.522 119.814 166.976 120.36 166.976Z" fill="#362709"/>
<path d="M142.542 170.798C141.313 168.477 138.72 166.839 136.809 166.976C135.034 167.112 134.625 169.16 135.853 171.344C137.218 173.664 139.675 175.302 141.586 175.165C143.497 175.029 143.907 172.982 142.542 170.798Z" fill="#362709"/>
<path d="M151.073 174.073C151.073 172.162 157.352 166.976 159.263 166.976V175.165H152.165C151.619 175.165 151.073 174.619 151.073 174.073Z" fill="#362709"/>
<path d="M159.024 166.976H167.214V172.435C167.214 173.937 165.986 175.165 164.484 175.165H159.024V166.976Z" fill="#362709"/>
<path d="M183.117 166.976V175.165H177.657C176.155 175.165 174.927 173.937 174.927 172.435V166.976H183.117Z" fill="#362709"/>
<path d="M191.068 166.976H182.878V175.165H191.068V166.976Z" fill="#362709"/>
<path d="M199.019 168.068C199.019 169.978 192.74 175.165 190.829 175.165V166.976H197.927C198.473 166.976 199.019 167.522 199.019 168.068Z" fill="#362709"/>
<path d="M238.775 166.976V175.165H233.315C231.814 175.165 230.585 173.937 230.585 172.435V166.976H238.775Z" fill="#362709"/>
<path d="M246.726 168.068C246.726 169.978 240.448 175.165 238.537 175.165V166.976H245.634C246.18 166.976 246.726 167.522 246.726 168.068Z" fill="#362709"/>
<path d="M262.629 166.976H254.439V175.165H262.629V166.976Z" fill="#362709"/>
<path d="M270.58 166.976H262.39V175.165H270.58V166.976Z" fill="#362709"/>
<path d="M16.9946 174.927C18.9055 174.927 24.0923 181.206 24.0923 183.117H15.9026V176.019C15.9026 175.473 16.4486 174.927 16.9946 174.927Z" fill="#362709"/>
<path d="M47.9459 183.117H39.7561V177.657C39.7561 176.155 40.9846 174.927 42.486 174.927H47.9459V183.117Z" fill="#362709"/>
<path d="M55.8973 174.927H47.7075V183.117H55.8973V174.927Z" fill="#362709"/>
<path d="M63.8484 174.927H55.6587V183.117H63.8484V174.927Z" fill="#362709"/>
<path d="M71.7996 176.019C71.7996 177.93 65.5208 183.117 63.6099 183.117V174.927H70.7077C71.2536 174.927 71.7996 175.473 71.7996 176.019Z" fill="#362709"/>
<path d="M88.5556 174.927C90.4665 174.927 95.6534 181.206 95.6534 183.117H87.4636V176.019C87.4636 175.473 88.0096 174.927 88.5556 174.927Z" fill="#362709"/>
<path d="M127.458 174.927H119.268V183.117H127.458V174.927Z" fill="#362709"/>
<path d="M135.409 176.019C135.409 177.93 129.131 183.117 127.22 183.117V174.927H134.318C134.863 174.927 135.409 175.473 135.409 176.019Z" fill="#362709"/>
<path d="M198.781 182.025C198.781 180.114 205.059 174.927 206.97 174.927V183.117H199.872C199.327 183.117 198.781 182.571 198.781 182.025Z" fill="#362709"/>
<path d="M214.922 174.927H206.732V183.117H214.922V174.927Z" fill="#362709"/>
<path d="M222.873 174.927H214.683V183.117H222.873V174.927Z" fill="#362709"/>
<path d="M230.824 176.019C230.824 177.93 224.545 183.117 222.634 183.117V174.927H229.732C230.278 174.927 230.824 175.473 230.824 176.019Z" fill="#362709"/>
<path d="M262.629 174.927V183.117H257.169C255.668 183.117 254.439 181.888 254.439 180.387V174.927H262.629Z" fill="#362709"/>
<path d="M270.58 174.927H262.39V183.117H270.58V174.927Z" fill="#362709"/>
<path d="M278.531 176.019C278.531 177.93 272.252 183.117 270.342 183.117V174.927H277.439C277.985 174.927 278.531 175.473 278.531 176.019Z" fill="#362709"/>
<path d="M287.336 174.927C289.247 174.927 294.434 181.206 294.434 183.117H286.244V176.019C286.244 175.473 286.79 174.927 287.336 174.927Z" fill="#362709"/>
<path d="M24.0923 182.878H15.9026V191.068H24.0923V182.878Z" fill="#362709"/>
<path d="M32.0435 182.878H23.8538V191.068H32.0435V182.878Z" fill="#362709"/>
<path d="M39.9947 182.878H31.8049V191.068H39.9947V182.878Z" fill="#362709"/>
<path d="M47.9459 182.878H39.7561V191.068H47.9459V182.878Z" fill="#362709"/>
<path d="M47.7075 182.878H55.8973V188.338C55.8973 189.839 54.6688 191.068 53.1674 191.068H47.7075V182.878Z" fill="#362709"/>
<path d="M79.5122 189.976C79.5122 188.065 85.791 182.878 87.702 182.878V191.068H80.6042C80.0582 191.068 79.5122 190.522 79.5122 189.976Z" fill="#362709"/>
<path d="M95.6534 182.878H87.4636V191.068H95.6534V182.878Z" fill="#362709"/>
<path d="M111.556 191.068H103.366V185.608C103.366 184.107 104.594 182.878 106.096 182.878H111.556V191.068Z" fill="#362709"/>
<path d="M119.507 182.878H111.317V191.068H119.507V182.878Z" fill="#362709"/>
<path d="M119.268 182.878H127.458V188.338C127.458 189.839 126.23 191.068 124.728 191.068H119.268V182.878Z" fill="#362709"/>
<path d="M175.166 191.068H166.976V185.608C166.976 184.107 168.204 182.878 169.706 182.878H175.166V191.068Z" fill="#362709"/>
<path d="M174.927 191.068V182.878H180.387C181.888 182.878 183.117 184.107 183.117 185.608V191.068H174.927Z" fill="#362709"/>
<path d="M214.922 182.878H206.732V191.068H214.922V182.878Z" fill="#362709"/>
<path d="M269.488 191.068C267.577 191.068 262.39 184.789 262.39 182.878H270.58V189.976C270.58 190.522 270.034 191.068 269.488 191.068Z" fill="#362709"/>
<path d="M294.434 182.878H286.244V191.068H294.434V182.878Z" fill="#362709"/>
<path d="M302.385 183.97C302.385 185.881 296.106 191.068 294.195 191.068V182.878H301.293C301.839 182.878 302.385 183.424 302.385 183.97Z" fill="#362709"/>
<path d="M23.0004 199.019C21.0894 199.019 15.9026 192.74 15.9026 190.829H24.0923V197.927C24.0923 198.473 23.5464 199.019 23.0004 199.019Z" fill="#362709"/>
<path d="M55.6587 197.927C55.6587 196.016 61.9375 190.829 63.8484 190.829V199.019H56.7507C56.2047 199.019 55.6587 198.473 55.6587 197.927Z" fill="#362709"/>
<path d="M71.7996 191.921C71.7996 193.832 65.5208 199.019 63.6099 199.019V190.829H70.7077C71.2536 190.829 71.7996 191.375 71.7996 191.921Z" fill="#362709"/>
<path d="M95.6534 190.829H87.4636V199.019H95.6534V190.829Z" fill="#362709"/>
<path d="M103.605 190.829H95.4148V199.019H103.605V190.829Z" fill="#362709"/>
<path d="M103.366 190.829H111.556V196.289C111.556 197.791 110.327 199.019 108.826 199.019H103.366V190.829Z" fill="#362709"/>
<path d="M127.22 197.927C127.22 196.016 133.499 190.829 135.409 190.829V199.019H128.312C127.766 199.019 127.22 198.473 127.22 197.927Z" fill="#362709"/>
<path d="M143.361 191.921C143.361 193.832 137.082 199.019 135.171 199.019V190.829H142.269C142.815 190.829 143.361 191.375 143.361 191.921Z" fill="#362709"/>
<path d="M167.214 199.019H159.024V193.559C159.024 192.058 160.253 190.829 161.754 190.829H167.214V199.019Z" fill="#362709"/>
<path d="M175.166 190.829H166.976V199.019H175.166V190.829Z" fill="#362709"/>
<path d="M183.117 190.829H174.927V199.019H183.117V190.829Z" fill="#362709"/>
<path d="M199.019 199.019H190.829V193.559C190.829 192.058 192.058 190.829 193.559 190.829H199.019V199.019Z" fill="#362709"/>
<path d="M206.97 190.829H198.781V199.019H206.97V190.829Z" fill="#362709"/>
<path d="M214.922 190.829H206.732V199.019H214.922V190.829Z" fill="#362709"/>
<path d="M222.873 191.921C222.873 193.832 216.594 199.019 214.683 199.019V190.829H221.781C222.327 190.829 222.873 191.375 222.873 191.921Z" fill="#362709"/>
<path d="M237.956 194.651C236.728 192.331 234.134 190.693 232.223 190.829C230.449 190.966 230.039 193.013 231.268 195.197C232.633 197.518 235.09 199.155 237.001 199.019C238.912 198.882 239.321 196.835 237.956 194.651Z" fill="#362709"/>
<path d="M253.859 194.651C252.63 192.331 250.037 190.693 248.126 190.829C246.352 190.966 245.942 193.013 247.17 195.197C248.535 197.518 250.992 199.155 252.903 199.019C254.814 198.882 255.224 196.835 253.859 194.651Z" fill="#362709"/>
<path d="M293.342 199.019C291.431 199.019 286.244 192.74 286.244 190.829H294.434V197.927C294.434 198.473 293.888 199.019 293.342 199.019Z" fill="#362709"/>
<path d="M303.238 190.829C305.149 190.829 310.336 197.108 310.336 199.019H302.146V191.921C302.146 191.375 302.692 190.829 303.238 190.829Z" fill="#362709"/>
<path d="M32.0435 206.97H23.8538V201.51C23.8538 200.009 25.0822 198.781 26.5837 198.781H32.0435V206.97Z" fill="#362709"/>
<path d="M39.9947 199.872C39.9947 201.783 33.7159 206.97 31.8049 206.97V198.781H38.9027C39.4487 198.781 39.9947 199.327 39.9947 199.872Z" fill="#362709"/>
<path d="M79.7508 206.97H71.561V201.51C71.561 200.009 72.7895 198.781 74.291 198.781H79.7508V206.97Z" fill="#362709"/>
<path d="M87.702 198.781H79.5122V206.97H87.702V198.781Z" fill="#362709"/>
<path d="M95.6534 198.781H87.4636V206.97H95.6534V198.781Z" fill="#362709"/>
<path d="M167.214 198.781V206.97H161.754C160.253 206.97 159.024 205.742 159.024 204.24V198.781H167.214Z" fill="#362709"/>
<path d="M175.166 198.781H166.976V206.97H175.166V198.781Z" fill="#362709"/>
<path d="M183.117 198.781H174.927V206.97H183.117V198.781Z" fill="#362709"/>
<path d="M191.068 198.781H182.878V206.97H191.068V198.781Z" fill="#362709"/>
<path d="M199.019 198.781H190.829V206.97H199.019V198.781Z" fill="#362709"/>
<path d="M213.83 206.97C211.919 206.97 206.732 200.691 206.732 198.781H214.922V205.878C214.922 206.424 214.376 206.97 213.83 206.97Z" fill="#362709"/>
<path d="M230.005 202.602C228.777 200.282 226.183 198.644 224.272 198.78C222.498 198.917 222.088 200.964 223.317 203.148C224.682 205.469 227.139 207.107 229.05 206.97C230.96 206.834 231.37 204.786 230.005 202.602Z" fill="#362709"/>
<path d="M263.482 198.781C265.393 198.781 270.58 205.059 270.58 206.97H262.39V199.872C262.39 199.327 262.936 198.781 263.482 198.781Z" fill="#362709"/>
<path d="M302.385 206.97H294.195V201.51C294.195 200.009 295.424 198.781 296.925 198.781H302.385V206.97Z" fill="#362709"/>
<path d="M310.336 198.781H302.146V206.97H310.336V198.781Z" fill="#362709"/>
<path d="M24.0923 214.921H15.9026V209.462C15.9026 207.96 17.1311 206.732 18.6325 206.732H24.0923V214.921Z" fill="#362709"/>
<path d="M23.8538 206.732H32.0435V212.192C32.0435 213.693 30.8151 214.921 29.3136 214.921H23.8538V206.732Z" fill="#362709"/>
<path d="M63.6099 213.829C63.6099 211.919 69.8887 206.732 71.7996 206.732V214.921H64.7018C64.1558 214.921 63.6099 214.375 63.6099 213.829Z" fill="#362709"/>
<path d="M71.561 206.732H79.7508V212.192C79.7508 213.693 78.5223 214.921 77.0209 214.921H71.561V206.732Z" fill="#362709"/>
<path d="M95.6534 206.732H87.4636V214.921H95.6534V206.732Z" fill="#362709"/>
<path d="M111.556 214.921H103.366V209.462C103.366 207.96 104.594 206.732 106.096 206.732H111.556V214.921Z" fill="#362709"/>
<path d="M111.317 214.921V206.732H116.777C118.278 206.732 119.507 207.96 119.507 209.462V214.921H111.317Z" fill="#362709"/>
<path d="M128.312 206.732C130.223 206.732 135.409 213.011 135.409 214.921H127.22V207.824C127.22 207.278 127.766 206.732 128.312 206.732Z" fill="#362709"/>
<path d="M158.444 210.554C157.216 208.233 154.622 206.595 152.711 206.732C150.937 206.868 150.527 208.916 151.756 211.1C153.121 213.42 155.578 215.058 157.489 214.922C159.399 214.785 159.809 212.738 158.444 210.554Z" fill="#362709"/>
<path d="M183.117 206.732H174.927V214.921H183.117V206.732Z" fill="#362709"/>
<path d="M199.019 206.732H190.829V214.921H199.019V206.732Z" fill="#362709"/>
<path d="M206.97 207.824C206.97 209.735 200.691 214.921 198.781 214.921V206.732H205.878C206.424 206.732 206.97 207.278 206.97 207.824Z" fill="#362709"/>
<path d="M254.439 213.829C254.439 211.919 260.718 206.732 262.629 206.732V214.921H255.531C254.985 214.921 254.439 214.375 254.439 213.829Z" fill="#362709"/>
<path d="M270.58 206.732H262.39V214.921H270.58V206.732Z" fill="#362709"/>
<path d="M278.531 206.732H270.342V214.921H278.531V206.732Z" fill="#362709"/>
<path d="M286.482 206.732H278.293V214.921H286.482V206.732Z" fill="#362709"/>
<path d="M294.434 206.732H286.244V214.921H294.434V206.732Z" fill="#362709"/>
<path d="M302.385 206.732H294.195V214.921H302.385V206.732Z" fill="#362709"/>
<path d="M302.146 206.732H310.336V212.192C310.336 213.693 309.108 214.921 307.606 214.921H302.146V206.732Z" fill="#362709"/>
<path d="M24.0923 214.683H15.9026V222.873H24.0923V214.683Z" fill="#362709"/>
<path d="M56.7507 214.683C58.6616 214.683 63.8484 220.962 63.8484 222.873H55.6587V215.775C55.6587 215.229 56.2047 214.683 56.7507 214.683Z" fill="#362709"/>
<path d="M79.5122 221.781C79.5122 219.87 85.791 214.683 87.702 214.683V222.873H80.6042C80.0582 222.873 79.5122 222.327 79.5122 221.781Z" fill="#362709"/>
<path d="M87.4636 214.683H95.6534V220.143C95.6534 221.644 94.4249 222.873 92.9235 222.873H87.4636V214.683Z" fill="#362709"/>
<path d="M111.556 214.683V222.873H106.096C104.594 222.873 103.366 221.644 103.366 220.143V214.683H111.556Z" fill="#362709"/>
<path d="M119.507 214.683H111.317V222.873H119.507V214.683Z" fill="#362709"/>
<path d="M127.458 214.683H119.268V222.873H127.458V214.683Z" fill="#362709"/>
<path d="M127.22 214.683H135.409V220.143C135.409 221.644 134.181 222.873 132.68 222.873H127.22V214.683Z" fill="#362709"/>
<path d="M159.024 221.781C159.024 219.87 165.303 214.683 167.214 214.683V222.873H160.116C159.57 222.873 159.024 222.327 159.024 221.781Z" fill="#362709"/>
<path d="M175.166 214.683H166.976V222.873H175.166V214.683Z" fill="#362709"/>
<path d="M183.117 214.683H174.927V222.873H183.117V214.683Z" fill="#362709"/>
<path d="M197.927 222.873C196.016 222.873 190.829 216.594 190.829 214.683H199.019V221.781C199.019 222.327 198.473 222.873 197.927 222.873Z" fill="#362709"/>
<path d="M206.732 221.781C206.732 219.87 213.011 214.683 214.922 214.683V222.873H207.824C207.278 222.873 206.732 222.327 206.732 221.781Z" fill="#362709"/>
<path d="M222.873 215.775C222.873 217.686 216.594 222.873 214.683 222.873V214.683H221.781C222.327 214.683 222.873 215.229 222.873 215.775Z" fill="#362709"/>
<path d="M246.726 222.873H238.537V217.413C238.537 215.911 239.765 214.683 241.267 214.683H246.726V222.873Z" fill="#362709"/>
<path d="M254.678 215.775C254.678 217.686 248.399 222.873 246.488 222.873V214.683H253.586C254.132 214.683 254.678 215.229 254.678 215.775Z" fill="#362709"/>
<path d="M270.58 214.683H262.39V222.873H270.58V214.683Z" fill="#362709"/>
<path d="M294.434 214.683H286.244V222.873H294.434V214.683Z" fill="#362709"/>
<path d="M24.0923 222.634H15.9026V230.824H24.0923V222.634Z" fill="#362709"/>
<path d="M40.8481 222.634C42.759 222.634 47.9459 228.913 47.9459 230.824H39.7561V223.726C39.7561 223.18 40.3021 222.634 40.8481 222.634Z" fill="#362709"/>
<path d="M63.8484 222.634V230.824H58.3886C56.8872 230.824 55.6587 229.596 55.6587 228.094V222.634H63.8484Z" fill="#362709"/>
<path d="M71.7996 222.634H63.6099V230.824H71.7996V222.634Z" fill="#362709"/>
<path d="M71.561 230.824V222.634H77.0209C78.5223 222.634 79.7508 223.863 79.7508 225.364V230.824H71.561Z" fill="#362709"/>
<path d="M96.5068 222.634C98.4177 222.634 103.605 228.913 103.605 230.824H95.4148V223.726C95.4148 223.18 95.9608 222.634 96.5068 222.634Z" fill="#362709"/>
<path d="M142.542 226.456C141.313 224.136 138.72 222.498 136.809 222.634C135.034 222.771 134.625 224.818 135.853 227.002C137.218 229.322 139.675 230.96 141.586 230.824C143.497 230.687 143.907 228.64 142.542 226.456Z" fill="#362709"/>
<path d="M158.444 226.456C157.216 224.136 154.622 222.498 152.711 222.634C150.937 222.771 150.527 224.818 151.756 227.002C153.121 229.322 155.578 230.96 157.489 230.824C159.399 230.687 159.809 228.64 158.444 226.456Z" fill="#362709"/>
<path d="M183.117 222.634H174.927V230.824H183.117V222.634Z" fill="#362709"/>
<path d="M222.634 229.732C222.634 227.821 228.913 222.634 230.824 222.634V230.824H223.726C223.18 230.824 222.634 230.278 222.634 229.732Z" fill="#362709"/>
<path d="M238.775 222.634H230.585V230.824H238.775V222.634Z" fill="#362709"/>
<path d="M246.726 222.634H238.537V230.824H246.726V222.634Z" fill="#362709"/>
<path d="M254.439 229.732C254.439 227.821 260.718 222.634 262.629 222.634V230.824H255.531C254.985 230.824 254.439 230.278 254.439 229.732Z" fill="#362709"/>
<path d="M270.58 222.634H262.39V230.824H270.58V222.634Z" fill="#362709"/>
<path d="M294.434 222.634V230.824H288.974C287.473 230.824 286.244 229.596 286.244 228.094V222.634H294.434Z" fill="#362709"/>
<path d="M302.385 222.634H294.195V230.824H302.385V222.634Z" fill="#362709"/>
<path d="M310.336 223.726C310.336 225.637 304.057 230.824 302.146 230.824V222.634H309.244C309.79 222.634 310.336 223.18 310.336 223.726Z" fill="#362709"/>
<path d="M24.0923 230.585H15.9026V238.775H24.0923V230.585Z" fill="#362709"/>
<path d="M47.9459 230.585H39.7561V238.775H47.9459V230.585Z" fill="#362709"/>
<path d="M55.8973 231.677C55.8973 233.588 49.6185 238.775 47.7075 238.775V230.585H54.8053C55.3513 230.585 55.8973 231.131 55.8973 231.677Z" fill="#362709"/>
<path d="M78.6588 238.775C76.7479 238.775 71.561 232.496 71.561 230.585H79.7508V237.683C79.7508 238.229 79.2048 238.775 78.6588 238.775Z" fill="#362709"/>
<path d="M95.6534 238.775H87.4636V233.315C87.4636 231.814 88.6921 230.585 90.1935 230.585H95.6534V238.775Z" fill="#362709"/>
<path d="M103.605 230.585H95.4148V238.775H103.605V230.585Z" fill="#362709"/>
<path d="M103.366 238.775V230.585H108.826C110.327 230.585 111.556 231.814 111.556 233.315V238.775H103.366Z" fill="#362709"/>
<path d="M134.59 234.407C133.362 232.087 130.769 230.449 128.858 230.585C127.083 230.722 126.674 232.769 127.902 234.953C129.267 237.274 131.724 238.912 133.635 238.775C135.546 238.639 135.955 236.591 134.59 234.407Z" fill="#362709"/>
<path d="M182.025 238.775C180.114 238.775 174.927 232.496 174.927 230.585H183.117V237.683C183.117 238.229 182.571 238.775 182.025 238.775Z" fill="#362709"/>
<path d="M207.824 230.585C209.735 230.585 214.922 236.864 214.922 238.775H206.732V231.677C206.732 231.131 207.278 230.585 207.824 230.585Z" fill="#362709"/>
<path d="M238.775 230.585H230.585V238.775H238.775V230.585Z" fill="#362709"/>
<path d="M246.726 230.585H238.537V238.775H246.726V230.585Z" fill="#362709"/>
<path d="M246.488 238.775V230.585H251.948C253.449 230.585 254.678 231.814 254.678 233.315V238.775H246.488Z" fill="#362709"/>
<path d="M270.58 230.585H262.39V238.775H270.58V230.585Z" fill="#362709"/>
<path d="M302.385 230.585H294.195V238.775H302.385V230.585Z" fill="#362709"/>
<path d="M23.0004 246.726C21.0894 246.726 15.9026 240.448 15.9026 238.537H24.0923V245.634C24.0923 246.18 23.5464 246.726 23.0004 246.726Z" fill="#362709"/>
<path d="M46.8539 246.726C44.9429 246.726 39.7561 240.448 39.7561 238.537H47.9459V245.634C47.9459 246.18 47.3999 246.726 46.8539 246.726Z" fill="#362709"/>
<path d="M55.6587 245.634C55.6587 243.723 61.9375 238.537 63.8484 238.537V246.726H56.7507C56.2047 246.726 55.6587 246.18 55.6587 245.634Z" fill="#362709"/>
<path d="M71.7996 239.629C71.7996 241.54 65.5208 246.726 63.6099 246.726V238.537H70.7077C71.2536 238.537 71.7996 239.083 71.7996 239.629Z" fill="#362709"/>
<path d="M95.6534 238.537V246.726H90.1935C88.6921 246.726 87.4636 245.498 87.4636 243.996V238.537H95.6534Z" fill="#362709"/>
<path d="M103.605 238.537H95.4148V246.726H103.605V238.537Z" fill="#362709"/>
<path d="M103.366 238.537H111.556V243.996C111.556 245.498 110.327 246.726 108.826 246.726H103.366V238.537Z" fill="#362709"/>
<path d="M143.361 246.726H135.171V241.267C135.171 239.765 136.399 238.537 137.901 238.537H143.361V246.726Z" fill="#362709"/>
<path d="M151.312 238.537H143.122V246.726H151.312V238.537Z" fill="#362709"/>
<path d="M151.073 246.726V238.537H156.533C158.035 238.537 159.263 239.765 159.263 241.267V246.726H151.073Z" fill="#362709"/>
<path d="M174.347 242.358C173.118 240.038 170.525 238.4 168.614 238.537C166.839 238.673 166.43 240.72 167.658 242.904C169.023 245.225 171.48 246.863 173.391 246.726C175.302 246.59 175.712 244.542 174.347 242.358Z" fill="#362709"/>
<path d="M191.921 238.537C193.832 238.537 199.019 244.815 199.019 246.726H190.829V239.629C190.829 239.083 191.375 238.537 191.921 238.537Z" fill="#362709"/>
<path d="M214.922 238.537V246.726H209.462C207.96 246.726 206.732 245.498 206.732 243.996V238.537H214.922Z" fill="#362709"/>
<path d="M222.873 238.537H214.683V246.726H222.873V238.537Z" fill="#362709"/>
<path d="M230.824 238.537H222.634V246.726H230.824V238.537Z" fill="#362709"/>
<path d="M238.775 238.537H230.585V246.726H238.775V238.537Z" fill="#362709"/>
<path d="M246.726 238.537H238.537V246.726H246.726V238.537Z" fill="#362709"/>
<path d="M254.678 238.537H246.488V246.726H254.678V238.537Z" fill="#362709"/>
<path d="M262.629 238.537H254.439V246.726H262.629V238.537Z" fill="#362709"/>
<path d="M270.58 238.537H262.39V246.726H270.58V238.537Z" fill="#362709"/>
<path d="M270.342 246.726V238.537H275.801C277.303 238.537 278.531 239.765 278.531 241.267V246.726H270.342Z" fill="#362709"/>
<path d="M302.385 238.537H294.195V246.726H302.385V238.537Z" fill="#362709"/>
<path d="M86.8832 250.31C85.6547 247.989 83.0613 246.351 81.1504 246.488C79.3759 246.624 78.9664 248.672 80.1949 250.856C81.5599 253.176 84.0168 254.814 85.9277 254.678C87.8387 254.541 88.2482 252.494 86.8832 250.31Z" fill="#362709"/>
<path d="M103.605 246.488H95.4148V254.678H103.605V246.488Z" fill="#362709"/>
<path d="M112.409 246.488C114.32 246.488 119.507 252.767 119.507 254.678H111.317V247.58C111.317 247.034 111.863 246.488 112.409 246.488Z" fill="#362709"/>
<path d="M142.269 254.678C140.358 254.678 135.171 248.399 135.171 246.488H143.361V253.586C143.361 254.132 142.815 254.678 142.269 254.678Z" fill="#362709"/>
<path d="M158.171 254.678C156.26 254.678 151.073 248.399 151.073 246.488H159.263V253.586C159.263 254.132 158.717 254.678 158.171 254.678Z" fill="#362709"/>
<path d="M199.019 246.488H190.829V254.678H199.019V246.488Z" fill="#362709"/>
<path d="M206.97 247.58C206.97 249.491 200.691 254.678 198.781 254.678V246.488H205.878C206.424 246.488 206.97 247.034 206.97 247.58Z" fill="#362709"/>
<path d="M246.726 246.488H238.537V254.678H246.726V246.488Z" fill="#362709"/>
<path d="M278.531 246.488H270.342V254.678H278.531V246.488Z" fill="#362709"/>
<path d="M302.385 246.488H294.195V254.678H302.385V246.488Z" fill="#362709"/>
<path d="M103.605 254.439H95.4148V262.629H103.605V254.439Z" fill="#362709"/>
<path d="M118.415 262.629C116.504 262.629 111.317 256.35 111.317 254.439H119.507V261.537C119.507 262.083 118.961 262.629 118.415 262.629Z" fill="#362709"/>
<path d="M150.493 258.261C149.264 255.941 146.671 254.303 144.76 254.439C142.986 254.576 142.576 256.623 143.805 258.807C145.169 261.127 147.626 262.765 149.537 262.629C151.448 262.492 151.858 260.445 150.493 258.261Z" fill="#362709"/>
<path d="M175.166 262.629H166.976V257.169C166.976 255.667 168.204 254.439 169.706 254.439H175.166V262.629Z" fill="#362709"/>
<path d="M174.927 262.629V254.439H180.387C181.888 254.439 183.117 255.667 183.117 257.169V262.629H174.927Z" fill="#362709"/>
<path d="M199.019 254.439H190.829V262.629H199.019V254.439Z" fill="#362709"/>
<path d="M214.922 262.629H206.732V257.169C206.732 255.667 207.96 254.439 209.462 254.439H214.922V262.629Z" fill="#362709"/>
<path d="M222.873 255.531C222.873 257.442 216.594 262.629 214.683 262.629V254.439H221.781C222.327 254.439 222.873 254.985 222.873 255.531Z" fill="#362709"/>
<path d="M246.726 254.439H238.537V262.629H246.726V254.439Z" fill="#362709"/>
<path d="M261.81 258.261C260.581 255.941 257.988 254.303 256.077 254.439C254.303 254.576 253.893 256.623 255.122 258.807C256.487 261.127 258.944 262.765 260.854 262.629C262.765 262.492 263.175 260.445 261.81 258.261Z" fill="#362709"/>
<path d="M278.531 254.439H270.342V262.629H278.531V254.439Z" fill="#362709"/>
<path d="M286.482 255.531C286.482 257.442 280.204 262.629 278.293 262.629V254.439H285.391C285.936 254.439 286.482 254.985 286.482 255.531Z" fill="#362709"/>
<path d="M302.385 254.439H294.195V262.629H302.385V254.439Z" fill="#362709"/>
<path d="M302.146 262.629V254.439H307.606C309.108 254.439 310.336 255.667 310.336 257.169V262.629H302.146Z" fill="#362709"/>
<path d="M103.605 262.39H95.4148V270.58H103.605V262.39Z" fill="#362709"/>
<path d="M142.542 266.212C141.313 263.892 138.72 262.254 136.809 262.39C135.034 262.527 134.625 264.574 135.853 266.758C137.218 269.079 139.675 270.717 141.586 270.58C143.497 270.444 143.907 268.396 142.542 266.212Z" fill="#362709"/>
<path d="M175.166 262.39H166.976V270.58H175.166V262.39Z" fill="#362709"/>
<path d="M183.117 262.39H174.927V270.58H183.117V262.39Z" fill="#362709"/>
<path d="M191.068 262.39H182.878V270.58H191.068V262.39Z" fill="#362709"/>
<path d="M199.019 262.39H190.829V270.58H199.019V262.39Z" fill="#362709"/>
<path d="M206.97 262.39H198.781V270.58H206.97V262.39Z" fill="#362709"/>
<path d="M214.922 262.39H206.732V270.58H214.922V262.39Z" fill="#362709"/>
<path d="M230.824 270.58H222.634V265.12C222.634 263.619 223.863 262.39 225.364 262.39H230.824V270.58Z" fill="#362709"/>
<path d="M238.775 262.39H230.585V270.58H238.775V262.39Z" fill="#362709"/>
<path d="M246.726 262.39H238.537V270.58H246.726V262.39Z" fill="#362709"/>
<path d="M278.531 262.39H270.342V270.58H278.531V262.39Z" fill="#362709"/>
<path d="M302.385 262.39V270.58H296.925C295.424 270.58 294.195 269.352 294.195 267.85V262.39H302.385Z" fill="#362709"/>
<path d="M310.336 262.39H302.146V270.58H310.336V262.39Z" fill="#362709"/>
<path d="M87.702 278.531H79.5122V273.071C79.5122 271.57 80.7407 270.342 82.2421 270.342H87.702V278.531Z" fill="#362709"/>
<path d="M95.6534 270.342H87.4636V278.531H95.6534V270.342Z" fill="#362709"/>
<path d="M103.605 270.342H95.4148V278.531H103.605V270.342Z" fill="#362709"/>
<path d="M112.409 270.342C114.32 270.342 119.507 276.62 119.507 278.531H111.317V271.434C111.317 270.888 111.863 270.342 112.409 270.342Z" fill="#362709"/>
<path d="M152.165 270.342C154.076 270.342 159.263 276.62 159.263 278.531H151.073V271.434C151.073 270.888 151.619 270.342 152.165 270.342Z" fill="#362709"/>
<path d="M174.074 278.531C172.163 278.531 166.976 272.252 166.976 270.342H175.166V277.439C175.166 277.985 174.62 278.531 174.074 278.531Z" fill="#362709"/>
<path d="M214.922 270.342V278.531H209.462C207.96 278.531 206.732 277.303 206.732 275.801V270.342H214.922Z" fill="#362709"/>
<path d="M222.873 270.342H214.683V278.531H222.873V270.342Z" fill="#362709"/>
<path d="M230.824 270.342H222.634V278.531H230.824V270.342Z" fill="#362709"/>
<path d="M238.775 270.342H230.585V278.531H238.775V270.342Z" fill="#362709"/>
<path d="M246.726 270.342H238.537V278.531H246.726V270.342Z" fill="#362709"/>
<path d="M254.678 270.342H246.488V278.531H254.678V270.342Z" fill="#362709"/>
<path d="M262.629 270.342H254.439V278.531H262.629V270.342Z" fill="#362709"/>
<path d="M270.58 270.342H262.39V278.531H270.58V270.342Z" fill="#362709"/>
<path d="M278.531 270.342H270.342V278.531H278.531V270.342Z" fill="#362709"/>
<path d="M293.615 274.163C292.386 271.843 289.793 270.205 287.882 270.341C286.108 270.478 285.698 272.525 286.927 274.709C288.292 277.03 290.748 278.668 292.659 278.531C294.57 278.395 294.98 276.347 293.615 274.163Z" fill="#362709"/>
<path d="M309.244 278.531C307.333 278.531 302.146 272.252 302.146 270.342H310.336V277.439C310.336 277.985 309.79 278.531 309.244 278.531Z" fill="#362709"/>
<path d="M87.702 278.293H79.5122V286.482H87.702V278.293Z" fill="#362709"/>
<path d="M95.6534 278.293H87.4636V286.482H95.6534V278.293Z" fill="#362709"/>
<path d="M95.4148 278.293H103.605V283.753C103.605 285.254 102.376 286.482 100.875 286.482H95.4148V278.293Z" fill="#362709"/>
<path d="M119.507 278.293H111.317V286.482H119.507V278.293Z" fill="#362709"/>
<path d="M127.458 278.293H119.268V286.482H127.458V278.293Z" fill="#362709"/>
<path d="M135.409 279.385C135.409 281.296 129.131 286.482 127.22 286.482V278.293H134.318C134.863 278.293 135.409 278.839 135.409 279.385Z" fill="#362709"/>
<path d="M151.312 286.482H143.122V281.023C143.122 279.521 144.351 278.293 145.852 278.293H151.312V286.482Z" fill="#362709"/>
<path d="M151.073 278.293H159.263V283.753C159.263 285.254 158.035 286.482 156.533 286.482H151.073V278.293Z" fill="#362709"/>
<path d="M176.019 278.293C177.93 278.293 183.117 284.572 183.117 286.482H174.927V279.385C174.927 278.839 175.473 278.293 176.019 278.293Z" fill="#362709"/>
<path d="M191.921 278.293C193.832 278.293 199.019 284.572 199.019 286.482H190.829V279.385C190.829 278.839 191.375 278.293 191.921 278.293Z" fill="#362709"/>
<path d="M246.726 278.293H238.537V286.482H246.726V278.293Z" fill="#362709"/>
<path d="M262.629 278.293V286.482H257.169C255.668 286.482 254.439 285.254 254.439 283.753V278.293H262.629Z" fill="#362709"/>
<path d="M270.58 278.293H262.39V286.482H270.58V278.293Z" fill="#362709"/>
<path d="M270.342 278.293H278.531V283.753C278.531 285.254 277.303 286.482 275.801 286.482H270.342V278.293Z" fill="#362709"/>
<path d="M87.702 286.244V294.434H82.2421C80.7407 294.434 79.5122 293.205 79.5122 291.704V286.244H87.702Z" fill="#362709"/>
<path d="M95.6534 286.244H87.4636V294.434H95.6534V286.244Z" fill="#362709"/>
<path d="M119.507 286.244V294.434H114.047C112.546 294.434 111.317 293.205 111.317 291.704V286.244H119.507Z" fill="#362709"/>
<path d="M119.268 286.244H127.458V291.704C127.458 293.205 126.23 294.434 124.728 294.434H119.268V286.244Z" fill="#362709"/>
<path d="M143.361 294.434H135.171V288.974C135.171 287.472 136.399 286.244 137.901 286.244H143.361V294.434Z" fill="#362709"/>
<path d="M143.122 286.244H151.312V291.704C151.312 293.205 150.083 294.434 148.582 294.434H143.122V286.244Z" fill="#362709"/>
<path d="M183.117 286.244H174.927V294.434H183.117V286.244Z" fill="#362709"/>
<path d="M191.068 286.244H182.878V294.434H191.068V286.244Z" fill="#362709"/>
<path d="M199.019 286.244H190.829V294.434H199.019V286.244Z" fill="#362709"/>
<path d="M206.97 286.244H198.781V294.434H206.97V286.244Z" fill="#362709"/>
<path d="M214.922 287.336C214.922 289.247 208.643 294.434 206.732 294.434V286.244H213.83C214.376 286.244 214.922 286.79 214.922 287.336Z" fill="#362709"/>
<path d="M246.726 286.244H238.537V294.434H246.726V286.244Z" fill="#362709"/>
<path d="M246.488 294.434V286.244H251.948C253.449 286.244 254.678 287.472 254.678 288.974V294.434H246.488Z" fill="#362709"/>
<path d="M270.58 286.244H262.39V294.434H270.58V286.244Z" fill="#362709"/>
<path d="M285.663 290.066C284.435 287.745 281.842 286.108 279.931 286.244C278.156 286.381 277.747 288.428 278.975 290.612C280.34 292.932 282.797 294.57 284.708 294.434C286.619 294.297 287.028 292.25 285.663 290.066Z" fill="#362709"/>
<path d="M303.238 286.244C305.149 286.244 310.336 292.523 310.336 294.434H302.146V287.336C302.146 286.79 302.692 286.244 303.238 286.244Z" fill="#362709"/>
<path d="M95.6534 294.195H87.4636V302.385H95.6534V294.195Z" fill="#362709"/>
<path d="M110.737 298.017C109.508 295.697 106.915 294.059 105.004 294.195C103.229 294.332 102.82 296.379 104.048 298.563C105.413 300.883 107.87 302.521 109.781 302.385C111.692 302.248 112.102 300.201 110.737 298.017Z" fill="#362709"/>
<path d="M143.361 294.195H135.171V302.385H143.361V294.195Z" fill="#362709"/>
<path d="M151.073 301.293C151.073 299.382 157.352 294.195 159.263 294.195V302.385H152.165C151.619 302.385 151.073 301.839 151.073 301.293Z" fill="#362709"/>
<path d="M167.214 295.287C167.214 297.198 160.935 302.385 159.024 302.385V294.195H166.122C166.668 294.195 167.214 294.741 167.214 295.287Z" fill="#362709"/>
<path d="M183.117 294.195H174.927V302.385H183.117V294.195Z" fill="#362709"/>
<path d="M182.878 294.195H191.068V299.655C191.068 301.156 189.839 302.385 188.338 302.385H182.878V294.195Z" fill="#362709"/>
<path d="M206.97 294.195H198.781V302.385H206.97V294.195Z" fill="#362709"/>
<path d="M230.824 302.385H222.634V296.925C222.634 295.424 223.863 294.195 225.364 294.195H230.824V302.385Z" fill="#362709"/>
<path d="M238.775 294.195H230.585V302.385H238.775V294.195Z" fill="#362709"/>
<path d="M246.726 294.195H238.537V302.385H246.726V294.195Z" fill="#362709"/>
<path d="M254.678 294.195H246.488V302.385H254.678V294.195Z" fill="#362709"/>
<path d="M262.629 294.195H254.439V302.385H262.629V294.195Z" fill="#362709"/>
<path d="M262.39 294.195H270.58V299.655C270.58 301.156 269.352 302.385 267.85 302.385H262.39V294.195Z" fill="#362709"/>
<path d="M310.336 294.195H302.146V302.385H310.336V294.195Z" fill="#362709"/>
<path d="M95.6534 302.146V310.336H90.1935C88.6921 310.336 87.4636 309.108 87.4636 307.606V302.146H95.6534Z" fill="#362709"/>
<path d="M103.605 303.238C103.605 305.149 97.3257 310.336 95.4148 310.336V302.146H102.513C103.059 302.146 103.605 302.692 103.605 303.238Z" fill="#362709"/>
<path d="M127.22 309.244C127.22 307.333 133.499 302.146 135.409 302.146V310.336H128.312C127.766 310.336 127.22 309.79 127.22 309.244Z" fill="#362709"/>
<path d="M135.171 302.146H143.361V307.606C143.361 309.108 142.132 310.336 140.631 310.336H135.171V302.146Z" fill="#362709"/>
<path d="M166.976 309.244C166.976 307.333 173.255 302.146 175.166 302.146V310.336H168.068C167.522 310.336 166.976 309.79 166.976 309.244Z" fill="#362709"/>
<path d="M174.927 302.146H183.117V307.606C183.117 309.108 181.888 310.336 180.387 310.336H174.927V302.146Z" fill="#362709"/>
<path d="M205.878 310.336C203.967 310.336 198.781 304.057 198.781 302.146H206.97V309.244C206.97 309.79 206.424 310.336 205.878 310.336Z" fill="#362709"/>
<path d="M214.683 309.244C214.683 307.333 220.962 302.146 222.873 302.146V310.336H215.775C215.229 310.336 214.683 309.79 214.683 309.244Z" fill="#362709"/>
<path d="M222.634 302.146H230.824V307.606C230.824 309.108 229.596 310.336 228.094 310.336H222.634V302.146Z" fill="#362709"/>
<path d="M278.293 309.244C278.293 307.333 284.572 302.146 286.482 302.146V310.336H279.385C278.839 310.336 278.293 309.79 278.293 309.244Z" fill="#362709"/>
<path d="M294.434 302.146H286.244V310.336H294.434V302.146Z" fill="#362709"/>
<path d="M302.385 302.146H294.195V310.336H302.385V302.146Z" fill="#362709"/>
<path d="M302.146 302.146H310.336V307.606C310.336 309.108 309.108 310.336 307.606 310.336H302.146V302.146Z" fill="#362709"/>
<path d="M15.9026 15.9026L19.4806 67.5855C19.4806 69.9709 21.4684 71.5611 23.4562 71.5611H71.1636V23.8538C71.1636 21.4684 69.5733 19.8782 67.188 19.8782L15.9026 15.9026ZM63.6099 63.6099H31.0099C29.0221 63.6099 27.0343 62.0197 27.0343 59.6343L23.8538 23.8538L59.6343 26.6367C61.6221 26.6367 63.6099 28.6245 63.6099 30.6123V63.6099Z" fill="#362709"/>
<path d="M310.098 15.9026L258.415 19.4806C256.029 19.4806 254.439 21.4684 254.439 23.4562V71.1636H302.146C304.532 71.1636 306.122 69.5733 306.122 67.188L310.098 15.9026ZM262.39 63.6099V31.0099C262.39 29.0221 263.981 27.0343 266.366 27.0343L302.146 23.8538L299.364 59.6343C299.364 61.6221 297.376 63.6099 295.388 63.6099H262.39Z" fill="#362709"/>
<path d="M15.9026 310.098L67.5855 306.52C69.9709 306.52 71.5611 304.532 71.5611 302.544V254.837H23.8538C21.4684 254.837 19.8782 256.427 19.8782 258.812L15.9026 310.098ZM63.6099 262.39V294.99C63.6099 296.978 62.0197 298.966 59.6343 298.966L23.8538 302.146L26.6367 266.366C26.6367 264.378 28.6245 262.39 30.6123 262.39H63.6099Z" fill="#362709"/>
<path d="M55.6586 55.6586H33.7927L31.8049 31.8049L55.6586 33.7927V55.6586Z" fill="#362709"/>
<path d="M270.342 55.6586V33.7927L294.195 31.8049L292.208 55.6586H270.342Z" fill="#362709"/>
<path d="M55.6586 270.342V292.208L31.8049 294.195L33.7927 270.342H55.6586Z" fill="#362709"/>
</svg>
