<svg width="53" height="68" viewBox="0 0 53 68" fill="none" xmlns="http://www.w3.org/2000/svg">
<circle cx="26.5" cy="34.5" r="26.5" fill="#395340"/>
<path d="M25.792 25.664H25.696L18.544 38.048C18.992 38.016 19.536 38 20.176 38C20.816 37.968 21.424 37.952 22 37.952H25.792V25.664ZM25.792 42.08H18.544C17.904 42.08 17.344 42.096 16.864 42.128C16.384 42.16 15.968 42.208 15.616 42.272L15.328 41.984L19.072 35.456C20.192 33.536 21.104 31.952 21.808 30.704C22.544 29.424 23.152 28.336 23.632 27.44C24.112 26.512 24.512 25.728 24.832 25.088C25.152 24.416 25.472 23.712 25.792 22.976C26.528 22.816 27.328 22.592 28.192 22.304C29.056 22.016 29.728 21.744 30.208 21.488V37.952H35.392C35.424 37.728 35.44 37.536 35.44 37.376C35.472 37.184 35.488 36.976 35.488 36.752C35.488 36.208 35.376 35.568 35.152 34.832C34.96 34.096 34.72 33.424 34.432 32.816L35.104 32.624C35.392 33.264 35.632 33.984 35.824 34.784C36.048 35.584 36.16 36.384 36.16 37.184C36.16 37.536 36.128 37.904 36.064 38.288C36 38.64 35.872 39.072 35.68 39.584C35.424 40.32 35.248 40.928 35.152 41.408C35.056 41.888 35.008 42.416 35.008 42.992C35.008 43.536 35.024 44 35.056 44.384C35.12 44.736 35.2 45.088 35.296 45.44L34.768 45.632C34.64 45.184 34.528 44.72 34.432 44.24C34.368 43.728 34.336 43.312 34.336 42.992C34.336 42.832 34.336 42.688 34.336 42.56C34.368 42.4 34.384 42.24 34.384 42.08H30.208V47.84C30.208 48.224 30.256 48.48 30.352 48.608C30.448 48.736 30.64 48.8 30.928 48.8C31.632 48.8 32.32 48.672 32.992 48.416V48.992C32.128 49.248 31.344 49.488 30.64 49.712C29.936 49.904 29.248 50.128 28.576 50.384C27.904 50.64 27.232 50.928 26.56 51.248C25.888 51.6 25.152 52 24.352 52.448L24.112 51.92C24.496 51.728 24.8 51.536 25.024 51.344C25.248 51.184 25.408 51.008 25.504 50.816C25.632 50.624 25.712 50.4 25.744 50.144C25.776 49.92 25.792 49.632 25.792 49.28V42.08Z" fill="#FFF4DE"/>
</svg>
