<svg width="1760" height="917" viewBox="0 0 1760 917" fill="none" xmlns="http://www.w3.org/2000/svg">
<g opacity="0.2" clip-path="url(#clip0_381_59)">
<mask id="mask0_381_59" style="mask-type:luminance" maskUnits="userSpaceOnUse" x="1" y="-131" width="1761" height="1173">
<path d="M1761.25 -131H1.25098V1042H1761.25V-131Z" fill="white"/>
</mask>
<g mask="url(#mask0_381_59)">
<path d="M1233.46 1004.22C1219.38 1023.62 1199.15 1032.72 1171.77 1032.02C1159.31 1031.7 1147.09 1032.67 1135.45 1034.9C1115.69 1038.7 1095.71 1042.91 1076.38 1046.97C1059.28 1050.57 1041.61 1054.29 1024.14 1057.72C1004.95 1061.48 985.666 1058.83 968.357 1050.04C953.193 1042.34 938.74 1032.81 924.765 1023.6C904.868 1010.48 882.953 1001.78 857.763 996.987L853.262 996.133C828.909 991.507 803.724 986.726 779.15 980.638C769.16 978.165 759.166 974.86 749.498 971.662C738.018 967.864 726.144 963.937 714.373 961.452C670.948 952.303 626.047 942.846 582.359 926.527C560.802 918.476 532.372 909.749 503.64 913.793C488.968 915.858 473.713 916.4 458.959 916.918L458.204 916.946C438.646 917.636 410.43 915.45 391.267 888.611L388.662 884.97C380.705 873.848 372.475 862.346 366.09 850.254C352.514 824.545 343.29 795.438 337.055 758.648C332.603 732.429 337.529 710.297 352.186 691.055L352.951 690.051C359.822 680.993 366.93 671.637 373.184 661.971C381.228 649.559 387.811 635.825 381.557 619.525C377.028 607.706 371.116 595.962 365.405 584.605L363.227 580.272C352.641 559.17 344.39 535.731 337.266 506.511C331.993 484.919 327.888 463.472 324.575 445.337C322.885 436.106 321.477 426.715 320.114 417.631C318.025 403.703 315.864 389.3 312.656 375.295C306.224 347.211 289.382 322.573 261.17 299.979C236.099 279.902 207.88 268.026 176.254 255.656C150.872 245.723 131.885 232.879 116.494 215.237C93.6253 189.025 71.4282 158.651 46.6427 119.647C32.138 96.8247 14.3409 82.3264 -7.76709 75.3377C-30.0346 68.2903 -50.0517 73.0081 -72.6782 90.6289C-93.5331 106.861 -116.23 123.546 -144.179 133.511C-169.178 142.422 -202.62 152.892 -239.651 154.787C-255.157 155.578 -270.293 155.7 -284.993 148.62C-286.152 148.061 -286.725 146.745 -286.27 145.68C-285.826 144.613 -284.505 144.207 -283.346 144.765C-269.695 151.341 -255.812 151.226 -240.383 150.44C-203.923 148.575 -170.865 138.22 -146.141 129.408C-118.75 119.64 -96.3444 103.164 -75.7406 87.124C-59.7035 74.6362 -37.375 61.5409 -6.80261 71.2158C16.1924 78.4883 35.4444 94.1245 50.4209 117.695C75.0679 156.476 97.1195 186.655 119.812 212.665C134.631 229.651 152.975 242.04 177.54 251.656C209.567 264.184 238.171 276.228 263.815 296.767C292.958 320.105 310.373 345.637 317.056 374.821C320.304 388.988 322.477 403.477 324.58 417.485C325.938 426.536 327.339 435.894 329.017 445.056C332.321 463.125 336.404 484.494 341.654 505.974C348.694 534.846 356.827 557.973 367.251 578.752L369.427 583.075C375.193 594.538 381.158 606.392 385.774 618.434C392.706 636.503 385.696 651.285 377.089 664.566C370.76 674.349 363.612 683.761 356.694 692.873L355.931 693.879C341.922 712.232 337.256 733.367 341.508 758.42C347.657 794.722 356.734 823.388 370.065 848.64C376.295 860.436 384.424 871.795 392.286 882.784L394.893 886.432C408.564 905.58 427.887 913.653 457.544 912.606L458.3 912.578C472.938 912.062 488.072 911.527 502.513 909.493C532.285 905.306 561.471 914.244 583.569 922.499C626.901 938.682 671.616 948.104 714.861 957.213C726.906 959.754 738.914 963.728 750.528 967.568C760.104 970.736 770.007 974.01 779.807 976.436C804.25 982.489 829.366 987.258 853.657 991.875L858.155 992.729C884.016 997.649 906.539 1006.6 927.021 1020.1C940.875 1029.24 955.199 1038.68 970.098 1046.25C986.412 1054.53 1004.63 1057.02 1022.78 1053.46C1040.22 1050.04 1057.88 1046.32 1074.96 1042.72C1094.31 1038.65 1114.32 1034.44 1134.11 1030.63C1146.06 1028.35 1158.61 1027.35 1171.4 1027.68C1199.14 1028.39 1219.1 1018.43 1232.47 997.327C1236.18 991.467 1240.17 985.67 1244.03 980.061C1250.02 971.348 1256.22 962.337 1261.41 952.988C1266.99 942.952 1271.19 927.457 1259.55 910.647C1252.05 899.807 1244.95 891.082 1237.85 883.971C1218.63 864.729 1205.18 842.163 1197.85 816.897C1188.06 783.084 1165.36 759.161 1128.47 743.765C1085.71 725.926 1046.36 715.491 1008.15 711.854C977.774 708.962 957.257 720.38 943.56 747.79C932.104 770.699 918.847 794.333 894.146 809.603C864.667 827.822 811.325 823.768 781.919 788.82C773.98 779.384 766.764 769.212 759.785 759.377C757.303 755.877 754.818 752.377 752.302 748.905C739.254 730.902 723.752 715.127 704.913 700.68L703.188 699.36C689.01 688.495 674.346 677.263 664.116 661.577C649.931 639.837 649.72 617.358 650.719 596.199C651.559 578.29 652.986 560.183 654.366 542.67L655.333 530.319C657.952 496.405 651.996 461.264 636.588 419.723C630.09 402.206 624.437 383.489 619.797 364.086C612.717 334.442 600.714 314.555 580.885 299.599C576.011 295.925 571.245 291.972 566.641 288.15C559.906 282.562 552.943 276.784 545.647 271.904C515.908 252.069 492.753 228.266 474.872 199.143C458.067 171.782 433.181 149.504 394.175 126.907C367.697 111.562 339.314 99.6939 311.861 88.2173C303.964 84.9141 296.063 81.6132 288.192 78.2233C266.239 68.783 246.307 58.0383 228.939 46.2895C206.617 31.1742 189.261 11.2051 177.345 -13.0573C169.636 -28.7661 160.193 -46.781 145.635 -61.7485L142.734 -64.7819C138.597 -69.1313 134.326 -73.631 129.536 -76.9482C97.3542 -99.2563 74.5516 -124.868 59.8287 -155.258C45.9645 -183.87 24.0396 -208.31 -9.17743 -232.167C-10.2264 -232.922 -10.5362 -234.292 -9.86502 -235.228L-9.86032 -235.235C-9.18683 -236.164 -7.79523 -236.307 -6.75098 -235.554C27.1889 -211.172 49.6371 -186.126 63.879 -156.724C78.2148 -127.141 100.466 -102.175 131.897 -80.3968C137.13 -76.7699 141.591 -72.0732 145.909 -67.529L148.77 -64.5402C163.842 -49.0355 173.511 -30.61 181.393 -14.5587C192.91 8.90836 209.689 28.2065 231.253 42.808C248.343 54.3738 267.987 64.9613 289.638 74.2749C297.494 77.6555 305.379 80.9493 313.259 84.2478C340.861 95.7878 369.403 107.722 396.172 123.234C435.966 146.292 461.416 169.112 478.692 197.233C496.182 225.719 518.827 249 547.928 268.413C555.452 273.441 562.522 279.308 569.363 284.979C573.925 288.765 578.637 292.678 583.415 296.277C604.255 312 616.833 332.745 624.19 363.555C628.792 382.779 634.387 401.321 640.823 418.665C656.462 460.83 662.504 496.557 659.834 531.104L658.867 543.466C657.487 560.943 656.065 579.017 655.23 596.863C654.263 617.306 654.441 638.985 667.862 659.553C677.612 674.504 691.915 685.462 705.746 696.059L707.474 697.384C726.721 712.143 742.563 728.265 755.904 746.678C758.434 750.165 760.926 753.679 763.42 757.193C770.338 766.941 777.493 777.029 785.296 786.302C813.073 819.315 863.522 823.104 891.426 805.856C915.292 791.109 928.236 767.985 939.451 745.559C953.949 716.532 975.763 704.434 1008.1 707.519C1046.8 711.2 1086.63 721.757 1129.87 739.793C1168.29 755.835 1191.95 780.81 1202.19 816.16C1209.28 840.638 1222.32 862.498 1240.93 881.13C1248.25 888.466 1255.54 897.421 1263.22 908.513C1273.48 923.316 1274.24 939.515 1265.45 955.355C1260.17 964.859 1253.92 973.942 1247.87 982.73C1244.03 988.307 1240.07 994.076 1236.4 999.873C1235.45 1001.37 1234.47 1002.82 1233.46 1004.22Z" fill="url(#paint0_linear_381_59)"/>
<path d="M784.453 -296.578C761.085 -323.198 734.936 -339.172 704.519 -345.417C684.398 -349.539 663.63 -354.569 642.787 -360.368C608.193 -369.992 584.254 -384.964 567.457 -407.493C562.449 -414.223 557.857 -421.289 553.412 -428.119C548.468 -435.722 543.357 -443.588 537.765 -450.818C531.666 -458.713 526.968 -462.731 523.807 -462.757C521.068 -462.778 517.823 -459.639 514.427 -453.664C512.859 -450.929 512.383 -447.006 511.916 -443.21L511.681 -441.334C508.821 -419.551 497.386 -403.856 477.709 -394.679C474.022 -392.957 470.267 -391.343 466.513 -389.724C459.175 -386.564 451.59 -383.298 444.818 -379.312C423.233 -366.623 410.071 -351.489 404.568 -333.019C400.933 -320.794 399.316 -308.407 399.893 -297.195C401.961 -257.041 399.722 -215.341 392.633 -161.991C389.873 -141.275 390.166 -119.369 390.45 -98.1818L390.495 -94.881C390.795 -71.1043 402.35 -52.097 423.904 -39.9166C442.603 -29.3478 464.063 -19.4899 487.691 -10.608C524.25 3.13724 552.384 23.6483 573.699 52.0889L578.503 58.5333C587.814 71.0422 597.438 83.9804 608.308 95.2201C627.64 115.18 644.745 122.204 663.776 117.983C667.716 117.108 671.642 116.184 675.57 115.26C683.659 113.359 692.023 111.391 700.44 109.878C728.206 104.923 756.852 112.156 779.873 117.969C826.128 129.631 857.437 150.633 878.402 184.063C890.335 203.091 894.5 219.971 890.778 234.232C887.165 248.055 876.229 259.093 858.244 267.086L854.91 268.568C842.275 274.178 829.211 279.982 816.769 286.267C799.061 295.207 787.985 307.397 782.93 323.547C781.33 328.649 779.807 333.782 778.282 338.915C774.832 350.538 771.263 362.554 766.823 374.037C762.418 385.409 755.791 397.375 740.151 399.98C723.036 402.828 699.438 389.976 691.575 366.314C687.167 353.034 685.201 338.974 683.462 326.571C680.749 307.2 670.565 291.899 653.197 281.091C645.852 276.514 637.627 273.415 628.923 270.128C623.878 268.226 618.659 266.258 613.614 263.973C610.352 262.495 607.073 261.038 603.795 259.578C590.445 253.641 576.644 247.501 563.721 239.964C542.796 227.774 527.256 210.127 513.578 192.875C499.441 175.038 479.919 152.474 454.204 136.172L448.432 132.519C438.705 126.375 428.645 120.027 419.155 113.083C410.547 106.786 402.097 100.06 393.93 93.5521C388.441 89.1744 382.95 84.8038 377.382 80.5294C360.105 67.2886 345.498 49.8649 331.403 25.7034C310.617 -9.94876 282.703 -35.4803 246.074 -52.3644C230.429 -59.5784 215.863 -69.4644 201.079 -79.8103C192.248 -85.9944 183.742 -92.8048 175.512 -99.3853C169.317 -104.345 162.906 -109.471 156.469 -114.24C140.305 -126.228 126.415 -140.511 114.008 -157.913L108.707 -165.357C89.2016 -192.74 69.032 -221.054 49.726 -249.227C44.1573 -257.341 39.4006 -265.968 34.7988 -274.305C32.7056 -278.104 30.61 -281.902 28.4417 -285.655C27.1698 -287.844 27.8738 -290.429 30.0327 -291.41C32.1776 -292.4 34.9443 -291.424 36.2115 -289.231C38.4174 -285.421 40.5435 -281.564 42.6695 -277.709C47.1564 -269.576 51.7957 -261.163 57.0875 -253.447C76.3442 -225.349 96.4903 -197.073 115.968 -169.725L121.271 -162.286C133.035 -145.78 146.181 -132.25 161.455 -120.931C168.05 -116.044 174.536 -110.855 180.806 -105.834C188.904 -99.3548 197.282 -92.6546 205.836 -86.6653C220.211 -76.6033 234.35 -66.9988 249.211 -60.1485C287.314 -42.584 317.577 -14.9129 339.162 22.0953C352.749 45.3934 366.118 61.3837 382.507 73.9512C388.127 78.2609 393.67 82.676 399.208 87.0912C407.295 93.5309 415.656 100.191 424.09 106.357C433.291 113.087 443.194 119.344 452.773 125.39L458.569 129.054C485.605 146.206 505.88 169.612 520.528 188.086C533.571 204.544 548.32 221.329 567.746 232.646C580.176 239.896 593.714 245.92 606.806 251.743C610.105 253.211 613.405 254.68 616.688 256.167C621.428 258.316 626.487 260.224 631.38 262.068C640.175 265.383 649.267 268.815 657.482 273.931C677.248 286.234 689.324 304.361 692.408 326.35C694.093 338.381 696 352.016 700.149 364.515C706.955 385 726.319 393.291 737.684 391.4C748.716 389.559 753.911 381.615 758.33 370.232C762.657 359.037 766.177 347.171 769.585 335.694C771.12 330.524 772.657 325.351 774.266 320.218C779.962 302.027 792.284 288.371 811.921 278.461C824.537 272.087 837.695 266.241 850.418 260.592L853.75 259.109C869.501 252.114 879.01 242.748 882.011 231.26C885.123 219.328 881.357 204.76 870.815 187.95C851.352 156.918 822.021 137.352 778.509 126.382C751.332 119.52 726.897 114.183 703.015 118.448C694.829 119.919 686.576 121.861 678.597 123.738C674.636 124.667 670.678 125.598 666.7 126.481C637.35 132.991 615.737 114.929 602.035 100.778C590.701 89.0548 580.873 75.8515 571.371 63.0799L566.584 56.666C546.497 29.8558 519.89 10.4919 485.249 -2.53775C461.122 -11.6003 439.174 -21.6905 420.004 -32.5196C395.498 -46.3704 381.815 -68.8216 381.47 -95.7256L381.427 -99.024C381.141 -120.502 380.843 -142.714 383.68 -164.013C390.701 -216.85 392.921 -258.088 390.88 -297.716C390.258 -309.843 391.983 -323.163 395.871 -336.24C401.923 -356.608 416.207 -373.173 439.526 -386.871C446.726 -391.108 454.542 -394.475 462.106 -397.733C465.788 -399.319 469.47 -400.903 473.081 -402.587C490.5 -410.721 500.194 -424.046 502.727 -443.339L502.952 -445.146C503.485 -449.493 504.083 -454.417 506.406 -458.473C509.581 -464.062 514.767 -471.515 522.889 -471.456C531.429 -471.383 539.076 -462.889 544.786 -455.496C550.627 -447.94 555.853 -439.905 560.907 -432.133C565.265 -425.43 569.776 -418.502 574.586 -412.03C589.931 -391.451 612.112 -377.682 644.378 -368.706C664.999 -362.97 685.544 -357.992 705.441 -353.915C738.135 -347.207 766.142 -330.147 791.064 -301.754C814.132 -275.478 832.262 -245.656 846.49 -210.583C860.018 -177.174 1096.61 -206.452 1076.7 -230.724C1074.33 -233.609 1071.94 -236.488 1069.55 -239.364C1060.06 -250.777 1050.26 -262.582 1041.77 -274.99C1027.49 -295.86 1020.37 -320.766 1020.63 -349.016C1020.79 -367.857 1021.63 -386.909 1022.43 -405.33C1022.79 -413.482 1023.14 -421.632 1023.44 -429.787C1023.54 -432.175 1025.63 -433.812 1028.11 -433.46C1030.6 -433.113 1032.55 -430.903 1032.46 -428.524C1032.16 -420.353 1031.8 -412.182 1031.45 -404.013C1030.64 -385.663 1029.81 -366.684 1029.66 -347.986C1029.41 -321.211 1035.78 -298.713 1049.14 -279.206C1057.36 -267.183 1067.01 -255.57 1076.34 -244.338C1078.74 -241.443 1081.15 -238.552 1083.53 -235.65C1105.59 -208.758 1111.72 -180.944 1102.26 -150.61C1101.01 -146.599 1099.72 -142.592 1098.42 -138.582C1091.83 -118.144 806.765 -271.159 784.453 -296.578Z" fill="url(#paint1_linear_381_59)"/>
<path d="M120.969 1381.15C120.457 1381.85 119.483 1382.14 118.519 1381.81C117.31 1381.39 116.578 1380.13 116.888 1379.01C119.234 1370.38 121.532 1361.73 123.827 1353.08C129.046 1333.43 134.446 1313.11 140.378 1293.34C147.875 1268.31 142.926 1245.89 125.244 1224.8C121.853 1220.75 118.563 1216.61 115.276 1212.47C108.599 1204.07 101.695 1195.38 94.043 1187.73C83.3257 1177.02 71.9233 1166.57 60.8963 1156.46C51.9555 1148.26 42.712 1139.79 33.8533 1131.2C21.0546 1118.79 7.81708 1105.96 -3.04095 1091.69C-9.04376 1083.8 -14.0609 1075.17 -18.9161 1066.83C-23.1026 1059.64 -27.4323 1052.2 -32.3321 1045.35C-38.2316 1037.1 -46.337 1029.49 -54.5667 1024.48C-68.7383 1015.85 -83.8484 1016.25 -99.8433 1016.66C-101.885 1016.72 -103.924 1016.77 -105.963 1016.8C-122.017 1017.07 -137.69 1017.03 -152.951 1013.74C-171.914 1009.64 -191.035 1004.41 -209.522 999.357C-220.213 996.434 -230.905 993.508 -241.622 990.78L-244.844 989.973C-262.585 985.553 -270.291 982.541 -267.076 957.422C-267.01 956.918 -267.057 956.392 -267.088 955.869C-267.13 955.149 -267.168 954.431 -267.1 953.732L-264.457 928.083C-262.88 912.865 -261.303 897.649 -259.818 882.414C-259.243 876.502 -258.837 870.548 -258.431 864.596C-257.706 853.959 -256.955 842.961 -255.209 832.348C-250.035 801.047 -235.877 771.33 -211.998 741.508C-195.092 720.429 -174.233 712.509 -149.996 717.971C-127.489 723.045 -104.593 725.654 -82.4498 728.173C-75.2784 728.992 -68.1 729.809 -60.9168 730.707C-25.8389 735.096 -6.7041 749.726 5.13483 781.207C8.77917 790.901 11.0226 801.038 13.1933 810.842C14.6717 817.514 16.197 824.411 18.1471 831.064C21.8079 843.569 25.8371 854.065 30.467 863.155C46.1357 893.893 68.0255 916.679 97.3799 932.815C110.862 940.226 125.65 947.391 142.417 949.617C167.503 952.951 187.231 945.249 199.399 927.635C208.429 914.533 211.017 897.437 207.094 876.823C199.793 838.576 183.115 802.436 166.182 769.076C161.05 758.967 151.618 748.337 139.625 739.146C132.8 733.912 125.075 730.05 116.899 725.966C111.07 723.052 105.044 720.04 99.4309 716.5C74.0681 700.516 45.8425 686.445 13.137 673.486C-1.1402 667.827 -17.656 660.663 -31.905 650.432C-40.827 644.027 -48.7446 636.114 -56.4018 628.461C-61.4448 623.422 -66.6591 618.214 -72.0776 613.524C-85.9182 601.541 -98.5128 590.893 -112.497 581.926C-129.479 571.036 -149.126 567.665 -172.564 571.623C-191.936 574.9 -212.425 571.531 -233.455 561.603C-241.901 557.617 -250.307 553.185 -258.436 548.899C-261.932 547.058 -265.429 545.214 -268.932 543.4C-305.238 524.644 -341.714 519.079 -377.339 526.863C-390.323 529.697 -403.317 532.498 -416.31 535.302C-431.319 538.537 -446.331 541.774 -461.326 545.061C-493.393 552.083 -524.635 544.693 -556.835 522.467C-557.901 521.733 -558.234 520.367 -557.586 519.415C-557.012 518.23 -555.547 518.289 -554.487 519.023C-523.496 540.409 -493.497 547.536 -462.774 540.81C-447.774 537.521 -432.758 534.284 -417.744 531.046C-404.753 528.245 -391.764 525.444 -378.785 522.61C-342.076 514.591 -304.517 520.311 -267.156 539.611C-263.636 541.432 -260.13 543.281 -256.619 545.132C-248.542 549.389 -240.186 553.793 -231.848 557.732C-211.746 567.219 -192.22 570.447 -173.808 567.332C-149.156 563.168 -128.381 566.783 -110.298 578.381C-96.0206 587.535 -83.2735 598.313 -69.278 610.428C-63.7164 615.244 -58.4364 620.52 -53.33 625.623C-45.8207 633.125 -38.0555 640.886 -29.4808 647.039C-15.6918 656.939 0.460266 663.94 14.4417 669.484C47.4476 682.56 75.9548 696.77 101.592 712.932C106.99 716.331 112.896 719.285 118.613 722.14C126.648 726.154 134.959 730.308 142.182 735.85C154.777 745.501 164.727 756.75 170.195 767.516C187.285 801.183 204.12 837.685 211.526 876.492C215.664 898.216 212.876 916.32 203.238 930.3C190.141 949.368 169.082 957.479 142.293 953.92C124.709 951.581 109.407 944.181 95.4885 936.531C65.6084 920.107 42.3835 895.941 26.459 864.706C21.6929 855.348 17.558 844.584 13.8128 831.801C11.8204 825 10.2787 818.028 8.78619 811.283C6.65076 801.634 4.44019 791.659 0.913147 782.268C-10.3063 752.433 -27.6646 739.183 -61.0013 735.012C-68.1703 734.116 -75.3277 733.299 -82.4827 732.485C-104.755 729.949 -127.783 727.327 -150.55 722.196C-173.01 717.131 -192.443 724.6 -208.313 744.389C-231.806 773.695 -245.686 802.837 -250.746 833.474C-252.461 843.897 -253.205 854.799 -253.923 865.342C-254.334 871.333 -254.74 877.325 -255.322 883.277C-256.807 898.517 -258.384 913.744 -259.963 928.97L-262.601 954.605C-262.65 955.081 -262.61 955.578 -262.58 956.073C-262.531 956.862 -262.495 957.647 -262.592 958.403C-265.415 980.458 -260.489 981.682 -244.175 985.745L-240.925 986.562C-230.177 989.3 -219.46 992.23 -208.74 995.162C-190.317 1000.2 -171.264 1005.41 -152.432 1009.48C-137.672 1012.67 -122.296 1012.7 -106.529 1012.44C-104.506 1012.4 -102.479 1012.35 -100.453 1012.3C-84.4562 1011.88 -67.9169 1011.45 -52.4641 1020.86C-43.6547 1026.22 -34.9932 1034.34 -28.7041 1043.14C-23.6658 1050.18 -19.2752 1057.72 -15.0324 1065.01C-10.2546 1073.23 -5.31256 1081.72 0.502502 1089.36C11.1259 1103.32 24.2179 1116.01 36.8805 1128.29C45.6852 1136.83 54.9053 1145.28 63.8179 1153.45C74.8824 1163.6 86.3271 1174.09 97.1241 1184.87C104.992 1192.73 111.986 1201.54 118.753 1210.05C122.013 1214.16 125.275 1218.26 128.638 1222.28C147.406 1244.67 152.67 1268.44 144.733 1294.94C138.815 1314.65 133.427 1334.95 128.215 1354.57C125.918 1363.22 123.618 1371.88 121.269 1380.51C121.199 1380.76 121.1 1380.97 120.969 1381.15Z" fill="url(#paint2_linear_381_59)"/>
<path d="M285.336 647.192C281.591 652.353 277.149 657.23 272.009 661.814C247.796 683.412 217.635 687.36 179.799 673.887C155.481 665.218 133.335 653.871 114.879 643.91C93.9208 632.6 70.5668 625.721 41.386 622.258C10.7878 618.632 -14.2933 608.649 -35.2913 591.739C-41.9042 586.419 -48.4678 580.847 -54.8156 575.46C-63.3762 568.197 -72.2278 560.685 -81.2461 553.739C-97.6094 541.131 -117.091 526.436 -137.522 513.055C-154.258 502.092 -169.645 498.542 -184.565 502.214C-190.76 503.734 -197.251 504.618 -203.529 505.475C-205.643 505.763 -207.76 506.052 -209.862 506.364C-235.91 510.223 -262.146 503.513 -286.617 495.687C-326.853 482.822 -362.318 482.247 -395.035 493.928C-416.397 501.564 -437.641 508.238 -458.177 513.768C-484.375 520.822 -511.974 516.168 -540.205 499.931C-541.324 499.288 -541.789 497.942 -541.24 496.93C-540.684 495.887 -539.341 495.614 -538.224 496.257C-511.172 511.813 -484.798 516.29 -459.822 509.564C-439.394 504.065 -418.258 497.426 -396.999 489.822C-363.329 477.804 -326.902 478.376 -285.634 491.568C-257.999 500.405 -234.735 505.571 -211.017 502.059C-208.898 501.744 -206.767 501.454 -204.634 501.163C-198.469 500.323 -192.093 499.452 -186.119 497.988C-169.87 493.993 -153.242 497.775 -135.278 509.543C-114.698 523.02 -95.1149 537.788 -78.6742 550.459C-69.5597 557.481 -60.6588 565.033 -52.0512 572.336C-45.727 577.703 -39.1891 583.252 -32.6325 588.53C-12.416 604.811 11.8133 614.43 41.4446 617.942C71.2684 621.477 95.1951 628.543 116.74 640.168C135.023 650.035 156.95 661.272 180.94 669.826C217.053 682.684 245.778 678.971 268.759 658.476C289.884 639.621 298.726 615.594 295.009 587.08L294.418 582.552C291.074 556.871 287.615 530.316 282.872 504.316C278.263 479.005 272.861 453.307 267.64 428.455C265.328 417.455 263.019 406.459 260.764 395.457C253.433 359.64 227.08 332.814 188.466 321.844C158.501 313.342 126.427 307.876 100.651 303.484C67.1712 297.79 39.8184 280.481 17.0393 250.57C8.28625 239.07 -3.47522 228.572 -12.9252 220.138C-29.6593 205.196 -50.6339 198.268 -77.0456 198.963C-102.256 199.617 -127.783 201.156 -152.467 202.641L-172.29 203.819C-182.782 204.424 -193.253 205.149 -203.723 205.872C-220.619 207.042 -238.09 208.251 -255.371 208.91C-279.455 209.834 -298.719 206.331 -315.941 197.888C-316.185 197.98 -316.513 198.13 -316.758 198.24C-317.248 198.465 -317.743 198.686 -318.201 198.827C-319.344 199.181 -320.672 198.536 -321.167 197.389C-321.66 196.237 -321.136 195.021 -319.996 194.667C-319.691 194.571 -319.367 194.416 -319.041 194.268C-317.828 193.715 -316.323 193.025 -314.711 193.827C-298.156 202.048 -279.511 205.459 -256.042 204.558C-238.832 203.901 -221.396 202.698 -204.533 201.529C-194.046 200.804 -183.558 200.079 -173.05 199.474L-153.239 198.296C-128.515 196.807 -102.953 195.268 -77.6651 194.609C-49.9345 193.881 -27.8219 201.236 -10.0647 217.093C-0.448059 225.672 11.52 236.356 20.5734 248.25C42.5148 277.063 68.8068 293.727 100.949 299.196C126.84 303.606 159.064 309.098 189.285 317.673C229.807 329.182 257.472 357.39 265.185 395.067C267.436 406.063 269.747 417.054 272.054 428.045C277.285 452.927 282.689 478.655 287.31 504.022C292.073 530.133 295.537 556.746 298.893 582.48L299.482 587.01C302.479 609.961 297.722 630.127 285.336 647.192Z" fill="url(#paint3_linear_381_59)"/>
<path d="M255.083 614.167C250.305 620.75 244.037 625.939 236.561 629.373C223.157 635.525 207.284 635.572 191.862 629.505C175.238 622.964 160.454 613.444 146.16 604.236C142.455 601.85 138.742 599.46 134.995 597.116C124.416 590.51 114.752 586.268 106.272 584.52C91.4899 581.475 75.0257 579.519 54.4642 578.362C15.8381 576.204 -13.2794 565.956 -37.1685 546.126C-43.7509 540.66 -50.6242 535.266 -57.2724 530.051C-62.5993 525.87 -67.9262 521.692 -73.1804 517.425C-88.1005 505.296 -101.474 490.298 -114.064 471.574C-122.728 458.679 -132.783 446.292 -141.527 435.695C-150.123 425.279 -160.317 421.931 -173.606 425.166C-187.153 428.469 -197.31 436.793 -207.13 444.842C-229.588 463.239 -255.479 468.844 -284.078 461.503C-300.244 457.355 -316.497 452.365 -332.215 447.544C-338.333 445.668 -344.448 443.791 -350.573 441.956C-376.147 434.315 -395.136 437.001 -410.328 450.414C-416.031 455.446 -422.66 459.462 -429.071 463.345C-430.974 464.499 -432.878 465.651 -434.752 466.829C-457.98 481.425 -479.398 486.753 -502.156 483.6C-506.786 482.95 -511.357 481.892 -515.783 480.869C-517.773 480.41 -519.763 479.95 -521.755 479.525C-524.233 479.002 -526.019 476.672 -525.744 474.329C-525.468 471.99 -523.245 470.502 -520.765 471.033C-518.714 471.464 -516.665 471.941 -514.614 472.412C-510.205 473.433 -506.04 474.397 -501.844 474.983C-481.296 477.831 -461.72 472.874 -440.244 459.375C-438.331 458.176 -436.393 456.999 -434.452 455.826C-428.05 451.946 -422.003 448.281 -416.81 443.702C-399.283 428.225 -377.67 425.035 -348.796 433.661C-342.646 435.502 -336.507 437.384 -330.37 439.268C-314.763 444.056 -298.625 449.008 -282.684 453.1C-256.664 459.779 -234.002 454.822 -213.403 437.949C-203.392 429.745 -192.051 420.448 -176.706 416.706C-159.904 412.62 -145.779 417.342 -134.715 430.749C-125.816 441.532 -115.578 454.148 -106.658 467.427C-94.643 485.296 -81.9428 499.558 -67.8347 511.025C-62.6251 515.255 -57.3451 519.4 -52.0651 523.541C-45.3607 528.803 -38.4286 534.241 -31.7336 539.799C-9.33459 558.395 17.1029 567.61 53.9878 569.67C75.0327 570.855 91.9405 572.872 107.203 576.016C116.864 578.008 127.659 582.702 139.284 589.963C143.072 592.33 146.824 594.747 150.572 597.158C165.079 606.5 178.779 615.326 194.448 621.491C207.434 626.598 220.761 626.577 231.973 621.43C243.657 616.067 251.868 605.484 255.088 591.64C261.055 565.949 261.546 539.972 256.543 514.431C249.336 477.653 239.853 441.698 229.103 401.884C219.585 366.596 191.549 354.171 169.704 349.965C149.46 346.071 128.509 344.461 108.247 342.906C103.082 342.509 97.9198 342.113 92.7642 341.679L87.5217 341.247C65.2471 339.42 42.2169 337.531 19.8415 328.811C1.13385 321.513 -22.8444 310.529 -42.4038 290.215C-67.5859 264.052 -100.047 248.735 -141.642 243.391C-167.366 240.092 -194.132 239.769 -223.473 242.398C-262.406 245.901 -303.961 248.395 -346.276 237.355C-347.661 236.996 -348.59 236.189 -348.986 235.841C-350.873 234.206 -351.458 231.52 -349.986 229.723C-348.583 228.001 -346.039 227.677 -344.021 229.144C-344.005 229.155 -343.979 229.174 -343.951 229.195C-303.433 239.579 -263.117 237.132 -225.28 233.73C-195.268 231.041 -167.843 231.377 -141.433 234.762C-97.452 240.416 -63.0005 256.742 -36.1101 284.68C-17.9657 303.526 4.69373 313.876 22.4064 320.785C43.4114 328.975 64.7286 330.723 87.2964 332.572L92.5577 333.008C97.6922 333.437 102.831 333.831 107.975 334.228C128.504 335.807 149.73 337.435 170.514 341.433C205.446 348.161 229.35 369.165 237.823 400.578C248.616 440.56 258.143 476.672 265.404 513.739C270.637 540.458 270.132 567.601 263.904 594.413C262.175 601.871 259.173 608.529 255.083 614.167Z" fill="url(#paint4_linear_381_59)"/>
<path d="M1905.28 956.242C1904.7 957.042 1903.54 957.284 1902.52 956.768C1897.52 954.236 1892.51 951.733 1887.5 949.227C1875.73 943.348 1863.57 937.263 1851.75 930.931C1840.83 925.075 1830.23 919.222 1820.61 911.999C1778.33 880.232 1741.93 857.701 1706.05 841.086C1689.55 833.45 1673.18 824.779 1657.35 816.39C1645.82 810.286 1633.91 803.975 1622.06 798.122C1616.11 795.189 1608.3 793.392 1600.65 793.19C1590.14 792.906 1585.34 800.522 1581.7 808.798C1575.67 822.558 1569.06 836.101 1563.4 847.528L1559.48 855.495C1554.32 866.057 1548.99 876.978 1542.81 887.178C1531.42 905.984 1532.53 926.349 1546.42 953.211C1561.91 983.165 1584.43 1009.41 1606.22 1034.78C1610.94 1040.27 1615.65 1045.77 1620.3 1051.29C1634.05 1067.64 1647.29 1083.76 1657.98 1101.18C1680.42 1137.68 1713.16 1153.78 1758.09 1150.4C1759.31 1150.31 1760.49 1151.21 1760.72 1152.41C1760.96 1153.59 1760.15 1154.65 1758.92 1154.74C1711.97 1158.27 1677.7 1141.37 1654.16 1103.09C1643.65 1085.96 1630.54 1070 1616.92 1053.8C1612.28 1048.28 1607.58 1042.81 1602.88 1037.33C1580.9 1011.74 1558.18 985.262 1542.42 954.799C1527.96 926.816 1526.83 904.536 1538.85 884.687C1544.94 874.625 1550.23 863.781 1555.36 853.293L1559.28 845.309C1564.92 833.922 1571.5 820.432 1577.51 806.738C1581.48 797.692 1587.29 788.494 1600.28 788.839C1608.73 789.059 1617.06 790.994 1623.74 794.288C1635.66 800.174 1647.61 806.506 1659.17 812.629C1674.94 820.981 1691.24 829.621 1707.61 837.199C1743.84 853.966 1780.55 876.677 1823.13 908.67C1832.45 915.673 1842.86 921.418 1853.6 927.173C1865.34 933.472 1877.48 939.534 1889.21 945.401C1894.23 947.914 1899.25 950.422 1904.26 952.953C1905.4 953.535 1905.95 954.86 1905.47 955.914C1905.42 956.031 1905.36 956.139 1905.28 956.242Z" fill="url(#paint5_linear_381_59)"/>
<path d="M1817.9 1076.81C1817.54 1077.31 1817.09 1077.76 1816.52 1078.1L1811.85 1080.92C1804.11 1085.58 1796.12 1090.41 1787.84 1094.55C1771.95 1102.48 1756.13 1109.6 1737.4 1109.64C1715.03 1109.67 1694.53 1099.43 1676.46 1079.22C1672.66 1074.97 1668.83 1070.74 1665 1066.5C1639.62 1038.44 1613.38 1009.42 1595.52 975.106C1582.74 950.539 1578.58 928.378 1582.82 907.349C1586.59 888.628 1596.09 871.044 1611.1 855.071C1619.97 845.64 1629.1 841.574 1639.03 842.646L1642 842.958C1651.45 843.946 1661.22 844.969 1670.46 848.016C1713.45 862.184 1749.39 889.087 1781.83 916.041C1785.83 919.374 1789.78 922.753 1793.73 926.136C1796.35 928.376 1798.97 930.614 1801.6 932.84C1805.75 936.341 1809.87 939.885 1813.99 943.43C1823.64 951.728 1833.62 960.31 1843.84 968.174C1851.09 973.748 1859.06 978.733 1866.77 983.559C1870.35 985.801 1873.94 988.046 1877.47 990.353C1878.55 991.059 1878.93 992.424 1878.31 993.393C1877.73 994.336 1876.32 994.58 1875.24 993.872C1871.73 991.584 1868.17 989.36 1864.61 987.134C1856.8 982.242 1848.72 977.185 1841.27 971.463C1830.94 963.512 1820.91 954.881 1811.2 946.536C1807.09 943.003 1802.98 939.47 1798.84 935.972C1796.2 933.744 1793.58 931.496 1790.95 929.249C1787.02 925.882 1783.08 922.516 1779.1 919.203C1747.07 892.574 1711.6 866.019 1669.43 852.119C1660.7 849.238 1651.19 848.244 1642 847.282L1639.02 846.967C1630.42 846.043 1622.65 849.604 1614.58 858.184C1600.08 873.632 1590.87 890.605 1587.25 908.623C1583.21 928.674 1587.22 949.896 1599.5 973.511C1617.07 1007.26 1643.09 1036.03 1668.25 1063.85C1672.09 1068.09 1675.93 1072.34 1679.73 1076.6C1697.02 1095.93 1715.72 1105.31 1736.89 1105.28C1754.69 1105.25 1769.41 1098.63 1785.43 1090.63C1793.56 1086.56 1801.49 1081.78 1809.16 1077.16L1813.84 1074.34C1814.21 1074.11 1814.61 1073.15 1814.91 1072.44C1815.17 1071.85 1815.42 1071.26 1815.72 1070.74C1816.26 1069.75 1817.64 1069.46 1818.76 1070.13C1819.86 1070.79 1820.3 1072.14 1819.73 1073.14C1819.5 1073.54 1819.31 1074.01 1819.12 1074.46C1818.79 1075.24 1818.43 1076.08 1817.9 1076.81Z" fill="url(#paint6_linear_381_59)"/>
<path d="M85.7874 25.945C85.2336 26.7075 84.6047 27.4019 83.896 28.0259C80.6411 30.8857 75.9502 32.0399 70.3322 31.3643C65.132 30.7309 57.4608 29.5062 50.9066 26.1655C37.317 19.2472 22.7113 11.1441 6.25183 1.39413C-21.9504 -15.3211 -45.1073 -15.5135 -68.8368 0.772446C-86.9836 13.2203 -100.613 30.2101 -113.797 46.6414C-117.375 51.0988 -120.949 55.5562 -124.612 59.9292L-125.457 60.9356C-137.526 75.3448 -150.006 90.2419 -166.425 100.592C-190.683 115.865 -224.005 132.39 -266.717 124.536C-267.958 124.308 -268.885 123.168 -268.782 121.988C-268.686 120.808 -267.59 120.036 -266.353 120.264C-225.176 127.834 -192.79 111.738 -169.173 96.8693C-153.258 86.8354 -140.973 72.1659 -129.09 57.9796L-128.245 56.9732C-124.601 52.6214 -121.041 48.1851 -117.481 43.7488C-104.128 27.1063 -90.3182 9.89603 -71.7115 -2.86386C-46.7476 -19.999 -21.3262 -19.802 8.29343 -2.24687C24.652 7.44681 39.1615 15.4959 52.6548 22.365C58.491 25.3374 65.5779 26.4588 70.4003 27.0453C74.7463 27.5685 78.2945 26.745 80.6623 24.6618C83.0887 22.541 84.2597 19.1369 84.0767 14.8438C83.4431 -0.060379 76.3092 -14.4906 62.2597 -29.2681C45.2698 -47.1681 34.8014 -67.2217 30.2559 -90.5691C26.2689 -111.038 21.3033 -132.577 8.52811 -151.152C-0.701355 -164.534 -11.5077 -177.81 -27.9367 -184.254C-30.8255 -185.385 -33.2566 -187.391 -35.6104 -189.331C-36.5913 -190.14 -37.5698 -190.95 -38.5765 -191.679C-39.6232 -192.437 -39.9235 -193.809 -39.2477 -194.741C-38.5695 -195.675 -37.1732 -195.813 -36.1266 -195.053C-35.0331 -194.26 -33.9653 -193.382 -32.8999 -192.503C-30.7739 -190.746 -28.7675 -189.087 -26.6508 -188.261C-8.91232 -181.301 2.50656 -167.33 12.2053 -153.268C25.5086 -133.925 30.6056 -111.854 34.6911 -90.9069C39.0559 -68.465 49.1137 -49.1974 65.4301 -32.0059C80.3291 -16.3322 87.8994 -0.909637 88.5823 15.1464C88.77 19.4818 87.8079 23.158 85.7874 25.945Z" fill="url(#paint7_linear_381_59)"/>
<path d="M1248.02 709.703C1240.52 720.044 1228.66 724.952 1212.95 724.054C1201.83 723.413 1189.57 721.304 1174.33 717.417C1129.81 706.058 1089.37 686.269 1044.9 663.478C1022.69 652.102 1003.13 649.28 985.115 654.849C963.788 661.437 945.935 673.988 933.479 691.151C933.455 691.184 933.432 691.217 933.408 691.247C921.398 707.838 912.103 726.39 902.05 747.169C891.384 769.221 871.121 783.48 849.161 784.409C829.622 785.233 810.436 775.619 795.129 757.339C767.771 724.668 743.774 698.037 715.584 674.26C693.565 655.687 682.139 632.457 681.623 605.217C681.012 573.619 689.425 543.958 698.608 516.616C702.33 505.566 707.164 494.8 711.843 484.391C713.976 479.643 716.109 474.897 718.146 470.109C718.28 469.813 718.465 469.569 718.7 469.381C718.756 469.224 718.834 469.079 718.937 468.938C721.227 465.783 723.536 462.637 725.843 459.495C731.032 452.432 736.215 445.361 741.204 438.166C749.596 426.344 761.092 420.932 775.034 422.438C788.013 423.85 801.178 425.833 813.914 427.749C828.852 429.997 844.301 432.324 859.451 433.734C896.751 437.194 930.397 450.491 962.317 474.371C979.48 487.211 997.388 490.282 1012.73 483.016C1027.05 476.253 1042.1 467.659 1060.12 455.965C1077.63 444.603 1101.68 432.413 1132.41 439.104C1162.45 445.621 1197.99 453.454 1233.85 462.13C1243.72 464.521 1254.08 467.575 1262.79 476.19C1274.86 488.114 1278.57 502.064 1274.48 520.079C1267.89 549.136 1266.95 579.763 1266.04 609.386L1265.98 611.373C1265.26 635.007 1262.03 660.233 1255.84 690.759C1254.31 698.335 1251.68 704.664 1248.02 709.703ZM929.686 688.404C942.631 670.57 961.172 657.533 983.322 650.69C1002.54 644.754 1023.25 647.696 1046.66 659.687C1090.86 682.328 1131.02 701.987 1175.03 713.22C1189.95 717.025 1201.92 719.09 1212.72 719.716C1233.77 720.92 1247.16 710.466 1251.4 689.486C1257.55 659.18 1260.75 634.171 1261.47 610.768L1261.53 608.783C1262.45 578.973 1263.4 548.146 1270.07 518.718C1273.8 502.305 1270.51 489.702 1259.74 479.049C1251.98 471.371 1242.77 468.661 1233.22 466.35C1197.41 457.687 1161.9 449.865 1131.9 443.348C1102.97 437.054 1080.79 448.066 1062.91 459.667C1044.75 471.451 1029.54 480.128 1015.07 486.969C998.136 494.983 978.511 491.692 959.803 477.703C928.673 454.407 895.866 441.441 859.512 438.072C844.226 436.648 828.709 434.311 813.702 432.054C801.019 430.145 787.898 428.169 775.022 426.766C762.733 425.434 752.417 430.22 745.044 440.856C740.036 448.084 734.829 455.174 729.621 462.266C727.319 465.405 725.017 468.544 722.729 471.695C722.628 471.833 722.511 471.955 722.382 472.056C722.372 472.082 722.361 472.107 722.351 472.133C720.305 476.943 718.163 481.712 716.02 486.484C711.381 496.809 706.582 507.488 702.919 518.361C693.849 545.368 685.542 574.635 686.138 605.621C686.623 631.476 697.46 653.517 718.341 671.128C746.815 695.146 770.988 721.966 798.517 754.845C812.768 771.868 830.509 780.822 848.473 780.067C868.929 779.204 887.888 765.761 897.922 744.992C908.052 724.049 917.432 705.344 929.618 688.507C929.639 688.467 929.665 688.435 929.686 688.404Z" fill="url(#paint8_linear_381_59)"/>
<path d="M1207.46 649.528C1199.84 660.034 1187.13 664.397 1168.27 663.384C1145.37 662.14 1124.85 650.563 1107.8 639.405C1090.54 628.114 1073.1 614.636 1055.95 599.35C1042.64 587.488 1028 571.083 1033 549.324C1033.84 545.687 1035.17 542.215 1036.46 538.858C1037.04 537.345 1037.62 535.829 1038.16 534.3C1038.28 533.95 1038.5 533.664 1038.76 533.455C1038.85 533.204 1038.99 532.974 1039.19 532.782C1042.29 529.718 1045.32 526.579 1048.35 523.438C1054.87 516.677 1061.61 509.693 1068.99 503.567C1104.21 474.385 1147.28 480.241 1184.2 519.231C1212.25 548.875 1222.91 587.261 1215.02 630.232C1213.57 638.117 1211.09 644.522 1207.46 649.528ZM1042.44 536.123C1041.89 537.676 1041.3 539.212 1040.71 540.751C1039.41 544.134 1038.19 547.329 1037.41 550.696C1032.95 570.109 1045.72 584.645 1058.81 596.307C1075.76 611.422 1093 624.738 1110.04 635.889C1127.35 647.217 1146.35 657.861 1168.02 659.041C1194.09 660.439 1206.42 651.738 1210.57 629.027C1218.2 587.474 1207.98 550.454 1181.02 521.962C1146.07 485.06 1105.37 479.46 1072.14 506.997C1064.92 512.986 1058.25 519.9 1051.8 526.586C1048.75 529.746 1045.71 532.909 1042.59 535.989C1042.54 536.036 1042.49 536.08 1042.44 536.123Z" fill="url(#paint9_linear_381_59)"/>
<path d="M1053.66 953.513C1052.97 954.458 1052.26 955.38 1051.51 956.286C1046.36 962.529 1037.79 966.001 1028.01 965.808C1018.04 965.611 1008.2 961.527 1001.69 954.878C985.75 938.6 978.694 918.339 980.121 892.944C980.778 881.207 984.035 869.801 987.182 858.767C988.578 853.869 989.977 848.971 991.155 844.037C991.258 843.612 991.493 843.256 991.809 843.005C991.896 842.749 992.051 842.517 992.258 842.32C994.661 839.99 996.946 837.499 999.234 835.007C1004.34 829.452 1009.62 823.706 1016.19 819.765C1029.19 811.967 1043.15 811.045 1054.51 817.243C1064.99 822.965 1071.61 834.034 1072.67 847.61C1072.88 850.329 1072.59 852.978 1072.3 855.537L1072.22 856.302C1071.39 864.046 1070.54 871.79 1069.69 879.534C1068.23 892.782 1066.77 906.035 1065.42 919.301C1064 933.471 1060.23 944.45 1053.66 953.513ZM995.51 845.653C994.327 850.571 992.938 855.453 991.542 860.335C988.456 871.161 985.26 882.352 984.626 893.648C983.277 917.713 989.876 936.826 1004.81 952.075C1010.39 957.778 1018.92 961.285 1027.61 961.452C1036.09 961.621 1043.47 958.667 1047.86 953.353C1055.28 944.345 1059.44 933.267 1060.94 918.405C1062.28 905.124 1063.74 891.862 1065.2 878.601C1066.05 870.861 1066.91 863.122 1067.74 855.377L1067.82 854.603C1068.08 852.227 1068.35 849.771 1068.18 847.443C1067.24 835.505 1061.57 825.851 1052.63 820.966C1042.81 815.608 1030.51 816.539 1018.87 823.523C1012.77 827.183 1007.68 832.725 1002.76 838.08C1000.42 840.623 998.084 843.169 995.63 845.545C995.59 845.588 995.548 845.623 995.51 845.653Z" fill="url(#paint10_linear_381_59)"/>
<path d="M556.517 559.017C550.305 567.576 540.06 570.956 527.414 568.355C496.194 561.926 478.094 538.779 467.196 521.93C459.454 509.963 452.576 497.329 445.923 485.109C441.324 476.659 436.569 467.92 431.578 459.505C428.847 454.893 425.46 450.398 422.187 446.053C418.118 440.652 413.912 435.067 410.773 429.051C397.878 404.322 396.585 379.607 406.936 355.596C407.07 355.302 407.262 355.061 407.49 354.873C407.605 354.559 407.823 354.289 408.027 354.012C413.039 347.106 420.284 343.07 430.154 341.682C450.999 338.742 472.072 347.005 489.484 364.945C532.241 409.005 557.181 457.138 563.616 508.008C565.939 526.406 564.885 540.027 560.192 552.172C559.202 554.729 557.967 557.014 556.517 559.017ZM411.171 357.541C411.16 357.569 411.148 357.599 411.136 357.63C401.29 380.466 402.51 403.956 414.764 427.451C417.712 433.105 421.792 438.522 425.737 443.758C429.093 448.213 432.566 452.823 435.438 457.67C440.472 466.163 445.25 474.944 449.87 483.432C456.479 495.572 463.31 508.121 470.95 519.931C487.471 545.472 505.559 559.508 527.883 564.101C541.442 566.895 551.392 561.971 555.944 550.269C560.389 538.762 561.375 525.746 559.138 508.062C552.835 458.215 528.348 410.999 486.356 367.727C474.867 355.889 455.983 342.51 431.282 345.989C422.259 347.258 416.02 350.805 411.542 357.149C411.394 357.325 411.31 357.433 411.171 357.541Z" fill="url(#paint11_linear_381_59)"/>
<path d="M518.318 98.1382C515.101 102.572 509.633 105.46 502.546 106.077C498.538 106.431 494.398 105.91 490.397 105.406L488.874 105.214C464.901 102.272 446.292 87.5131 430.731 73.9157C416.102 61.1112 410.96 47.1197 415.872 33.4472C415.991 33.1024 416.205 32.8232 416.465 32.6167C416.494 32.544 416.526 32.4689 416.564 32.3962C420.147 25.6468 426.202 22.0152 435.105 21.3325C453.238 19.9202 469.38 26.7236 484.359 33.8202C505.667 43.8986 517.755 60.3887 521.319 84.224C522.124 89.6527 521.005 94.4362 518.318 98.1382ZM420.145 35.2841C415.839 47.3191 420.347 59.2814 433.556 70.8354C448.533 83.9261 466.403 98.1288 488.952 100.895L490.493 101.089C494.248 101.563 498.132 102.054 501.652 101.742C512.32 100.813 518.285 93.9928 516.851 84.3695C513.498 61.9464 502.661 47.108 482.742 37.6841C468.369 30.8807 452.919 24.3471 435.952 25.6679C428.455 26.2403 423.562 29.1165 420.633 34.6976C420.502 34.9275 420.34 35.1293 420.145 35.2841Z" fill="url(#paint12_linear_381_59)"/>
<path d="M157.678 474.04C155.563 476.952 152.219 479.249 147.632 480.954C129.513 487.706 109.144 488.536 83.5254 483.567C79.0855 482.704 74.7935 480.907 70.6445 479.166L69.7763 478.8C52.831 471.725 44.9837 460.434 47.0793 446.153C47.1544 445.649 47.4055 445.236 47.7692 444.948C47.8748 444.678 48.0391 444.422 48.2667 444.213C49.5081 443.092 50.6815 441.858 51.8524 440.626C54.5511 437.795 57.3413 434.865 60.9833 433.126C80.6296 423.756 102.545 421.75 126.122 427.17C141.673 430.738 152.407 439.838 158.025 454.217C161.301 462.618 161.202 469.184 157.678 474.04ZM51.4981 447.575C49.893 459.54 56.5106 468.713 71.1725 474.836L72.0455 475.202C75.9597 476.842 80.0054 478.54 83.9361 479.3C108.682 484.102 128.279 483.331 145.618 476.87C155.629 473.132 158.166 466.503 153.822 455.343C148.782 442.44 139.531 434.609 125.545 431.397C103.01 426.217 82.0775 428.127 63.3276 437.07C60.3333 438.501 57.9021 441.053 55.3255 443.756C54.0888 445.056 52.8474 446.355 51.5427 447.538C51.5263 447.552 51.5145 447.563 51.4981 447.575Z" fill="url(#paint13_linear_381_59)"/>
<path d="M797.409 901.711C795.337 904.564 791.871 906.673 787.178 907.898C776.723 910.642 768.25 911.71 760.51 911.259C747.963 910.52 735.206 909.2 722.872 907.923C713.779 906.983 704.685 906.042 695.597 905.315C653.502 901.969 611.469 886.641 567.091 858.456C545.936 845.013 523.607 832.145 500.73 820.209C472.755 805.605 467.679 795.944 474.865 770.994C474.977 770.6 475.203 770.277 475.498 770.044C475.571 769.847 475.679 769.657 475.822 769.488C477.833 767.114 479.793 764.691 481.752 762.267C486.058 756.942 490.512 751.434 495.489 746.505C510.168 731.959 529.136 723.479 550.345 721.984C578.653 719.999 607.463 726.378 634.544 733.081C653.286 737.721 667.765 743.725 680.114 751.98C700.565 765.66 713.03 785.225 724.027 802.485C739.735 827.127 755.338 845.236 773.138 859.472C781.49 866.148 788.393 874.479 794.61 882.49C798.93 888.058 800.502 893.463 799.158 898.131C798.782 899.431 798.198 900.625 797.409 901.711ZM479.185 772.709C472.64 795.517 476.596 802.893 502.525 816.429C525.534 828.436 547.989 841.379 569.273 854.899C612.924 882.627 654.204 897.697 695.472 900.977C704.599 901.704 713.729 902.65 722.86 903.595C735.143 904.867 747.845 906.183 760.285 906.915C767.531 907.337 775.564 906.309 785.559 903.684C790.639 902.361 793.847 899.893 794.797 896.548C795.755 893.235 794.476 889.188 791.104 884.843C785.082 877.085 778.415 869.031 770.491 862.693C752.231 848.091 736.269 829.586 720.249 804.455C709.522 787.618 697.364 768.536 677.826 755.469C665.996 747.558 652.033 741.782 633.882 737.289C607.174 730.678 578.784 724.384 551.155 726.324C530.962 727.746 512.883 735.833 498.88 749.709C494.053 754.493 489.665 759.921 485.422 765.169C483.444 767.612 481.466 770.058 479.438 772.454C479.361 772.55 479.276 772.637 479.185 772.709Z" fill="url(#paint14_linear_381_59)"/>
<path d="M926.473 645.852C918.795 656.433 910.629 666.746 902.683 676.782C897.767 682.989 892.848 689.199 888.033 695.477C885.789 698.41 883.687 701.443 881.589 704.472C878.411 709.063 875.126 713.811 871.364 718.121C854.367 737.611 835.284 739.437 814.652 723.545C791.277 705.546 767.632 685.891 744.379 665.129C724.742 647.605 714.095 627.957 712.734 606.73C711.495 587.362 717.348 569.532 722.586 556.16C725.772 548.005 729.755 540.092 733.606 532.444C735.347 528.986 737.088 525.528 738.761 522.04C738.886 521.777 739.071 521.554 739.282 521.385C739.362 521.169 739.484 520.972 739.646 520.782C741.817 518.385 743.893 515.886 745.975 513.39C750.551 507.896 755.279 502.214 760.965 497.637C793.462 471.465 834.13 467.807 888.946 486.134C893.644 487.699 897.973 490.427 902.16 493.069C921.965 505.58 934.06 523.64 943.867 539.604C955.79 559.034 958.745 579.289 952.409 598.184C947.948 611.486 941.049 624.947 931.901 638.197C930.125 640.766 928.313 643.319 926.473 645.852ZM882.128 695.571C882.842 694.588 883.565 693.612 884.304 692.65C889.129 686.356 894.057 680.13 898.985 673.908C908.803 661.514 918.964 648.693 928.062 635.52C937.01 622.559 943.752 609.414 948.103 596.446C954.037 578.752 951.252 559.754 940.047 541.509C928.257 522.312 916.991 507.37 900.341 496.855C896.07 494.165 892.013 491.605 887.901 490.235C834.707 472.455 795.36 475.908 764.075 501.106C758.68 505.449 754.071 510.985 749.615 516.337C747.503 518.875 745.388 521.411 743.185 523.849C743.112 523.924 743.039 523.996 742.962 524.057C742.943 524.111 742.917 524.163 742.894 524.215C741.209 527.722 739.458 531.203 737.705 534.682C733.894 542.255 729.954 550.086 726.833 558.077C721.741 571.074 716.053 588.371 717.24 606.942C718.519 626.915 728.614 645.47 747.24 662.091C770.399 682.771 793.945 702.342 817.222 720.265C836.023 734.745 852.089 733.107 867.781 715.113C871.407 710.968 874.633 706.302 877.752 701.79C879.193 699.709 880.638 697.624 882.128 695.571Z" fill="url(#paint15_linear_381_59)"/>
<path d="M1124.42 978.569C1118.15 987.202 1109.76 994.447 1099.28 1000.25C1087.16 1006.97 1072.7 1012.42 1055.08 1016.91C1023.76 1024.88 994.738 1018.84 968.817 998.937C956.255 989.295 942.602 979.397 927.079 968.678C913.987 959.637 902.735 955.236 891.677 954.83C874.209 954.203 860.169 954.189 847.497 954.785C826.06 955.799 800.552 956.01 773.882 949.92C766.858 948.315 759.839 946.668 752.82 945.019C732.357 940.217 711.195 935.25 690.329 931.489C657.114 925.495 624.652 918.898 592.696 904.154C588.978 902.437 585.261 900.689 581.544 898.941C559.509 888.569 536.723 877.848 512.606 874.132C503.015 872.659 493.202 871.77 483.707 870.909C476.275 870.235 468.587 869.541 461.017 868.567C429.321 864.478 406.021 848.321 393.633 821.842C374.104 780.076 382.209 737.175 414.72 709.893L416.71 708.225C430.733 696.486 445.229 684.357 453.083 667.093C458.438 655.349 462.277 642.636 454.174 629.231C446.965 617.311 438.919 606.12 430.257 595.965C426.969 592.11 423.576 588.317 420.19 584.525C405.976 568.634 391.279 552.198 384.699 531.184C381.46 520.829 378.569 510.246 375.774 500.011C374.087 493.834 372.402 487.657 370.633 481.494C362.234 452.237 353.549 421.981 349.569 390.868C346.235 364.74 341.79 339.589 324.307 319.085C309.023 301.157 293.378 285.706 277.806 273.162C264.477 262.429 250.218 252.306 236.429 242.519C224.081 233.754 211.311 224.687 199.188 215.174C184.164 203.378 171.577 190.834 161.78 177.889C147.897 159.557 135.858 139.447 141.751 116.609C141.856 116.196 142.089 115.853 142.398 115.609C142.469 115.422 142.574 115.246 142.694 115.091C150.633 105.245 162.221 106.964 172.44 108.482C173.736 108.675 175.024 108.865 176.305 109.034C183.923 110.04 191.533 111.265 199.143 112.489C205.263 113.472 211.386 114.458 217.513 115.33L231.898 117.343C270.465 122.706 310.345 128.254 349.243 139.011C379.581 147.4 402.247 160.756 418.542 179.843C426.507 189.168 433.589 201.016 440.838 217.118C452.991 244.147 469.855 264.681 492.392 279.895C499.62 284.777 506.74 290.042 513.629 295.132C519.285 299.311 524.94 303.486 530.704 307.5C547.907 319.472 560.964 336.293 569.515 357.491C594.226 418.72 609.636 470.038 618.016 518.997C620.339 532.543 621.245 546.227 620.703 559.667C620.032 576.359 618.516 593.189 617.054 609.463C616.479 615.863 615.902 622.266 615.374 628.67C613.543 651.016 619.297 667.543 634.032 682.262C642.276 690.501 652.066 696.312 661.537 701.936C666.463 704.861 671.558 707.885 676.42 711.233C679.306 713.22 682.277 715.153 685.248 717.091C694.323 723.005 703.707 729.123 711.052 736.945C724.85 751.636 736.37 768.137 746.987 783.778C757.774 799.672 770.181 815.954 787.769 827.395C804.358 838.18 822.843 846.412 842.712 851.859C877.379 861.367 903.031 856.366 921.133 836.566C932.5 824.129 943.262 810.75 953.667 797.81C958.154 792.231 962.641 786.652 967.191 781.125C977.591 768.513 989.308 760.785 1003.01 757.491C1027.02 751.732 1052.86 753.705 1082 763.523C1094.89 767.861 1107.24 772.407 1116.67 780.269C1136.47 796.782 1145.35 817.964 1143.07 843.231C1140.85 867.624 1138.29 899.776 1138.21 932.142C1138.16 950.483 1133.54 965.999 1124.42 978.569ZM403.233 728.957C384.818 754.329 382.43 787.743 397.713 820.434C409.325 845.25 431.252 860.406 461.123 864.26C468.606 865.222 476.245 865.916 483.634 866.583C493.202 867.451 503.093 868.344 512.831 869.841C537.662 873.668 560.786 884.551 583.149 895.072C586.855 896.818 590.56 898.561 594.266 900.271C625.676 914.765 657.792 921.287 690.676 927.22C711.672 931.004 732.895 935.984 753.421 940.803C760.431 942.448 767.438 944.092 774.454 945.694C800.556 951.656 825.663 951.44 846.786 950.443C859.589 949.842 873.749 949.856 891.349 950.487C903.394 950.931 915.494 955.62 929.428 965.241C945.022 976.009 958.745 985.959 971.38 995.655C996.013 1014.56 1023.64 1020.3 1053.49 1012.7C1070.77 1008.29 1084.91 1002.97 1096.72 996.422C1121.52 982.679 1133.63 961.497 1133.71 931.658C1133.79 899.131 1136.35 866.864 1138.58 842.388C1140.72 818.684 1132.44 798.847 1113.95 783.429C1105.21 776.149 1093.35 771.8 1080.95 767.624C1052.69 758.101 1027.7 756.173 1004.55 761.731C991.723 764.813 980.698 772.116 970.844 784.06C966.306 789.575 961.831 795.142 957.351 800.712C946.909 813.697 936.109 827.121 924.662 839.646C905.438 860.675 878.379 866.041 841.937 856.044C821.557 850.456 802.584 842.006 785.547 830.926C767.18 818.98 754.386 802.213 743.295 785.878C732.794 770.401 721.408 754.09 707.865 739.671C700.947 732.305 691.833 726.365 683.019 720.619C680.008 718.656 677.004 716.699 674.083 714.686C669.364 711.437 664.349 708.46 659.496 705.579C649.748 699.791 639.666 693.809 630.96 685.106C615.125 669.286 608.932 651.63 610.882 627.858C611.41 621.442 611.988 615.033 612.565 608.621C614.024 592.396 615.533 575.615 616.2 559.024C616.73 545.875 615.845 532.491 613.574 519.241C605.248 470.604 589.922 419.583 565.338 358.667C557.158 338.386 544.711 322.327 528.343 310.937C522.54 306.898 516.847 302.684 511.151 298.478C504.308 293.42 497.228 288.191 490.09 283.374C466.736 267.602 449.284 246.371 436.736 218.465C429.682 202.801 422.837 191.336 415.196 182.379C399.595 164.113 377.767 151.292 348.459 143.184C309.878 132.517 270.158 126.995 231.748 121.65L217.349 119.637C211.191 118.76 205.04 117.772 198.89 116.782C191.322 115.565 183.756 114.35 176.183 113.348C174.879 113.174 173.564 112.98 172.246 112.785C162.291 111.304 152.888 109.911 146.374 117.991C146.289 118.094 146.195 118.188 146.097 118.27C140.5 140.334 153.083 159.421 165.325 175.585C174.86 188.178 187.131 200.403 201.802 211.92C213.824 221.355 226.54 230.383 238.839 239.115C252.692 248.949 267.013 259.117 280.467 269.95C296.293 282.699 312.173 298.375 327.668 316.547C346.026 338.078 350.623 363.962 354.051 390.807C357.984 421.586 366.625 451.676 374.977 480.769C376.751 486.951 378.445 493.149 380.135 499.347C382.918 509.54 385.797 520.083 389.01 530.356C395.28 550.377 408.97 565.685 423.466 581.896C426.882 585.717 430.302 589.541 433.615 593.426C442.455 603.791 450.661 615.206 458.009 627.359C467.21 642.58 462.789 657.05 457.248 669.2C449.037 687.226 434.213 699.637 419.875 711.646L417.89 713.309C412.223 718.064 407.33 723.31 403.233 728.957Z" fill="url(#paint16_linear_381_59)"/>
<path d="M220.12 546.689C220.052 546.782 219.984 546.876 219.916 546.968C212.369 557.175 197.111 559.58 181.041 553.089C151.353 541.103 118.448 535.198 77.4871 534.501C35.0735 533.793 -4.68375 517.528 -40.6769 486.159C-56.0335 472.773 -65.791 456.933 -69.6817 439.073C-73.4669 421.698 -68.8932 407.357 -64.4862 396.803C-64.3618 396.507 -64.1671 396.256 -63.9254 396.061C-63.8667 395.904 -63.9066 395.888 -63.6813 395.609C-51.9503 379.604 -34.6812 371.168 -12.355 370.532C-2.51309 370.248 7.55882 370.746 17.3022 371.229C24.0371 371.56 31.0043 371.905 37.8026 371.984C48.9493 372.116 60.0796 372.066 71.2074 372.015C88.8661 371.937 107.128 371.855 125.167 372.538C165.03 374.061 191.549 389.565 206.246 419.941C209.44 426.552 212.195 433.184 214.432 439.662L216.534 445.698C224.006 467.077 231.729 489.186 230.513 511.595C230.056 520.015 228.096 535.7 220.12 546.689ZM-60.2458 398.733C-60.2552 398.757 -60.2622 398.78 -60.2739 398.804C-66.5724 413.884 -68.0672 425.799 -65.27 438.639C-61.6068 455.474 -52.3845 470.425 -37.8633 483.084C-2.81346 513.629 35.8526 529.467 77.0647 530.154C118.638 530.858 152.104 536.88 182.378 549.103C193.084 553.426 208.351 554.735 216.142 544.19C216.203 544.11 216.264 544.028 216.323 543.946C221.824 536.369 225.257 524.65 226.001 510.898C227.172 489.329 219.597 467.642 212.27 446.669L210.163 440.619C207.983 434.315 205.301 427.857 202.187 421.415C188.198 392.505 163.823 378.354 125.479 376.89C107.541 376.21 89.3284 376.292 71.719 376.371C60.5653 376.421 49.4093 376.47 38.2391 376.336C31.354 376.256 24.3422 375.909 17.5627 375.574C7.91081 375.1 -2.07191 374.605 -11.7331 374.882C-32.71 375.48 -48.9184 383.381 -59.9055 398.374C-60.0017 398.511 -60.1167 398.63 -60.2458 398.733Z" fill="url(#paint17_linear_381_59)"/>
<path d="M687.883 851.528C687.743 851.723 687.602 851.908 687.461 852.089C683.347 857.269 675.847 860.142 667.397 859.776C645.151 858.803 627.513 852.246 613.475 839.732C601.787 829.314 587.239 816.35 592.191 796.85C592.299 796.437 592.524 796.09 592.841 795.841C592.963 795.508 593.186 795.203 593.503 794.975C594.993 793.903 596.42 792.681 597.846 791.456C601.118 788.658 604.497 785.758 608.733 784.477C625.532 779.37 642.32 781.101 657.278 789.483C672.74 798.149 684.621 813.429 689.876 831.409C692.83 841.527 690.537 847.871 687.883 851.528ZM596.532 798.501C592.367 815.332 604.549 826.189 616.333 836.689C629.444 848.377 646.052 854.507 667.101 855.429C674.202 855.737 680.43 853.412 683.767 849.21C687.053 845.109 687.642 839.336 685.541 832.145C680.644 815.395 669.638 801.192 655.344 793.181C641.588 785.474 626.084 783.9 610.504 788.636C607.073 789.678 604.145 792.186 601.043 794.844C599.562 796.115 598.079 797.382 596.532 798.501Z" fill="url(#paint18_linear_381_59)"/>
<path d="M1783.44 1034.7C1781.59 1037.24 1779.65 1039.62 1777.72 1041.86C1751.56 1072.18 1719.68 1073.73 1685.53 1046.33C1676.74 1039.27 1667.95 1030.47 1658.67 1019.42C1632.27 987.984 1605.68 950.628 1624.34 905.017C1624.46 904.705 1624.66 904.457 1624.9 904.264C1624.95 904.131 1625.02 903.999 1625.1 903.88C1633.88 890.721 1644.37 883.929 1658.01 882.479C1678.32 880.319 1695.5 889.799 1711.35 899.697C1731.06 911.994 1749.37 928.492 1768.97 951.602C1782.75 967.825 1795.05 984.15 1794.34 1005.4C1793.95 1017.3 1789.18 1026.8 1783.44 1034.7ZM1628.58 906.934C1628.58 906.953 1628.57 906.972 1628.56 906.988C1612.57 946.075 1630.38 979.2 1662.04 1016.91C1671.11 1027.7 1679.66 1036.27 1688.18 1043.11C1719.99 1068.63 1749.71 1067.17 1774.12 1038.87C1781.62 1030.17 1789.35 1019.32 1789.84 1004.78C1790.49 985.126 1778.75 969.605 1765.61 954.126C1746.37 931.438 1728.44 915.279 1709.21 903.27C1694.11 893.841 1677.78 884.804 1658.99 886.803C1646.47 888.138 1637.21 894.209 1628.97 906.512C1628.9 906.683 1628.74 906.814 1628.58 906.934Z" fill="url(#paint19_linear_381_59)"/>
<path d="M884.949 643.511C877.973 653.123 868.71 662.235 856.991 671.109C843.744 681.136 827.843 682.103 811.001 673.908C801.086 669.083 791.353 662.891 782.071 655.499C755.887 634.646 747.275 614.644 753.273 588.622C754.754 582.196 757.183 576.028 759.534 570.065C760.609 567.344 761.681 564.62 762.669 561.866C762.791 561.525 762.998 561.246 763.263 561.035C763.343 560.826 763.46 560.629 763.613 560.453C766.016 557.734 768.278 554.839 770.542 551.947C775.573 545.519 780.774 538.873 787.532 534.152C803.581 522.938 836.35 509.135 875.464 542.699C894.897 559.391 903.486 579.463 900.986 602.353C899.358 617.327 894.137 630.854 884.949 643.511ZM766.942 563.705C765.945 566.485 764.861 569.239 763.777 571.991C761.479 577.821 759.1 583.852 757.685 590.001C752.123 614.13 760.203 632.752 784.711 652.266C793.563 659.318 803.229 665.472 812.667 670.063C828.019 677.533 841.918 676.698 853.971 667.574C880.237 647.685 893.749 626.664 896.497 601.433C898.86 579.794 891.067 561.598 872.676 545.805C836.073 514.392 805.435 527.288 790.428 537.77C784.136 542.166 779.112 548.592 774.25 554.802C771.939 557.753 769.629 560.704 767.175 563.48C767.104 563.562 767.027 563.637 766.942 563.705Z" fill="url(#paint20_linear_381_59)"/>
<path d="M1519.18 723.836C1523.06 726.656 1526.62 729.935 1529.76 733.649C1542.8 749.083 1546.87 769.78 1540.93 790.432C1534.95 811.262 1522.52 828.247 1510.5 844.674C1500.71 858.048 1490.59 871.878 1484.25 887.521C1470.9 920.447 1478.6 942.004 1487.52 966.959C1492.13 979.869 1496.9 993.218 1498.95 1009.09C1503.84 1046.84 1495.09 1063.19 1461.49 1079.06C1431.69 1093.14 1403.82 1127.08 1410.85 1162.25L1411.32 1164.58L1408.94 1164.45C1384.54 1163.07 1371.26 1134.84 1367.77 1126.22C1359.87 1106.72 1356.66 1104.04 1337.94 1094.29C1315.25 1082.47 1294.42 1069.79 1288.68 1044.74C1283.81 1023.45 1292.11 1003.07 1300.14 983.355C1302.5 977.577 1304.93 971.602 1306.96 965.755C1315.06 942.424 1313.54 920.097 1311.93 896.457C1311.68 892.71 1311.42 888.917 1311.2 885.067C1310.25 868.863 1306.08 853.248 1302.04 838.142C1298.42 824.571 1294.66 810.535 1293.35 796.294C1291.81 779.631 1299.32 763.281 1313.95 751.444C1331.47 737.262 1355.71 732.11 1375.71 738.327L1378.34 739.15C1397.8 745.236 1409.55 748.908 1427.11 736.199C1430.82 733.52 1434.04 730.972 1436.89 728.723C1447.47 720.359 1455.11 714.318 1473.55 712.242C1490.24 710.365 1506.47 714.618 1519.18 723.836ZM1406.81 1160.54C1401.11 1124.42 1429.54 1090.08 1459.91 1075.73C1492.04 1060.55 1499.98 1045.71 1495.3 1009.56C1493.3 994.079 1488.6 980.922 1484.05 968.195C1475.26 943.595 1466.96 920.358 1480.84 886.134C1487.35 870.067 1497.61 856.049 1507.52 842.494C1519.35 826.328 1531.59 809.613 1537.39 789.409C1542.99 769.956 1539.18 750.496 1526.95 736.019C1514.33 721.098 1494.53 713.581 1473.95 715.899C1456.57 717.854 1449.65 723.327 1439.17 731.606C1436.29 733.877 1433.04 736.45 1429.27 739.174C1410.21 752.968 1396.38 748.64 1377.24 742.653L1374.61 741.832C1355.76 735.974 1332.85 740.868 1316.26 754.299C1302.61 765.351 1295.59 780.529 1297.01 795.949C1298.3 809.88 1301.84 823.144 1305.6 837.187C1309.68 852.469 1313.91 868.272 1314.88 884.844C1315.1 888.682 1315.36 892.464 1315.61 896.199C1317.24 920.224 1318.78 942.917 1310.44 966.952C1308.38 972.89 1305.93 978.909 1303.55 984.737C1295.74 1003.92 1287.65 1023.75 1292.27 1043.91C1297.66 1067.43 1317.75 1079.61 1339.64 1091.02C1358.85 1101.02 1362.92 1104.43 1371.18 1124.83C1374.35 1132.66 1386.02 1157.63 1406.81 1160.54Z" fill="url(#paint21_linear_381_59)"/>
<path d="M1423.81 828.789C1426.82 830.971 1429.52 833.228 1431.7 835.501C1446.91 851.299 1440.17 869.905 1434.23 886.325C1433.41 888.607 1432.59 890.871 1431.83 893.102C1430.38 897.388 1430.15 904.086 1429.91 911.178C1429.34 927.473 1428.7 945.941 1413.61 948.449C1408.74 949.258 1403.56 947.804 1398.64 944.243C1398.63 944.238 1398.63 944.231 1398.62 944.226C1389.46 937.58 1382.62 924.773 1381.31 916.217L1381.3 916.152L1380.55 909.576C1378.65 892.666 1376.69 875.179 1370.54 859.144C1369.2 855.655 1367.04 852.394 1364.95 849.241C1361.24 843.648 1357.41 837.859 1357.72 830.398C1358.1 821.16 1360.95 814.755 1366.18 811.372C1372.4 807.351 1381.62 807.745 1393.58 812.548C1402.65 816.196 1414.66 822.15 1423.81 828.789ZM1400.78 941.244C1400.79 941.251 1400.79 941.256 1400.8 941.261C1404.96 944.273 1409.07 945.472 1413 944.817C1425.12 942.802 1425.71 925.934 1426.22 911.049C1426.48 903.68 1426.72 896.72 1428.35 891.924C1429.11 889.668 1429.93 887.38 1430.77 885.072C1436.62 868.91 1442.66 852.197 1429.05 838.053C1420.62 829.282 1403.93 820.674 1392.2 815.966C1381.57 811.696 1373.27 811.178 1368.18 814.462C1364.01 817.162 1361.72 822.574 1361.4 830.548C1361.14 836.819 1364.49 841.866 1368.02 847.207C1370.22 850.529 1372.5 853.961 1373.98 857.825C1380.3 874.301 1382.29 892.023 1384.21 909.165L1384.96 915.692C1386.17 923.499 1392.41 935.175 1400.78 941.244Z" fill="url(#paint22_linear_381_59)"/>
<path d="M1477.79 769.498C1477.96 769.617 1478.13 769.739 1478.29 769.866C1497.14 784.118 1488.22 806.921 1478.34 825.196C1460.4 858.364 1458.95 892.874 1457.41 929.408C1457.2 934.309 1456.99 939.224 1456.74 944.148C1456.48 949.213 1457.48 955.153 1458.54 961.443C1460.6 973.75 1462.73 986.475 1456.05 995.507C1453.32 999.188 1449.74 1001.78 1446.27 1004.29C1442.83 1006.79 1439.58 1009.14 1437.21 1012.44C1428.25 1024.91 1422.66 1046.67 1421.26 1061.6L1421.22 1062.01L1421.01 1062.37C1415.95 1070.85 1406.47 1072.94 1395.63 1067.97C1391.94 1066.28 1388.96 1062.37 1386.33 1058.92C1385.61 1057.97 1384.92 1057.06 1384.27 1056.28C1382.13 1053.72 1379.64 1051.15 1376.99 1048.43C1371.04 1042.3 1364.88 1035.97 1361.9 1028.72C1356.85 1016.46 1360.22 1002.12 1363.49 988.25C1365.47 979.824 1367.34 971.871 1367.38 964.556C1367.51 938.78 1355.42 919.323 1342.61 898.72C1338.99 892.881 1335.23 886.845 1331.76 880.632C1316.5 853.344 1309.02 802.687 1334.69 778.553C1351.24 762.999 1378.19 769.519 1399.85 774.757C1405.1 776.027 1410.07 777.228 1414.39 777.983C1423.92 779.646 1432.97 775.461 1441.71 771.417C1453.34 766.03 1465.35 760.473 1477.79 769.498ZM1417.64 1060.82C1419.15 1045.42 1424.95 1023.2 1434.22 1010.28C1436.94 1006.5 1440.59 1003.86 1444.12 1001.31C1447.5 998.852 1450.7 996.537 1453.09 993.313C1458.84 985.538 1456.84 973.597 1454.91 962.048C1453.82 955.557 1452.79 949.427 1453.07 943.958C1453.32 939.043 1453.53 934.142 1453.73 929.251C1455.29 892.28 1456.76 857.36 1475.1 823.446C1484.85 805.41 1492.59 785.293 1476.07 772.801C1465.14 764.618 1455.04 769.303 1443.26 774.75C1434 779.032 1424.43 783.461 1413.76 781.601C1409.32 780.826 1404.3 779.611 1398.99 778.328C1378.19 773.298 1352.31 767.037 1337.22 781.23C1313.24 803.775 1320.67 853.25 1334.98 878.828C1338.41 884.968 1342.14 890.967 1345.75 896.771C1358.83 917.838 1371.2 937.732 1371.07 964.57C1371.03 972.298 1369.02 980.835 1367.07 989.088C1363.94 1002.39 1360.7 1016.14 1365.3 1027.31C1368.02 1033.9 1373.92 1039.98 1379.63 1045.86C1382.33 1048.63 1384.87 1051.25 1387.1 1053.92C1387.78 1054.74 1388.5 1055.69 1389.26 1056.68C1391.63 1059.79 1394.32 1063.31 1397.17 1064.62C1401.41 1066.57 1411.83 1070.05 1417.64 1060.82Z" fill="url(#paint23_linear_381_59)"/>
<path d="M316.223 191.556C319.135 193.67 321.918 195.786 324.521 197.766C326.635 199.378 328.611 200.879 330.399 202.181C352.965 218.589 371.996 237.639 390.401 256.057C402.82 268.486 415.663 281.338 429.539 293.345C450.211 311.231 467.297 324.821 488.567 337.281C492.085 339.34 496.175 341.41 500.507 343.598C511.553 349.184 524.072 355.523 530.746 363.828C536.899 371.497 541.172 385.524 544.941 397.904C547.051 404.824 549.041 411.36 551.148 416.212C557.73 431.365 563.62 447.498 569.318 463.104L571.695 469.609C573.096 473.431 574.507 477.184 575.894 480.884C588.765 515.168 599.881 544.775 587.308 581.295C579.306 604.539 563.123 631.556 541.7 637.658C529.981 640.996 518.018 637.791 506.134 628.095L506.061 628.034C486.42 610.287 470.951 584.997 457.3 562.689C454.942 558.832 452.658 555.1 450.441 551.555C444.041 541.329 439.214 530.021 434.547 519.086C430.215 508.94 425.737 498.448 420.03 488.9C417.888 485.315 415.799 482.024 413.798 478.869C407.07 468.267 401.262 459.111 397.5 445.473C395.303 437.509 391.65 429.776 388.12 422.297C384.502 414.635 380.764 406.713 378.581 398.532C376.41 390.392 377.98 385.723 379.639 380.78C380.545 378.08 381.484 375.29 381.991 371.586C385.372 346.944 372.928 317.304 361.894 296.779C350.555 275.698 335.027 246.823 316.596 229.822C310.091 223.821 302.206 219.077 294.585 214.491C288.42 210.78 282.056 206.944 276.257 202.388C275.56 201.898 273.516 201.271 271.836 200.783C268.133 199.713 264.294 198.601 263.318 195.988C261.642 191.521 261.729 187.589 263.576 184.303C266.382 179.306 272.448 177.211 277.043 176.333C289.525 173.952 303.997 182.689 316.223 191.556ZM462.09 324.347C450.605 316.016 439.503 306.834 427.129 296.127C413.15 284.031 400.262 271.133 387.796 258.657C369.492 240.339 350.562 221.393 328.231 205.159C326.422 203.842 324.427 202.325 322.289 200.694C309.319 190.831 291.578 177.309 277.74 179.951C272.333 180.983 268.443 183.169 266.793 186.107C265.502 188.403 265.495 191.294 266.772 194.698C267.131 195.584 271.003 196.713 272.868 197.25C275.257 197.942 277.297 198.472 278.54 199.498C284.149 203.903 290.422 207.685 296.49 211.34C304.267 216.018 312.314 220.86 319.098 227.119C337.984 244.538 353.678 273.725 365.137 295.038C376.434 316.045 389.16 346.463 385.642 372.088C385.086 376.133 384.049 379.225 383.131 381.951C381.526 386.734 380.257 390.511 382.141 397.582C384.237 405.441 387.74 412.864 391.45 420.723C395.048 428.343 398.767 436.223 401.048 444.493C404.667 457.602 410.339 466.543 416.907 476.896C418.927 480.079 421.032 483.399 423.191 487.012C429.027 496.776 433.556 507.382 437.933 517.639C442.547 528.444 447.317 539.618 453.559 549.601C455.782 553.152 458.074 556.899 460.442 560.768C473.952 582.853 489.264 607.882 508.493 625.271C519.402 634.136 530.206 637.104 540.689 634.118C560.769 628.396 576.473 601.44 583.821 580.096C595.965 544.829 585.064 515.797 572.444 482.177C571.052 478.468 569.637 474.704 568.236 470.876L565.857 464.366C560.18 448.812 554.307 432.73 547.771 417.678C545.579 412.634 543.559 406 541.419 398.973C537.744 386.915 533.581 373.245 527.871 366.129C521.702 358.439 509.558 352.297 498.845 346.88C494.462 344.663 490.322 342.571 486.708 340.455C477.972 335.343 469.942 330.043 462.09 324.347Z" fill="url(#paint24_linear_381_59)"/>
<path d="M1083.44 805.009C1097.04 814.877 1107.18 827.228 1109.25 837.736C1114.75 865.614 1098.02 934.18 1073.44 984.471C1063.07 1005.68 1043.5 1012.22 1016.83 1003.39C991.61 995.028 970.624 975.721 959.266 950.419C951.614 933.383 942.729 909.432 943.848 892.077C945.982 859.024 987.471 812.679 1015.33 793.275C1026.53 785.479 1042.96 785.331 1061.61 792.857C1069.36 795.982 1076.81 800.2 1083.44 805.009ZM993.708 987.395C1001.12 992.772 1009.29 997.011 1017.99 999.892C1043.01 1008.18 1060.55 1002.45 1070.13 982.85C1094.42 933.155 1111.01 865.675 1105.64 838.447C1102.77 823.918 1082.83 805.39 1060.23 796.268C1050.12 792.186 1031.13 786.762 1017.44 796.292C989.583 815.691 949.506 861.602 947.528 892.309C946.456 908.911 955.148 932.252 962.624 948.908C969.641 964.533 980.459 977.783 993.708 987.395Z" fill="url(#paint25_linear_381_59)"/>
<path d="M803.441 197.914C808.096 201.29 811.774 205.182 813.937 209.627C817.68 217.329 818.288 224.459 815.74 230.817C810.047 245 789.835 252.51 775.074 257.99C771.599 259.283 768.313 260.5 765.666 261.645C747.278 269.587 747.158 279.885 747.015 291.805C746.961 296.411 746.905 301.173 745.734 305.912C744.908 309.243 742.261 311.545 738.818 311.922C735.322 312.305 732.05 310.534 730.497 307.399C727.669 301.717 725.682 295.547 723.755 289.584C720.172 278.487 716.79 268.005 708.487 260.385C696.958 249.821 670.563 238.474 637.848 230.054C626.603 228.806 619.713 225.733 616.184 220.386C613.027 215.612 612.715 209.259 615.224 200.957C621.173 181.283 634.722 172.392 657.858 172.974C670.671 173.293 683.409 174.937 695.726 176.523C709.966 178.362 724.691 180.263 739.658 180.138C755.541 180.005 786.172 185.391 803.441 197.914ZM735.19 307.439C736.199 308.171 737.405 308.373 738.417 308.263C740.306 308.054 741.707 306.846 742.158 305.028C743.225 300.702 743.279 296.16 743.333 291.763C743.474 279.665 743.624 267.156 764.204 258.267C766.938 257.082 770.268 255.848 773.793 254.542C787.908 249.301 807.24 242.122 812.323 229.451C814.501 224.023 813.947 218.066 810.626 211.239C801.594 192.649 760.281 183.65 739.691 183.821C724.471 183.95 709.621 182.034 695.259 180.18C683.033 178.604 670.389 176.973 657.769 176.657C636.255 176.12 624.223 183.943 618.751 202.031C616.576 209.217 616.745 214.563 619.258 218.364C622.161 222.742 628.236 225.303 638.383 226.415L638.641 226.465C671.971 235.035 699.03 246.715 710.975 257.681C719.993 265.955 723.687 277.394 727.259 288.46C729.141 294.295 731.091 300.331 733.792 305.767C734.16 306.496 734.646 307.045 735.19 307.439Z" fill="url(#paint26_linear_381_59)"/>
<path d="M286.237 727.719C298.306 736.471 298.804 753.503 299.179 766.435L299.215 767.638C300.393 806.64 314.498 864.554 342.698 899.554C348.617 906.897 355.002 913.566 361.176 920.02C368.57 927.746 376.216 935.731 383.195 944.993C386.191 948.972 386.583 954.176 384.213 958.574C381.899 962.863 377.462 965.34 372.628 965.033C359.212 964.184 343.43 952.294 330.773 942.758C326.119 939.25 322.104 936.226 319.084 934.439C310.019 929.076 297.471 927.098 285.341 925.186C271.637 923.025 258.685 920.984 249.627 914.413C249.587 914.385 249.547 914.355 249.505 914.324L249.116 913.979C240.311 904.609 243.197 888.809 245.743 874.867C246.886 868.617 247.966 862.714 247.872 858.105C247.515 840.575 240.158 826.607 232.367 811.818C229.894 807.119 227.2 802.565 224.591 798.164C217.285 785.822 210.381 774.162 207.795 759.34C207.631 758.404 207.394 757.304 207.136 756.1C205.721 749.489 203.778 740.432 208.058 735.547C215.338 727.249 220.296 731.282 223.584 733.928C225.433 735.425 227.184 736.842 229.472 736.873C236.319 736.957 242.709 733.6 249.472 730.048C258.664 725.22 268.168 720.228 279.254 724.113C281.934 725.049 284.245 726.271 286.237 727.719ZM341.903 943.97C352.04 951.325 363.738 958.795 372.987 959.379C375.627 959.546 377.959 958.239 379.227 955.886C380.252 953.983 380.644 951.018 378.673 948.4C371.893 939.403 364.367 931.539 357.086 923.933C350.829 917.395 344.357 910.636 338.289 903.106C309.27 867.087 294.758 807.722 293.554 767.807L293.519 766.599C293.104 752.427 292.597 734.789 277.381 729.455C268.623 726.386 260.6 730.599 252.108 735.059C245.016 738.785 237.683 742.634 229.404 742.534C225.149 742.484 222.307 740.185 220.019 738.327C216.776 735.704 216.004 735.078 212.325 739.277C209.917 742.022 211.646 750.09 212.679 754.911C212.953 756.194 213.205 757.365 213.378 758.364C215.784 772.166 222.432 783.391 229.467 795.279C232.107 799.741 234.838 804.353 237.38 809.176C245.488 824.575 253.152 839.121 253.532 857.987C253.638 863.167 252.511 869.344 251.317 875.883C249.031 888.398 246.443 902.568 253.072 909.911C261.034 915.619 273.272 917.545 286.226 919.589C298.884 921.583 311.973 923.645 321.975 929.561C325.267 931.504 329.397 934.624 334.187 938.23C336.592 940.048 339.195 942.007 341.903 943.97Z" fill="url(#paint27_linear_381_59)"/>
</g>
</g>
<defs>
<linearGradient id="paint0_linear_381_59" x1="832.256" y1="-439.912" x2="199.65" y2="823.679" gradientUnits="userSpaceOnUse">
<stop stop-color="#85613C"/>
<stop offset="0.1828" stop-color="#DCBA62"/>
<stop offset="0.459" stop-color="#896935"/>
<stop offset="0.7857" stop-color="#DCBA62"/>
<stop offset="0.8387" stop-color="#DCBA62"/>
<stop offset="1" stop-color="#816131"/>
</linearGradient>
<linearGradient id="paint1_linear_381_59" x1="802.4" y1="-608.666" x2="383.948" y2="251.266" gradientUnits="userSpaceOnUse">
<stop stop-color="#85613C"/>
<stop offset="0.1828" stop-color="#DCBA62"/>
<stop offset="0.459" stop-color="#896935"/>
<stop offset="0.7857" stop-color="#DCBA62"/>
<stop offset="0.8387" stop-color="#DCBA62"/>
<stop offset="1" stop-color="#816131"/>
</linearGradient>
<linearGradient id="paint2_linear_381_59" x1="-4.08679" y1="382.602" x2="-492.279" y2="1106.88" gradientUnits="userSpaceOnUse">
<stop stop-color="#85613C"/>
<stop offset="0.1828" stop-color="#DCBA62"/>
<stop offset="0.459" stop-color="#896935"/>
<stop offset="0.7857" stop-color="#DCBA62"/>
<stop offset="0.8387" stop-color="#DCBA62"/>
<stop offset="1" stop-color="#816131"/>
</linearGradient>
<linearGradient id="paint3_linear_381_59" x1="62.9983" y1="116.624" x2="-122.377" y2="647.486" gradientUnits="userSpaceOnUse">
<stop stop-color="#85613C"/>
<stop offset="0.1828" stop-color="#DCBA62"/>
<stop offset="0.459" stop-color="#896935"/>
<stop offset="0.7857" stop-color="#DCBA62"/>
<stop offset="0.8387" stop-color="#DCBA62"/>
<stop offset="1" stop-color="#816131"/>
</linearGradient>
<linearGradient id="paint4_linear_381_59" x1="44.9017" y1="164.347" x2="-94.1518" y2="616.648" gradientUnits="userSpaceOnUse">
<stop stop-color="#85613C"/>
<stop offset="0.1828" stop-color="#DCBA62"/>
<stop offset="0.459" stop-color="#896935"/>
<stop offset="0.7857" stop-color="#DCBA62"/>
<stop offset="0.8387" stop-color="#DCBA62"/>
<stop offset="1" stop-color="#816131"/>
</linearGradient>
<linearGradient id="paint5_linear_381_59" x1="1799.91" y1="731.17" x2="1604.59" y2="1063.22" gradientUnits="userSpaceOnUse">
<stop stop-color="#85613C"/>
<stop offset="0.1828" stop-color="#DCBA62"/>
<stop offset="0.459" stop-color="#896935"/>
<stop offset="0.7857" stop-color="#DCBA62"/>
<stop offset="0.8387" stop-color="#DCBA62"/>
<stop offset="1" stop-color="#816131"/>
</linearGradient>
<linearGradient id="paint6_linear_381_59" x1="1794.76" y1="800.433" x2="1658.38" y2="1052.58" gradientUnits="userSpaceOnUse">
<stop stop-color="#85613C"/>
<stop offset="0.1828" stop-color="#DCBA62"/>
<stop offset="0.459" stop-color="#896935"/>
<stop offset="0.7857" stop-color="#DCBA62"/>
<stop offset="0.8387" stop-color="#DCBA62"/>
<stop offset="1" stop-color="#816131"/>
</linearGradient>
<linearGradient id="paint7_linear_381_59" x1="-12.1629" y1="-246.236" x2="-176.882" y2="57.3159" gradientUnits="userSpaceOnUse">
<stop stop-color="#85613C"/>
<stop offset="0.1828" stop-color="#DCBA62"/>
<stop offset="0.459" stop-color="#896935"/>
<stop offset="0.7857" stop-color="#DCBA62"/>
<stop offset="0.8387" stop-color="#DCBA62"/>
<stop offset="1" stop-color="#816131"/>
</linearGradient>
<linearGradient id="paint8_linear_381_59" x1="1108.46" y1="365.177" x2="965.554" y2="754.678" gradientUnits="userSpaceOnUse">
<stop stop-color="#85613C"/>
<stop offset="0.1828" stop-color="#DCBA62"/>
<stop offset="0.459" stop-color="#896935"/>
<stop offset="0.7857" stop-color="#DCBA62"/>
<stop offset="0.8387" stop-color="#DCBA62"/>
<stop offset="1" stop-color="#816131"/>
</linearGradient>
<linearGradient id="paint9_linear_381_59" x1="1165.23" y1="457.133" x2="1070.93" y2="620.107" gradientUnits="userSpaceOnUse">
<stop stop-color="#85613C"/>
<stop offset="0.1828" stop-color="#DCBA62"/>
<stop offset="0.459" stop-color="#896935"/>
<stop offset="0.7857" stop-color="#DCBA62"/>
<stop offset="0.8387" stop-color="#DCBA62"/>
<stop offset="1" stop-color="#816131"/>
</linearGradient>
<linearGradient id="paint10_linear_381_59" x1="1046.58" y1="789.154" x2="953.477" y2="883.161" gradientUnits="userSpaceOnUse">
<stop stop-color="#85613C"/>
<stop offset="0.1828" stop-color="#DCBA62"/>
<stop offset="0.459" stop-color="#896935"/>
<stop offset="0.7857" stop-color="#DCBA62"/>
<stop offset="0.8387" stop-color="#DCBA62"/>
<stop offset="1" stop-color="#816131"/>
</linearGradient>
<linearGradient id="paint11_linear_381_59" x1="518.346" y1="305.199" x2="381.482" y2="469.393" gradientUnits="userSpaceOnUse">
<stop stop-color="#85613C"/>
<stop offset="0.1828" stop-color="#DCBA62"/>
<stop offset="0.459" stop-color="#896935"/>
<stop offset="0.7857" stop-color="#DCBA62"/>
<stop offset="0.8387" stop-color="#DCBA62"/>
<stop offset="1" stop-color="#816131"/>
</linearGradient>
<linearGradient id="paint12_linear_381_59" x1="491.262" y1="7.76" x2="450.983" y2="92.3268" gradientUnits="userSpaceOnUse">
<stop stop-color="#85613C"/>
<stop offset="0.1828" stop-color="#DCBA62"/>
<stop offset="0.459" stop-color="#896935"/>
<stop offset="0.7857" stop-color="#DCBA62"/>
<stop offset="0.8387" stop-color="#DCBA62"/>
<stop offset="1" stop-color="#816131"/>
</linearGradient>
<linearGradient id="paint13_linear_381_59" x1="128.358" y1="414.356" x2="105.575" y2="483.113" gradientUnits="userSpaceOnUse">
<stop stop-color="#85613C"/>
<stop offset="0.1828" stop-color="#DCBA62"/>
<stop offset="0.459" stop-color="#896935"/>
<stop offset="0.7857" stop-color="#DCBA62"/>
<stop offset="0.8387" stop-color="#DCBA62"/>
<stop offset="1" stop-color="#816131"/>
</linearGradient>
<linearGradient id="paint14_linear_381_59" x1="707.231" y1="691.754" x2="635.278" y2="898.139" gradientUnits="userSpaceOnUse">
<stop stop-color="#85613C"/>
<stop offset="0.1828" stop-color="#DCBA62"/>
<stop offset="0.459" stop-color="#896935"/>
<stop offset="0.7857" stop-color="#DCBA62"/>
<stop offset="0.8387" stop-color="#DCBA62"/>
<stop offset="1" stop-color="#816131"/>
</linearGradient>
<linearGradient id="paint15_linear_381_59" x1="887.121" y1="433.869" x2="743.114" y2="657.902" gradientUnits="userSpaceOnUse">
<stop stop-color="#85613C"/>
<stop offset="0.1828" stop-color="#DCBA62"/>
<stop offset="0.459" stop-color="#896935"/>
<stop offset="0.7857" stop-color="#DCBA62"/>
<stop offset="0.8387" stop-color="#DCBA62"/>
<stop offset="1" stop-color="#816131"/>
</linearGradient>
<linearGradient id="paint16_linear_381_59" x1="860.564" y1="-36.3797" x2="391.184" y2="820.203" gradientUnits="userSpaceOnUse">
<stop stop-color="#85613C"/>
<stop offset="0.1828" stop-color="#DCBA62"/>
<stop offset="0.459" stop-color="#896935"/>
<stop offset="0.7857" stop-color="#DCBA62"/>
<stop offset="0.8387" stop-color="#DCBA62"/>
<stop offset="1" stop-color="#816131"/>
</linearGradient>
<linearGradient id="paint17_linear_381_59" x1="145.567" y1="341.137" x2="71.3734" y2="540.768" gradientUnits="userSpaceOnUse">
<stop stop-color="#85613C"/>
<stop offset="0.1828" stop-color="#DCBA62"/>
<stop offset="0.459" stop-color="#896935"/>
<stop offset="0.7857" stop-color="#DCBA62"/>
<stop offset="0.8387" stop-color="#DCBA62"/>
<stop offset="1" stop-color="#816131"/>
</linearGradient>
<linearGradient id="paint18_linear_381_59" x1="663.048" y1="769.299" x2="626.296" y2="847.405" gradientUnits="userSpaceOnUse">
<stop stop-color="#85613C"/>
<stop offset="0.1828" stop-color="#DCBA62"/>
<stop offset="0.459" stop-color="#896935"/>
<stop offset="0.7857" stop-color="#DCBA62"/>
<stop offset="0.8387" stop-color="#DCBA62"/>
<stop offset="1" stop-color="#816131"/>
</linearGradient>
<linearGradient id="paint19_linear_381_59" x1="1744.67" y1="853.269" x2="1643.83" y2="1014.04" gradientUnits="userSpaceOnUse">
<stop stop-color="#85613C"/>
<stop offset="0.1828" stop-color="#DCBA62"/>
<stop offset="0.459" stop-color="#896935"/>
<stop offset="0.7857" stop-color="#DCBA62"/>
<stop offset="0.8387" stop-color="#DCBA62"/>
<stop offset="1" stop-color="#816131"/>
</linearGradient>
<linearGradient id="paint20_linear_381_59" x1="859.128" y1="496.736" x2="772.068" y2="634.112" gradientUnits="userSpaceOnUse">
<stop stop-color="#85613C"/>
<stop offset="0.1828" stop-color="#DCBA62"/>
<stop offset="0.459" stop-color="#896935"/>
<stop offset="0.7857" stop-color="#DCBA62"/>
<stop offset="0.8387" stop-color="#DCBA62"/>
<stop offset="1" stop-color="#816131"/>
</linearGradient>
<linearGradient id="paint21_linear_381_59" x1="1471.32" y1="640.548" x2="1195.67" y2="899.78" gradientUnits="userSpaceOnUse">
<stop stop-color="#85613C"/>
<stop offset="0.1828" stop-color="#DCBA62"/>
<stop offset="0.459" stop-color="#896935"/>
<stop offset="0.7857" stop-color="#DCBA62"/>
<stop offset="0.8387" stop-color="#DCBA62"/>
<stop offset="1" stop-color="#816131"/>
</linearGradient>
<linearGradient id="paint22_linear_381_59" x1="1417.49" y1="786.585" x2="1332.08" y2="870.934" gradientUnits="userSpaceOnUse">
<stop stop-color="#85613C"/>
<stop offset="0.1828" stop-color="#DCBA62"/>
<stop offset="0.459" stop-color="#896935"/>
<stop offset="0.7857" stop-color="#DCBA62"/>
<stop offset="0.8387" stop-color="#DCBA62"/>
<stop offset="1" stop-color="#816131"/>
</linearGradient>
<linearGradient id="paint23_linear_381_59" x1="1440.98" y1="716.572" x2="1254.86" y2="889.871" gradientUnits="userSpaceOnUse">
<stop stop-color="#85613C"/>
<stop offset="0.1828" stop-color="#DCBA62"/>
<stop offset="0.459" stop-color="#896935"/>
<stop offset="0.7857" stop-color="#DCBA62"/>
<stop offset="0.8387" stop-color="#DCBA62"/>
<stop offset="1" stop-color="#816131"/>
</linearGradient>
<linearGradient id="paint24_linear_381_59" x1="499.583" y1="103.069" x2="221.243" y2="433.257" gradientUnits="userSpaceOnUse">
<stop stop-color="#85613C"/>
<stop offset="0.1828" stop-color="#DCBA62"/>
<stop offset="0.459" stop-color="#896935"/>
<stop offset="0.7857" stop-color="#DCBA62"/>
<stop offset="0.8387" stop-color="#DCBA62"/>
<stop offset="1" stop-color="#816131"/>
</linearGradient>
<linearGradient id="paint25_linear_381_59" x1="1063.34" y1="752.711" x2="932.67" y2="917.085" gradientUnits="userSpaceOnUse">
<stop stop-color="#85613C"/>
<stop offset="0.1828" stop-color="#DCBA62"/>
<stop offset="0.459" stop-color="#896935"/>
<stop offset="0.7857" stop-color="#DCBA62"/>
<stop offset="0.8387" stop-color="#DCBA62"/>
<stop offset="1" stop-color="#816131"/>
</linearGradient>
<linearGradient id="paint26_linear_381_59" x1="759.842" y1="151.067" x2="700.222" y2="296.171" gradientUnits="userSpaceOnUse">
<stop stop-color="#85613C"/>
<stop offset="0.1828" stop-color="#DCBA62"/>
<stop offset="0.459" stop-color="#896935"/>
<stop offset="0.7857" stop-color="#DCBA62"/>
<stop offset="0.8387" stop-color="#DCBA62"/>
<stop offset="1" stop-color="#816131"/>
</linearGradient>
<linearGradient id="paint27_linear_381_59" x1="334.914" y1="684.583" x2="190.349" y2="863.225" gradientUnits="userSpaceOnUse">
<stop stop-color="#85613C"/>
<stop offset="0.1828" stop-color="#DCBA62"/>
<stop offset="0.459" stop-color="#896935"/>
<stop offset="0.7857" stop-color="#DCBA62"/>
<stop offset="0.8387" stop-color="#DCBA62"/>
<stop offset="1" stop-color="#816131"/>
</linearGradient>
<clipPath id="clip0_381_59">
<rect width="1760" height="1173" fill="white" transform="translate(0 -131)"/>
</clipPath>
</defs>
</svg>
