<svg width="308" height="308" viewBox="0 0 308 308" fill="none" xmlns="http://www.w3.org/2000/svg">
<path d="M74.883 0.114014H66.3416V8.65548H74.883V0.114014Z" fill="#082B18"/>
<path d="M83.1755 0.114014H74.634V8.65548H83.1755V0.114014Z" fill="#082B18"/>
<path d="M108.054 0.114014H99.5122V8.65548H108.054V0.114014Z" fill="#082B18"/>
<path d="M132.932 0.114014H124.39V8.65548H132.932V0.114014Z" fill="#082B18"/>
<path d="M141.224 0.114014H132.683V8.65548H141.224V0.114014Z" fill="#082B18"/>
<path d="M149.517 0.114014H140.976V8.65548H149.517V0.114014Z" fill="#082B18"/>
<path d="M157.81 0.114014H149.268V8.65548H157.81V0.114014Z" fill="#082B18"/>
<path d="M166.102 0.114014H157.561V8.65548H166.102V0.114014Z" fill="#082B18"/>
<path d="M174.395 0.114014H165.854V8.65548H174.395V0.114014Z" fill="#082B18"/>
<path d="M190.98 0.114014H182.439V8.65548H190.98V0.114014Z" fill="#082B18"/>
<path d="M199.273 0.114014H190.732V8.65548H199.273V0.114014Z" fill="#082B18"/>
<path d="M74.883 8.40674H66.3416V16.9482H74.883V8.40674Z" fill="#082B18"/>
<path d="M99.7609 8.40674H91.2195V16.9482H99.7609V8.40674Z" fill="#082B18"/>
<path d="M132.932 8.40674H124.39V16.9482H132.932V8.40674Z" fill="#082B18"/>
<path d="M141.224 8.40674H132.683V16.9482H141.224V8.40674Z" fill="#082B18"/>
<path d="M199.273 8.40674H190.732V16.9482H199.273V8.40674Z" fill="#082B18"/>
<path d="M215.859 8.40674H207.317V16.9482H215.859V8.40674Z" fill="#082B18"/>
<path d="M232.444 8.40674H223.902V16.9482H232.444V8.40674Z" fill="#082B18"/>
<path d="M240.737 8.40674H232.195V16.9482H240.737V8.40674Z" fill="#082B18"/>
<path d="M74.883 16.6995H66.3416V25.2409H74.883V16.6995Z" fill="#082B18"/>
<path d="M83.1755 16.6995H74.634V25.2409H83.1755V16.6995Z" fill="#082B18"/>
<path d="M108.054 16.6995H99.5122V25.2409H108.054V16.6995Z" fill="#082B18"/>
<path d="M124.639 16.6995H116.098V25.2409H124.639V16.6995Z" fill="#082B18"/>
<path d="M141.224 16.6995H132.683V25.2409H141.224V16.6995Z" fill="#082B18"/>
<path d="M157.81 16.6995H149.268V25.2409H157.81V16.6995Z" fill="#082B18"/>
<path d="M166.102 16.6995H157.561V25.2409H166.102V16.6995Z" fill="#082B18"/>
<path d="M182.688 16.6995H174.146V25.2409H182.688V16.6995Z" fill="#082B18"/>
<path d="M207.566 16.6995H199.024V25.2409H207.566V16.6995Z" fill="#082B18"/>
<path d="M224.151 16.6995H215.61V25.2409H224.151V16.6995Z" fill="#082B18"/>
<path d="M232.444 16.6995H223.902V25.2409H232.444V16.6995Z" fill="#082B18"/>
<path d="M83.1755 24.9919H74.634V33.5334H83.1755V24.9919Z" fill="#082B18"/>
<path d="M124.639 24.9919H116.098V33.5334H124.639V24.9919Z" fill="#082B18"/>
<path d="M141.224 24.9919H132.683V33.5334H141.224V24.9919Z" fill="#082B18"/>
<path d="M149.517 24.9919H140.976V33.5334H149.517V24.9919Z" fill="#082B18"/>
<path d="M174.395 24.9919H165.854V33.5334H174.395V24.9919Z" fill="#082B18"/>
<path d="M215.859 24.9919H207.317V33.5334H215.859V24.9919Z" fill="#082B18"/>
<path d="M224.151 24.9919H215.61V33.5334H224.151V24.9919Z" fill="#082B18"/>
<path d="M83.1755 33.2847H74.634V41.8261H83.1755V33.2847Z" fill="#082B18"/>
<path d="M141.224 33.2847H132.683V41.8261H141.224V33.2847Z" fill="#082B18"/>
<path d="M157.81 33.2847H149.268V41.8261H157.81V33.2847Z" fill="#082B18"/>
<path d="M166.102 33.2847H157.561V41.8261H166.102V33.2847Z" fill="#082B18"/>
<path d="M174.395 33.2847H165.854V41.8261H174.395V33.2847Z" fill="#082B18"/>
<path d="M190.98 33.2847H182.439V41.8261H190.98V33.2847Z" fill="#082B18"/>
<path d="M74.883 41.5774H66.3416V50.1189H74.883V41.5774Z" fill="#082B18"/>
<path d="M91.4682 41.5774H82.9268V50.1189H91.4682V41.5774Z" fill="#082B18"/>
<path d="M108.054 41.5774H99.5122V50.1189H108.054V41.5774Z" fill="#082B18"/>
<path d="M116.346 41.5774H107.805V50.1189H116.346V41.5774Z" fill="#082B18"/>
<path d="M124.639 41.5774H116.098V50.1189H124.639V41.5774Z" fill="#082B18"/>
<path d="M141.224 41.5774H132.683V50.1189H141.224V41.5774Z" fill="#082B18"/>
<path d="M149.517 41.5774H140.976V50.1189H149.517V41.5774Z" fill="#082B18"/>
<path d="M157.81 41.5774H149.268V50.1189H157.81V41.5774Z" fill="#082B18"/>
<path d="M166.102 41.5774H157.561V50.1189H166.102V41.5774Z" fill="#082B18"/>
<path d="M174.395 41.5774H165.854V50.1189H174.395V41.5774Z" fill="#082B18"/>
<path d="M182.688 41.5774H174.146V50.1189H182.688V41.5774Z" fill="#082B18"/>
<path d="M190.98 41.5774H182.439V50.1189H190.98V41.5774Z" fill="#082B18"/>
<path d="M224.151 41.5774H215.61V50.1189H224.151V41.5774Z" fill="#082B18"/>
<path d="M232.444 41.5774H223.902V50.1189H232.444V41.5774Z" fill="#082B18"/>
<path d="M240.737 41.5774H232.195V50.1189H240.737V41.5774Z" fill="#082B18"/>
<path d="M74.883 49.8701H66.3416V58.4116H74.883V49.8701Z" fill="#082B18"/>
<path d="M91.4682 49.8701H82.9268V58.4116H91.4682V49.8701Z" fill="#082B18"/>
<path d="M108.054 49.8701H99.5122V58.4116H108.054V49.8701Z" fill="#082B18"/>
<path d="M124.639 49.8701H116.098V58.4116H124.639V49.8701Z" fill="#082B18"/>
<path d="M141.224 49.8701H132.683V58.4116H141.224V49.8701Z" fill="#082B18"/>
<path d="M157.81 49.8701H149.268V58.4116H157.81V49.8701Z" fill="#082B18"/>
<path d="M174.395 49.8701H165.854V58.4116H174.395V49.8701Z" fill="#082B18"/>
<path d="M190.98 49.8701H182.439V58.4116H190.98V49.8701Z" fill="#082B18"/>
<path d="M207.566 49.8701H199.024V58.4116H207.566V49.8701Z" fill="#082B18"/>
<path d="M224.151 49.8701H215.61V58.4116H224.151V49.8701Z" fill="#082B18"/>
<path d="M240.737 49.8701H232.195V58.4116H240.737V49.8701Z" fill="#082B18"/>
<path d="M74.883 58.1628H66.3416V66.7043H74.883V58.1628Z" fill="#082B18"/>
<path d="M83.1755 58.1628H74.634V66.7043H83.1755V58.1628Z" fill="#082B18"/>
<path d="M91.4682 58.1628H82.9268V66.7043H91.4682V58.1628Z" fill="#082B18"/>
<path d="M99.7609 58.1628H91.2195V66.7043H99.7609V58.1628Z" fill="#082B18"/>
<path d="M124.639 58.1628H116.098V66.7043H124.639V58.1628Z" fill="#082B18"/>
<path d="M141.224 58.1628H132.683V66.7043H141.224V58.1628Z" fill="#082B18"/>
<path d="M157.81 58.1628H149.268V66.7043H157.81V58.1628Z" fill="#082B18"/>
<path d="M166.102 58.1628H157.561V66.7043H166.102V58.1628Z" fill="#082B18"/>
<path d="M182.688 58.1628H174.146V66.7043H182.688V58.1628Z" fill="#082B18"/>
<path d="M207.566 58.1628H199.024V66.7043H207.566V58.1628Z" fill="#082B18"/>
<path d="M240.737 58.1628H232.195V66.7043H240.737V58.1628Z" fill="#082B18"/>
<path d="M25.1269 66.4556H16.5854V74.997H25.1269V66.4556Z" fill="#082B18"/>
<path d="M33.4194 66.4556H24.8779V74.997H33.4194V66.4556Z" fill="#082B18"/>
<path d="M41.7121 66.4556H33.1707V74.997H41.7121V66.4556Z" fill="#082B18"/>
<path d="M58.2976 66.4556H49.7561V74.997H58.2976V66.4556Z" fill="#082B18"/>
<path d="M74.883 66.4556H66.3416V74.997H74.883V66.4556Z" fill="#082B18"/>
<path d="M83.1755 66.4556H74.634V74.997H83.1755V66.4556Z" fill="#082B18"/>
<path d="M91.4682 66.4556H82.9268V74.997H91.4682V66.4556Z" fill="#082B18"/>
<path d="M99.7609 66.4556H91.2195V74.997H99.7609V66.4556Z" fill="#082B18"/>
<path d="M108.054 66.4556H99.5122V74.997H108.054V66.4556Z" fill="#082B18"/>
<path d="M116.346 66.4556H107.805V74.997H116.346V66.4556Z" fill="#082B18"/>
<path d="M124.639 66.4556H116.098V74.997H124.639V66.4556Z" fill="#082B18"/>
<path d="M141.224 66.4556H132.683V74.997H141.224V66.4556Z" fill="#082B18"/>
<path d="M149.517 66.4556H140.976V74.997H149.517V66.4556Z" fill="#082B18"/>
<path d="M190.98 66.4556H182.439V74.997H190.98V66.4556Z" fill="#082B18"/>
<path d="M199.273 66.4556H190.732V74.997H199.273V66.4556Z" fill="#082B18"/>
<path d="M224.151 66.4556H215.61V74.997H224.151V66.4556Z" fill="#082B18"/>
<path d="M240.737 66.4556H232.195V74.997H240.737V66.4556Z" fill="#082B18"/>
<path d="M249.029 66.4556H240.488V74.997H249.029V66.4556Z" fill="#082B18"/>
<path d="M257.322 66.4556H248.781V74.997H257.322V66.4556Z" fill="#082B18"/>
<path d="M265.615 66.4556H257.073V74.997H265.615V66.4556Z" fill="#082B18"/>
<path d="M290.493 66.4556H281.951V74.997H290.493V66.4556Z" fill="#082B18"/>
<path d="M298.785 66.4556H290.244V74.997H298.785V66.4556Z" fill="#082B18"/>
<path d="M307.078 66.4556H298.537V74.997H307.078V66.4556Z" fill="#082B18"/>
<path d="M16.8342 74.748H8.29272V83.2895H16.8342V74.748Z" fill="#082B18"/>
<path d="M41.7121 74.748H33.1707V83.2895H41.7121V74.748Z" fill="#082B18"/>
<path d="M50.0048 74.748H41.4634V83.2895H50.0048V74.748Z" fill="#082B18"/>
<path d="M66.5903 74.748H58.0488V83.2895H66.5903V74.748Z" fill="#082B18"/>
<path d="M74.883 74.748H66.3416V83.2895H74.883V74.748Z" fill="#082B18"/>
<path d="M91.4682 74.748H82.9268V83.2895H91.4682V74.748Z" fill="#082B18"/>
<path d="M108.054 74.748H99.5122V83.2895H108.054V74.748Z" fill="#082B18"/>
<path d="M132.932 74.748H124.39V83.2895H132.932V74.748Z" fill="#082B18"/>
<path d="M149.517 74.748H140.976V83.2895H149.517V74.748Z" fill="#082B18"/>
<path d="M215.859 74.748H207.317V83.2895H215.859V74.748Z" fill="#082B18"/>
<path d="M224.151 74.748H215.61V83.2895H224.151V74.748Z" fill="#082B18"/>
<path d="M257.322 74.748H248.781V83.2895H257.322V74.748Z" fill="#082B18"/>
<path d="M265.615 74.748H257.073V83.2895H265.615V74.748Z" fill="#082B18"/>
<path d="M290.493 74.748H281.951V83.2895H290.493V74.748Z" fill="#082B18"/>
<path d="M16.8342 83.0408H8.29272V91.5822H16.8342V83.0408Z" fill="#082B18"/>
<path d="M25.1269 83.0408H16.5854V91.5822H25.1269V83.0408Z" fill="#082B18"/>
<path d="M33.4194 83.0408H24.8779V91.5822H33.4194V83.0408Z" fill="#082B18"/>
<path d="M50.0048 83.0408H41.4634V91.5822H50.0048V83.0408Z" fill="#082B18"/>
<path d="M58.2976 83.0408H49.7561V91.5822H58.2976V83.0408Z" fill="#082B18"/>
<path d="M74.883 83.0408H66.3416V91.5822H74.883V83.0408Z" fill="#082B18"/>
<path d="M91.4682 83.0408H82.9268V91.5822H91.4682V83.0408Z" fill="#082B18"/>
<path d="M99.7609 83.0408H91.2195V91.5822H99.7609V83.0408Z" fill="#082B18"/>
<path d="M108.054 83.0408H99.5122V91.5822H108.054V83.0408Z" fill="#082B18"/>
<path d="M141.224 83.0408H132.683V91.5822H141.224V83.0408Z" fill="#082B18"/>
<path d="M157.81 83.0408H149.268V91.5822H157.81V83.0408Z" fill="#082B18"/>
<path d="M174.395 83.0408H165.854V91.5822H174.395V83.0408Z" fill="#082B18"/>
<path d="M182.688 83.0408H174.146V91.5822H182.688V83.0408Z" fill="#082B18"/>
<path d="M190.98 83.0408H182.439V91.5822H190.98V83.0408Z" fill="#082B18"/>
<path d="M215.859 83.0408H207.317V91.5822H215.859V83.0408Z" fill="#082B18"/>
<path d="M224.151 83.0408H215.61V91.5822H224.151V83.0408Z" fill="#082B18"/>
<path d="M232.444 83.0408H223.902V91.5822H232.444V83.0408Z" fill="#082B18"/>
<path d="M240.737 83.0408H232.195V91.5822H240.737V83.0408Z" fill="#082B18"/>
<path d="M257.322 83.0408H248.781V91.5822H257.322V83.0408Z" fill="#082B18"/>
<path d="M307.078 83.0408H298.537V91.5822H307.078V83.0408Z" fill="#082B18"/>
<path d="M16.8342 91.3335H8.29272V99.875H16.8342V91.3335Z" fill="#082B18"/>
<path d="M25.1269 91.3335H16.5854V99.875H25.1269V91.3335Z" fill="#082B18"/>
<path d="M33.4194 91.3335H24.8779V99.875H33.4194V91.3335Z" fill="#082B18"/>
<path d="M41.7121 91.3335H33.1707V99.875H41.7121V91.3335Z" fill="#082B18"/>
<path d="M50.0048 91.3335H41.4634V99.875H50.0048V91.3335Z" fill="#082B18"/>
<path d="M66.5903 91.3335H58.0488V99.875H66.5903V91.3335Z" fill="#082B18"/>
<path d="M74.883 91.3335H66.3416V99.875H74.883V91.3335Z" fill="#082B18"/>
<path d="M83.1755 91.3335H74.634V99.875H83.1755V91.3335Z" fill="#082B18"/>
<path d="M91.4682 91.3335H82.9268V99.875H91.4682V91.3335Z" fill="#082B18"/>
<path d="M116.346 91.3335H107.805V99.875H116.346V91.3335Z" fill="#082B18"/>
<path d="M132.932 91.3335H124.39V99.875H132.932V91.3335Z" fill="#082B18"/>
<path d="M141.224 91.3335H132.683V99.875H141.224V91.3335Z" fill="#082B18"/>
<path d="M166.102 91.3335H157.561V99.875H166.102V91.3335Z" fill="#082B18"/>
<path d="M190.98 91.3335H182.439V99.875H190.98V91.3335Z" fill="#082B18"/>
<path d="M199.273 91.3335H190.732V99.875H199.273V91.3335Z" fill="#082B18"/>
<path d="M207.566 91.3335H199.024V99.875H207.566V91.3335Z" fill="#082B18"/>
<path d="M224.151 91.3335H215.61V99.875H224.151V91.3335Z" fill="#082B18"/>
<path d="M232.444 91.3335H223.902V99.875H232.444V91.3335Z" fill="#082B18"/>
<path d="M240.737 91.3335H232.195V99.875H240.737V91.3335Z" fill="#082B18"/>
<path d="M257.322 91.3335H248.781V99.875H257.322V91.3335Z" fill="#082B18"/>
<path d="M273.907 91.3335H265.366V99.875H273.907V91.3335Z" fill="#082B18"/>
<path d="M298.785 91.3335H290.244V99.875H298.785V91.3335Z" fill="#082B18"/>
<path d="M307.078 91.3335H298.537V99.875H307.078V91.3335Z" fill="#082B18"/>
<path d="M8.54146 99.6262H0V108.168H8.54146V99.6262Z" fill="#082B18"/>
<path d="M16.8342 99.6262H8.29272V108.168H16.8342V99.6262Z" fill="#082B18"/>
<path d="M33.4194 99.6262H24.8779V108.168H33.4194V99.6262Z" fill="#082B18"/>
<path d="M50.0048 99.6262H41.4634V108.168H50.0048V99.6262Z" fill="#082B18"/>
<path d="M58.2976 99.6262H49.7561V108.168H58.2976V99.6262Z" fill="#082B18"/>
<path d="M66.5903 99.6262H58.0488V108.168H66.5903V99.6262Z" fill="#082B18"/>
<path d="M91.4682 99.6262H82.9268V108.168H91.4682V99.6262Z" fill="#082B18"/>
<path d="M116.346 99.6262H107.805V108.168H116.346V99.6262Z" fill="#082B18"/>
<path d="M124.639 99.6262H116.098V108.168H124.639V99.6262Z" fill="#082B18"/>
<path d="M132.932 99.6262H124.39V108.168H132.932V99.6262Z" fill="#082B18"/>
<path d="M141.224 99.6262H132.683V108.168H141.224V99.6262Z" fill="#082B18"/>
<path d="M149.517 99.6262H140.976V108.168H149.517V99.6262Z" fill="#082B18"/>
<path d="M166.102 99.6262H157.561V108.168H166.102V99.6262Z" fill="#082B18"/>
<path d="M190.98 99.6262H182.439V108.168H190.98V99.6262Z" fill="#082B18"/>
<path d="M199.273 99.6262H190.732V108.168H199.273V99.6262Z" fill="#082B18"/>
<path d="M215.859 99.6262H207.317V108.168H215.859V99.6262Z" fill="#082B18"/>
<path d="M224.151 99.6262H215.61V108.168H224.151V99.6262Z" fill="#082B18"/>
<path d="M240.737 99.6262H232.195V108.168H240.737V99.6262Z" fill="#082B18"/>
<path d="M249.029 99.6262H240.488V108.168H249.029V99.6262Z" fill="#082B18"/>
<path d="M257.322 99.6262H248.781V108.168H257.322V99.6262Z" fill="#082B18"/>
<path d="M265.615 99.6262H257.073V108.168H265.615V99.6262Z" fill="#082B18"/>
<path d="M273.907 99.6262H265.366V108.168H273.907V99.6262Z" fill="#082B18"/>
<path d="M282.2 99.6262H273.658V108.168H282.2V99.6262Z" fill="#082B18"/>
<path d="M290.493 99.6262H281.951V108.168H290.493V99.6262Z" fill="#082B18"/>
<path d="M298.785 99.6262H290.244V108.168H298.785V99.6262Z" fill="#082B18"/>
<path d="M8.54146 107.919H0V116.46H8.54146V107.919Z" fill="#082B18"/>
<path d="M16.8342 107.919H8.29272V116.46H16.8342V107.919Z" fill="#082B18"/>
<path d="M33.4194 107.919H24.8779V116.46H33.4194V107.919Z" fill="#082B18"/>
<path d="M41.7121 107.919H33.1707V116.46H41.7121V107.919Z" fill="#082B18"/>
<path d="M99.7609 107.919H91.2195V116.46H99.7609V107.919Z" fill="#082B18"/>
<path d="M108.054 107.919H99.5122V116.46H108.054V107.919Z" fill="#082B18"/>
<path d="M116.346 107.919H107.805V116.46H116.346V107.919Z" fill="#082B18"/>
<path d="M124.639 107.919H116.098V116.46H124.639V107.919Z" fill="#082B18"/>
<path d="M149.517 107.919H140.976V116.46H149.517V107.919Z" fill="#082B18"/>
<path d="M190.98 107.919H182.439V116.46H190.98V107.919Z" fill="#082B18"/>
<path d="M199.273 107.919H190.732V116.46H199.273V107.919Z" fill="#082B18"/>
<path d="M207.566 107.919H199.024V116.46H207.566V107.919Z" fill="#082B18"/>
<path d="M215.859 107.919H207.317V116.46H215.859V107.919Z" fill="#082B18"/>
<path d="M240.737 107.919H232.195V116.46H240.737V107.919Z" fill="#082B18"/>
<path d="M249.029 107.919H240.488V116.46H249.029V107.919Z" fill="#082B18"/>
<path d="M265.615 107.919H257.073V116.46H265.615V107.919Z" fill="#082B18"/>
<path d="M282.2 107.919H273.658V116.46H282.2V107.919Z" fill="#082B18"/>
<path d="M290.493 107.919H281.951V116.46H290.493V107.919Z" fill="#082B18"/>
<path d="M41.7121 116.212H33.1707V124.753H41.7121V116.212Z" fill="#082B18"/>
<path d="M58.2976 116.212H49.7561V124.753H58.2976V116.212Z" fill="#082B18"/>
<path d="M83.1755 116.212H74.634V124.753H83.1755V116.212Z" fill="#082B18"/>
<path d="M91.4682 116.212H82.9268V124.753H91.4682V116.212Z" fill="#082B18"/>
<path d="M99.7609 116.212H91.2195V124.753H99.7609V116.212Z" fill="#082B18"/>
<path d="M116.346 116.212H107.805V124.753H116.346V116.212Z" fill="#082B18"/>
<path d="M132.932 116.212H124.39V124.753H132.932V116.212Z" fill="#082B18"/>
<path d="M141.224 116.212H132.683V124.753H141.224V116.212Z" fill="#082B18"/>
<path d="M157.81 116.212H149.268V124.753H157.81V116.212Z" fill="#082B18"/>
<path d="M166.102 116.212H157.561V124.753H166.102V116.212Z" fill="#082B18"/>
<path d="M174.395 116.212H165.854V124.753H174.395V116.212Z" fill="#082B18"/>
<path d="M215.859 116.212H207.317V124.753H215.859V116.212Z" fill="#082B18"/>
<path d="M224.151 116.212H215.61V124.753H224.151V116.212Z" fill="#082B18"/>
<path d="M232.444 116.212H223.902V124.753H232.444V116.212Z" fill="#082B18"/>
<path d="M240.737 116.212H232.195V124.753H240.737V116.212Z" fill="#082B18"/>
<path d="M249.029 116.212H240.488V124.753H249.029V116.212Z" fill="#082B18"/>
<path d="M282.2 116.212H273.658V124.753H282.2V116.212Z" fill="#082B18"/>
<path d="M307.078 116.212H298.537V124.753H307.078V116.212Z" fill="#082B18"/>
<path d="M8.54146 124.504H0V133.046H8.54146V124.504Z" fill="#082B18"/>
<path d="M33.4194 124.504H24.8779V133.046H33.4194V124.504Z" fill="#082B18"/>
<path d="M50.0048 124.504H41.4634V133.046H50.0048V124.504Z" fill="#082B18"/>
<path d="M91.4682 124.504H82.9268V133.046H91.4682V124.504Z" fill="#082B18"/>
<path d="M108.054 124.504H99.5122V133.046H108.054V124.504Z" fill="#082B18"/>
<path d="M132.932 124.504H124.39V133.046H132.932V124.504Z" fill="#082B18"/>
<path d="M141.224 124.504H132.683V133.046H141.224V124.504Z" fill="#082B18"/>
<path d="M182.688 124.504H174.146V133.046H182.688V124.504Z" fill="#082B18"/>
<path d="M190.98 124.504H182.439V133.046H190.98V124.504Z" fill="#082B18"/>
<path d="M207.566 124.504H199.024V133.046H207.566V124.504Z" fill="#082B18"/>
<path d="M240.737 124.504H232.195V133.046H240.737V124.504Z" fill="#082B18"/>
<path d="M249.029 124.504H240.488V133.046H249.029V124.504Z" fill="#082B18"/>
<path d="M298.785 124.504H290.244V133.046H298.785V124.504Z" fill="#082B18"/>
<path d="M16.8342 132.797H8.29272V141.338H16.8342V132.797Z" fill="#082B18"/>
<path d="M25.1269 132.797H16.5854V141.338H25.1269V132.797Z" fill="#082B18"/>
<path d="M41.7121 132.797H33.1707V141.338H41.7121V132.797Z" fill="#082B18"/>
<path d="M50.0048 132.797H41.4634V141.338H50.0048V132.797Z" fill="#082B18"/>
<path d="M58.2976 132.797H49.7561V141.338H58.2976V132.797Z" fill="#082B18"/>
<path d="M66.5903 132.797H58.0488V141.338H66.5903V132.797Z" fill="#082B18"/>
<path d="M99.7609 132.797H91.2195V141.338H99.7609V132.797Z" fill="#082B18"/>
<path d="M124.639 132.797H116.098V141.338H124.639V132.797Z" fill="#082B18"/>
<path d="M132.932 132.797H124.39V141.338H132.932V132.797Z" fill="#082B18"/>
<path d="M141.224 132.797H132.683V141.338H141.224V132.797Z" fill="#082B18"/>
<path d="M157.81 132.797H149.268V141.338H157.81V132.797Z" fill="#082B18"/>
<path d="M174.395 132.797H165.854V141.338H174.395V132.797Z" fill="#082B18"/>
<path d="M182.688 132.797H174.146V141.338H182.688V132.797Z" fill="#082B18"/>
<path d="M190.98 132.797H182.439V141.338H190.98V132.797Z" fill="#082B18"/>
<path d="M207.566 132.797H199.024V141.338H207.566V132.797Z" fill="#082B18"/>
<path d="M215.859 132.797H207.317V141.338H215.859V132.797Z" fill="#082B18"/>
<path d="M224.151 132.797H215.61V141.338H224.151V132.797Z" fill="#082B18"/>
<path d="M240.737 132.797H232.195V141.338H240.737V132.797Z" fill="#082B18"/>
<path d="M249.029 132.797H240.488V141.338H249.029V132.797Z" fill="#082B18"/>
<path d="M257.322 132.797H248.781V141.338H257.322V132.797Z" fill="#082B18"/>
<path d="M273.907 132.797H265.366V141.338H273.907V132.797Z" fill="#082B18"/>
<path d="M290.493 132.797H281.951V141.338H290.493V132.797Z" fill="#082B18"/>
<path d="M307.078 132.797H298.537V141.338H307.078V132.797Z" fill="#082B18"/>
<path d="M8.54146 141.09H0V149.631H8.54146V141.09Z" fill="#082B18"/>
<path d="M25.1269 141.09H16.5854V149.631H25.1269V141.09Z" fill="#082B18"/>
<path d="M33.4194 141.09H24.8779V149.631H33.4194V141.09Z" fill="#082B18"/>
<path d="M41.7121 141.09H33.1707V149.631H41.7121V141.09Z" fill="#082B18"/>
<path d="M50.0048 141.09H41.4634V149.631H50.0048V141.09Z" fill="#082B18"/>
<path d="M66.5903 141.09H58.0488V149.631H66.5903V141.09Z" fill="#082B18"/>
<path d="M99.7609 141.09H91.2195V149.631H99.7609V141.09Z" fill="#082B18"/>
<path d="M108.054 141.09H99.5122V149.631H108.054V141.09Z" fill="#082B18"/>
<path d="M116.346 141.09H107.805V149.631H116.346V141.09Z" fill="#082B18"/>
<path d="M149.517 141.09H140.976V149.631H149.517V141.09Z" fill="#082B18"/>
<path d="M157.81 141.09H149.268V149.631H157.81V141.09Z" fill="#082B18"/>
<path d="M182.688 141.09H174.146V149.631H182.688V141.09Z" fill="#082B18"/>
<path d="M190.98 141.09H182.439V149.631H190.98V141.09Z" fill="#082B18"/>
<path d="M215.859 141.09H207.317V149.631H215.859V141.09Z" fill="#082B18"/>
<path d="M240.737 141.09H232.195V149.631H240.737V141.09Z" fill="#082B18"/>
<path d="M265.615 141.09H257.073V149.631H265.615V141.09Z" fill="#082B18"/>
<path d="M290.493 141.09H281.951V149.631H290.493V141.09Z" fill="#082B18"/>
<path d="M8.54146 149.382H0V157.924H8.54146V149.382Z" fill="#082B18"/>
<path d="M16.8342 149.382H8.29272V157.924H16.8342V149.382Z" fill="#082B18"/>
<path d="M50.0048 149.382H41.4634V157.924H50.0048V149.382Z" fill="#082B18"/>
<path d="M58.2976 149.382H49.7561V157.924H58.2976V149.382Z" fill="#082B18"/>
<path d="M66.5903 149.382H58.0488V157.924H66.5903V149.382Z" fill="#082B18"/>
<path d="M83.1755 149.382H74.634V157.924H83.1755V149.382Z" fill="#082B18"/>
<path d="M91.4682 149.382H82.9268V157.924H91.4682V149.382Z" fill="#082B18"/>
<path d="M124.639 149.382H116.098V157.924H124.639V149.382Z" fill="#082B18"/>
<path d="M157.81 149.382H149.268V157.924H157.81V149.382Z" fill="#082B18"/>
<path d="M174.395 149.382H165.854V157.924H174.395V149.382Z" fill="#082B18"/>
<path d="M232.444 149.382H223.902V157.924H232.444V149.382Z" fill="#082B18"/>
<path d="M257.322 149.382H248.781V157.924H257.322V149.382Z" fill="#082B18"/>
<path d="M265.615 149.382H257.073V157.924H265.615V149.382Z" fill="#082B18"/>
<path d="M282.2 149.382H273.658V157.924H282.2V149.382Z" fill="#082B18"/>
<path d="M290.493 149.382H281.951V157.924H290.493V149.382Z" fill="#082B18"/>
<path d="M298.785 149.382H290.244V157.924H298.785V149.382Z" fill="#082B18"/>
<path d="M307.078 149.382H298.537V157.924H307.078V149.382Z" fill="#082B18"/>
<path d="M25.1269 157.675H16.5854V166.217H25.1269V157.675Z" fill="#082B18"/>
<path d="M74.883 157.675H66.3416V166.217H74.883V157.675Z" fill="#082B18"/>
<path d="M99.7609 157.675H91.2195V166.217H99.7609V157.675Z" fill="#082B18"/>
<path d="M116.346 157.675H107.805V166.217H116.346V157.675Z" fill="#082B18"/>
<path d="M132.932 157.675H124.39V166.217H132.932V157.675Z" fill="#082B18"/>
<path d="M149.517 157.675H140.976V166.217H149.517V157.675Z" fill="#082B18"/>
<path d="M157.81 157.675H149.268V166.217H157.81V157.675Z" fill="#082B18"/>
<path d="M174.395 157.675H165.854V166.217H174.395V157.675Z" fill="#082B18"/>
<path d="M182.688 157.675H174.146V166.217H182.688V157.675Z" fill="#082B18"/>
<path d="M190.98 157.675H182.439V166.217H190.98V157.675Z" fill="#082B18"/>
<path d="M232.444 157.675H223.902V166.217H232.444V157.675Z" fill="#082B18"/>
<path d="M240.737 157.675H232.195V166.217H240.737V157.675Z" fill="#082B18"/>
<path d="M257.322 157.675H248.781V166.217H257.322V157.675Z" fill="#082B18"/>
<path d="M265.615 157.675H257.073V166.217H265.615V157.675Z" fill="#082B18"/>
<path d="M8.54146 165.968H0V174.509H8.54146V165.968Z" fill="#082B18"/>
<path d="M33.4194 165.968H24.8779V174.509H33.4194V165.968Z" fill="#082B18"/>
<path d="M41.7121 165.968H33.1707V174.509H41.7121V165.968Z" fill="#082B18"/>
<path d="M50.0048 165.968H41.4634V174.509H50.0048V165.968Z" fill="#082B18"/>
<path d="M58.2976 165.968H49.7561V174.509H58.2976V165.968Z" fill="#082B18"/>
<path d="M83.1755 165.968H74.634V174.509H83.1755V165.968Z" fill="#082B18"/>
<path d="M116.346 165.968H107.805V174.509H116.346V165.968Z" fill="#082B18"/>
<path d="M124.639 165.968H116.098V174.509H124.639V165.968Z" fill="#082B18"/>
<path d="M199.273 165.968H190.732V174.509H199.273V165.968Z" fill="#082B18"/>
<path d="M207.566 165.968H199.024V174.509H207.566V165.968Z" fill="#082B18"/>
<path d="M215.859 165.968H207.317V174.509H215.859V165.968Z" fill="#082B18"/>
<path d="M224.151 165.968H215.61V174.509H224.151V165.968Z" fill="#082B18"/>
<path d="M257.322 165.968H248.781V174.509H257.322V165.968Z" fill="#082B18"/>
<path d="M265.615 165.968H257.073V174.509H265.615V165.968Z" fill="#082B18"/>
<path d="M273.907 165.968H265.366V174.509H273.907V165.968Z" fill="#082B18"/>
<path d="M290.493 165.968H281.951V174.509H290.493V165.968Z" fill="#082B18"/>
<path d="M8.54146 174.26H0V182.802H8.54146V174.26Z" fill="#082B18"/>
<path d="M16.8342 174.26H8.29272V182.802H16.8342V174.26Z" fill="#082B18"/>
<path d="M25.1269 174.26H16.5854V182.802H25.1269V174.26Z" fill="#082B18"/>
<path d="M33.4194 174.26H24.8779V182.802H33.4194V174.26Z" fill="#082B18"/>
<path d="M41.7121 174.26H33.1707V182.802H41.7121V174.26Z" fill="#082B18"/>
<path d="M74.883 174.26H66.3416V182.802H74.883V174.26Z" fill="#082B18"/>
<path d="M83.1755 174.26H74.634V182.802H83.1755V174.26Z" fill="#082B18"/>
<path d="M99.7609 174.26H91.2195V182.802H99.7609V174.26Z" fill="#082B18"/>
<path d="M108.054 174.26H99.5122V182.802H108.054V174.26Z" fill="#082B18"/>
<path d="M116.346 174.26H107.805V182.802H116.346V174.26Z" fill="#082B18"/>
<path d="M166.102 174.26H157.561V182.802H166.102V174.26Z" fill="#082B18"/>
<path d="M174.395 174.26H165.854V182.802H174.395V174.26Z" fill="#082B18"/>
<path d="M207.566 174.26H199.024V182.802H207.566V174.26Z" fill="#082B18"/>
<path d="M265.615 174.26H257.073V182.802H265.615V174.26Z" fill="#082B18"/>
<path d="M290.493 174.26H281.951V182.802H290.493V174.26Z" fill="#082B18"/>
<path d="M298.785 174.26H290.244V182.802H298.785V174.26Z" fill="#082B18"/>
<path d="M8.54146 182.553H0V191.094H8.54146V182.553Z" fill="#082B18"/>
<path d="M50.0048 182.553H41.4634V191.094H50.0048V182.553Z" fill="#082B18"/>
<path d="M58.2976 182.553H49.7561V191.094H58.2976V182.553Z" fill="#082B18"/>
<path d="M83.1755 182.553H74.634V191.094H83.1755V182.553Z" fill="#082B18"/>
<path d="M91.4682 182.553H82.9268V191.094H91.4682V182.553Z" fill="#082B18"/>
<path d="M99.7609 182.553H91.2195V191.094H99.7609V182.553Z" fill="#082B18"/>
<path d="M124.639 182.553H116.098V191.094H124.639V182.553Z" fill="#082B18"/>
<path d="M132.932 182.553H124.39V191.094H132.932V182.553Z" fill="#082B18"/>
<path d="M157.81 182.553H149.268V191.094H157.81V182.553Z" fill="#082B18"/>
<path d="M166.102 182.553H157.561V191.094H166.102V182.553Z" fill="#082B18"/>
<path d="M174.395 182.553H165.854V191.094H174.395V182.553Z" fill="#082B18"/>
<path d="M190.98 182.553H182.439V191.094H190.98V182.553Z" fill="#082B18"/>
<path d="M199.273 182.553H190.732V191.094H199.273V182.553Z" fill="#082B18"/>
<path d="M207.566 182.553H199.024V191.094H207.566V182.553Z" fill="#082B18"/>
<path d="M215.859 182.553H207.317V191.094H215.859V182.553Z" fill="#082B18"/>
<path d="M232.444 182.553H223.902V191.094H232.444V182.553Z" fill="#082B18"/>
<path d="M249.029 182.553H240.488V191.094H249.029V182.553Z" fill="#082B18"/>
<path d="M290.493 182.553H281.951V191.094H290.493V182.553Z" fill="#082B18"/>
<path d="M307.078 182.553H298.537V191.094H307.078V182.553Z" fill="#082B18"/>
<path d="M16.8342 190.846H8.29272V199.387H16.8342V190.846Z" fill="#082B18"/>
<path d="M25.1269 190.846H16.5854V199.387H25.1269V190.846Z" fill="#082B18"/>
<path d="M66.5903 190.846H58.0488V199.387H66.5903V190.846Z" fill="#082B18"/>
<path d="M74.883 190.846H66.3416V199.387H74.883V190.846Z" fill="#082B18"/>
<path d="M83.1755 190.846H74.634V199.387H83.1755V190.846Z" fill="#082B18"/>
<path d="M157.81 190.846H149.268V199.387H157.81V190.846Z" fill="#082B18"/>
<path d="M166.102 190.846H157.561V199.387H166.102V190.846Z" fill="#082B18"/>
<path d="M174.395 190.846H165.854V199.387H174.395V190.846Z" fill="#082B18"/>
<path d="M182.688 190.846H174.146V199.387H182.688V190.846Z" fill="#082B18"/>
<path d="M190.98 190.846H182.439V199.387H190.98V190.846Z" fill="#082B18"/>
<path d="M207.566 190.846H199.024V199.387H207.566V190.846Z" fill="#082B18"/>
<path d="M224.151 190.846H215.61V199.387H224.151V190.846Z" fill="#082B18"/>
<path d="M265.615 190.846H257.073V199.387H265.615V190.846Z" fill="#082B18"/>
<path d="M298.785 190.846H290.244V199.387H298.785V190.846Z" fill="#082B18"/>
<path d="M307.078 190.846H298.537V199.387H307.078V190.846Z" fill="#082B18"/>
<path d="M8.54146 199.138H0V207.68H8.54146V199.138Z" fill="#082B18"/>
<path d="M16.8342 199.138H8.29272V207.68H16.8342V199.138Z" fill="#082B18"/>
<path d="M58.2976 199.138H49.7561V207.68H58.2976V199.138Z" fill="#082B18"/>
<path d="M66.5903 199.138H58.0488V207.68H66.5903V199.138Z" fill="#082B18"/>
<path d="M83.1755 199.138H74.634V207.68H83.1755V199.138Z" fill="#082B18"/>
<path d="M99.7609 199.138H91.2195V207.68H99.7609V199.138Z" fill="#082B18"/>
<path d="M108.054 199.138H99.5122V207.68H108.054V199.138Z" fill="#082B18"/>
<path d="M124.639 199.138H116.098V207.68H124.639V199.138Z" fill="#082B18"/>
<path d="M149.517 199.138H140.976V207.68H149.517V199.138Z" fill="#082B18"/>
<path d="M174.395 199.138H165.854V207.68H174.395V199.138Z" fill="#082B18"/>
<path d="M190.98 199.138H182.439V207.68H190.98V199.138Z" fill="#082B18"/>
<path d="M199.273 199.138H190.732V207.68H199.273V199.138Z" fill="#082B18"/>
<path d="M257.322 199.138H248.781V207.68H257.322V199.138Z" fill="#082B18"/>
<path d="M265.615 199.138H257.073V207.68H265.615V199.138Z" fill="#082B18"/>
<path d="M273.907 199.138H265.366V207.68H273.907V199.138Z" fill="#082B18"/>
<path d="M282.2 199.138H273.658V207.68H282.2V199.138Z" fill="#082B18"/>
<path d="M290.493 199.138H281.951V207.68H290.493V199.138Z" fill="#082B18"/>
<path d="M298.785 199.138H290.244V207.68H298.785V199.138Z" fill="#082B18"/>
<path d="M307.078 199.138H298.537V207.68H307.078V199.138Z" fill="#082B18"/>
<path d="M8.54146 207.431H0V215.973H8.54146V207.431Z" fill="#082B18"/>
<path d="M50.0048 207.431H41.4634V215.973H50.0048V207.431Z" fill="#082B18"/>
<path d="M74.883 207.431H66.3416V215.973H74.883V207.431Z" fill="#082B18"/>
<path d="M83.1755 207.431H74.634V215.973H83.1755V207.431Z" fill="#082B18"/>
<path d="M99.7609 207.431H91.2195V215.973H99.7609V207.431Z" fill="#082B18"/>
<path d="M108.054 207.431H99.5122V215.973H108.054V207.431Z" fill="#082B18"/>
<path d="M116.346 207.431H107.805V215.973H116.346V207.431Z" fill="#082B18"/>
<path d="M124.639 207.431H116.098V215.973H124.639V207.431Z" fill="#082B18"/>
<path d="M157.81 207.431H149.268V215.973H157.81V207.431Z" fill="#082B18"/>
<path d="M166.102 207.431H157.561V215.973H166.102V207.431Z" fill="#082B18"/>
<path d="M174.395 207.431H165.854V215.973H174.395V207.431Z" fill="#082B18"/>
<path d="M190.98 207.431H182.439V215.973H190.98V207.431Z" fill="#082B18"/>
<path d="M207.566 207.431H199.024V215.973H207.566V207.431Z" fill="#082B18"/>
<path d="M215.859 207.431H207.317V215.973H215.859V207.431Z" fill="#082B18"/>
<path d="M240.737 207.431H232.195V215.973H240.737V207.431Z" fill="#082B18"/>
<path d="M249.029 207.431H240.488V215.973H249.029V207.431Z" fill="#082B18"/>
<path d="M265.615 207.431H257.073V215.973H265.615V207.431Z" fill="#082B18"/>
<path d="M290.493 207.431H281.951V215.973H290.493V207.431Z" fill="#082B18"/>
<path d="M8.54146 215.724H0V224.265H8.54146V215.724Z" fill="#082B18"/>
<path d="M33.4194 215.724H24.8779V224.265H33.4194V215.724Z" fill="#082B18"/>
<path d="M50.0048 215.724H41.4634V224.265H50.0048V215.724Z" fill="#082B18"/>
<path d="M58.2976 215.724H49.7561V224.265H58.2976V215.724Z" fill="#082B18"/>
<path d="M66.5903 215.724H58.0488V224.265H66.5903V215.724Z" fill="#082B18"/>
<path d="M91.4682 215.724H82.9268V224.265H91.4682V215.724Z" fill="#082B18"/>
<path d="M132.932 215.724H124.39V224.265H132.932V215.724Z" fill="#082B18"/>
<path d="M149.517 215.724H140.976V224.265H149.517V215.724Z" fill="#082B18"/>
<path d="M174.395 215.724H165.854V224.265H174.395V215.724Z" fill="#082B18"/>
<path d="M224.151 215.724H215.61V224.265H224.151V215.724Z" fill="#082B18"/>
<path d="M232.444 215.724H223.902V224.265H232.444V215.724Z" fill="#082B18"/>
<path d="M240.737 215.724H232.195V224.265H240.737V215.724Z" fill="#082B18"/>
<path d="M257.322 215.724H248.781V224.265H257.322V215.724Z" fill="#082B18"/>
<path d="M265.615 215.724H257.073V224.265H265.615V215.724Z" fill="#082B18"/>
<path d="M290.493 215.724H281.951V224.265H290.493V215.724Z" fill="#082B18"/>
<path d="M298.785 215.724H290.244V224.265H298.785V215.724Z" fill="#082B18"/>
<path d="M307.078 215.724H298.537V224.265H307.078V215.724Z" fill="#082B18"/>
<path d="M8.54146 224.016H0V232.558H8.54146V224.016Z" fill="#082B18"/>
<path d="M33.4194 224.016H24.8779V232.558H33.4194V224.016Z" fill="#082B18"/>
<path d="M41.7121 224.016H33.1707V232.558H41.7121V224.016Z" fill="#082B18"/>
<path d="M66.5903 224.016H58.0488V232.558H66.5903V224.016Z" fill="#082B18"/>
<path d="M83.1755 224.016H74.634V232.558H83.1755V224.016Z" fill="#082B18"/>
<path d="M91.4682 224.016H82.9268V232.558H91.4682V224.016Z" fill="#082B18"/>
<path d="M99.7609 224.016H91.2195V232.558H99.7609V224.016Z" fill="#082B18"/>
<path d="M124.639 224.016H116.098V232.558H124.639V224.016Z" fill="#082B18"/>
<path d="M174.395 224.016H165.854V232.558H174.395V224.016Z" fill="#082B18"/>
<path d="M207.566 224.016H199.024V232.558H207.566V224.016Z" fill="#082B18"/>
<path d="M232.444 224.016H223.902V232.558H232.444V224.016Z" fill="#082B18"/>
<path d="M240.737 224.016H232.195V232.558H240.737V224.016Z" fill="#082B18"/>
<path d="M249.029 224.016H240.488V232.558H249.029V224.016Z" fill="#082B18"/>
<path d="M265.615 224.016H257.073V232.558H265.615V224.016Z" fill="#082B18"/>
<path d="M298.785 224.016H290.244V232.558H298.785V224.016Z" fill="#082B18"/>
<path d="M8.54146 232.309H0V240.851H8.54146V232.309Z" fill="#082B18"/>
<path d="M33.4194 232.309H24.8779V240.851H33.4194V232.309Z" fill="#082B18"/>
<path d="M50.0048 232.309H41.4634V240.851H50.0048V232.309Z" fill="#082B18"/>
<path d="M58.2976 232.309H49.7561V240.851H58.2976V232.309Z" fill="#082B18"/>
<path d="M83.1755 232.309H74.634V240.851H83.1755V232.309Z" fill="#082B18"/>
<path d="M91.4682 232.309H82.9268V240.851H91.4682V232.309Z" fill="#082B18"/>
<path d="M99.7609 232.309H91.2195V240.851H99.7609V232.309Z" fill="#082B18"/>
<path d="M132.932 232.309H124.39V240.851H132.932V232.309Z" fill="#082B18"/>
<path d="M141.224 232.309H132.683V240.851H141.224V232.309Z" fill="#082B18"/>
<path d="M149.517 232.309H140.976V240.851H149.517V232.309Z" fill="#082B18"/>
<path d="M166.102 232.309H157.561V240.851H166.102V232.309Z" fill="#082B18"/>
<path d="M190.98 232.309H182.439V240.851H190.98V232.309Z" fill="#082B18"/>
<path d="M207.566 232.309H199.024V240.851H207.566V232.309Z" fill="#082B18"/>
<path d="M215.859 232.309H207.317V240.851H215.859V232.309Z" fill="#082B18"/>
<path d="M224.151 232.309H215.61V240.851H224.151V232.309Z" fill="#082B18"/>
<path d="M232.444 232.309H223.902V240.851H232.444V232.309Z" fill="#082B18"/>
<path d="M240.737 232.309H232.195V240.851H240.737V232.309Z" fill="#082B18"/>
<path d="M249.029 232.309H240.488V240.851H249.029V232.309Z" fill="#082B18"/>
<path d="M257.322 232.309H248.781V240.851H257.322V232.309Z" fill="#082B18"/>
<path d="M265.615 232.309H257.073V240.851H265.615V232.309Z" fill="#082B18"/>
<path d="M273.907 232.309H265.366V240.851H273.907V232.309Z" fill="#082B18"/>
<path d="M298.785 232.309H290.244V240.851H298.785V232.309Z" fill="#082B18"/>
<path d="M74.883 240.602H66.3416V249.143H74.883V240.602Z" fill="#082B18"/>
<path d="M91.4682 240.602H82.9268V249.143H91.4682V240.602Z" fill="#082B18"/>
<path d="M108.054 240.602H99.5122V249.143H108.054V240.602Z" fill="#082B18"/>
<path d="M132.932 240.602H124.39V249.143H132.932V240.602Z" fill="#082B18"/>
<path d="M149.517 240.602H140.976V249.143H149.517V240.602Z" fill="#082B18"/>
<path d="M190.98 240.602H182.439V249.143H190.98V240.602Z" fill="#082B18"/>
<path d="M199.273 240.602H190.732V249.143H199.273V240.602Z" fill="#082B18"/>
<path d="M240.737 240.602H232.195V249.143H240.737V240.602Z" fill="#082B18"/>
<path d="M273.907 240.602H265.366V249.143H273.907V240.602Z" fill="#082B18"/>
<path d="M298.785 240.602H290.244V249.143H298.785V240.602Z" fill="#082B18"/>
<path d="M91.4682 248.895H82.9268V257.436H91.4682V248.895Z" fill="#082B18"/>
<path d="M108.054 248.895H99.5122V257.436H108.054V248.895Z" fill="#082B18"/>
<path d="M141.224 248.895H132.683V257.436H141.224V248.895Z" fill="#082B18"/>
<path d="M166.102 248.895H157.561V257.436H166.102V248.895Z" fill="#082B18"/>
<path d="M174.395 248.895H165.854V257.436H174.395V248.895Z" fill="#082B18"/>
<path d="M190.98 248.895H182.439V257.436H190.98V248.895Z" fill="#082B18"/>
<path d="M207.566 248.895H199.024V257.436H207.566V248.895Z" fill="#082B18"/>
<path d="M215.859 248.895H207.317V257.436H215.859V248.895Z" fill="#082B18"/>
<path d="M240.737 248.895H232.195V257.436H240.737V248.895Z" fill="#082B18"/>
<path d="M257.322 248.895H248.781V257.436H257.322V248.895Z" fill="#082B18"/>
<path d="M273.907 248.895H265.366V257.436H273.907V248.895Z" fill="#082B18"/>
<path d="M282.2 248.895H273.658V257.436H282.2V248.895Z" fill="#082B18"/>
<path d="M298.785 248.895H290.244V257.436H298.785V248.895Z" fill="#082B18"/>
<path d="M307.078 248.895H298.537V257.436H307.078V248.895Z" fill="#082B18"/>
<path d="M91.4682 257.187H82.9268V265.729H91.4682V257.187Z" fill="#082B18"/>
<path d="M132.932 257.187H124.39V265.729H132.932V257.187Z" fill="#082B18"/>
<path d="M166.102 257.187H157.561V265.729H166.102V257.187Z" fill="#082B18"/>
<path d="M174.395 257.187H165.854V265.729H174.395V257.187Z" fill="#082B18"/>
<path d="M182.688 257.187H174.146V265.729H182.688V257.187Z" fill="#082B18"/>
<path d="M190.98 257.187H182.439V265.729H190.98V257.187Z" fill="#082B18"/>
<path d="M199.273 257.187H190.732V265.729H199.273V257.187Z" fill="#082B18"/>
<path d="M207.566 257.187H199.024V265.729H207.566V257.187Z" fill="#082B18"/>
<path d="M224.151 257.187H215.61V265.729H224.151V257.187Z" fill="#082B18"/>
<path d="M232.444 257.187H223.902V265.729H232.444V257.187Z" fill="#082B18"/>
<path d="M240.737 257.187H232.195V265.729H240.737V257.187Z" fill="#082B18"/>
<path d="M273.907 257.187H265.366V265.729H273.907V257.187Z" fill="#082B18"/>
<path d="M298.785 257.187H290.244V265.729H298.785V257.187Z" fill="#082B18"/>
<path d="M307.078 257.187H298.537V265.729H307.078V257.187Z" fill="#082B18"/>
<path d="M74.883 265.479H66.3416V274.021H74.883V265.479Z" fill="#082B18"/>
<path d="M83.1755 265.479H74.634V274.021H83.1755V265.479Z" fill="#082B18"/>
<path d="M91.4682 265.479H82.9268V274.021H91.4682V265.479Z" fill="#082B18"/>
<path d="M108.054 265.479H99.5122V274.021H108.054V265.479Z" fill="#082B18"/>
<path d="M149.517 265.479H140.976V274.021H149.517V265.479Z" fill="#082B18"/>
<path d="M166.102 265.479H157.561V274.021H166.102V265.479Z" fill="#082B18"/>
<path d="M207.566 265.479H199.024V274.021H207.566V265.479Z" fill="#082B18"/>
<path d="M215.859 265.479H207.317V274.021H215.859V265.479Z" fill="#082B18"/>
<path d="M224.151 265.479H215.61V274.021H224.151V265.479Z" fill="#082B18"/>
<path d="M232.444 265.479H223.902V274.021H232.444V265.479Z" fill="#082B18"/>
<path d="M240.737 265.479H232.195V274.021H240.737V265.479Z" fill="#082B18"/>
<path d="M249.029 265.479H240.488V274.021H249.029V265.479Z" fill="#082B18"/>
<path d="M257.322 265.479H248.781V274.021H257.322V265.479Z" fill="#082B18"/>
<path d="M265.615 265.479H257.073V274.021H265.615V265.479Z" fill="#082B18"/>
<path d="M273.907 265.479H265.366V274.021H273.907V265.479Z" fill="#082B18"/>
<path d="M290.493 265.479H281.951V274.021H290.493V265.479Z" fill="#082B18"/>
<path d="M307.078 265.479H298.537V274.021H307.078V265.479Z" fill="#082B18"/>
<path d="M74.883 273.772H66.3416V282.314H74.883V273.772Z" fill="#082B18"/>
<path d="M83.1755 273.772H74.634V282.314H83.1755V273.772Z" fill="#082B18"/>
<path d="M91.4682 273.772H82.9268V282.314H91.4682V273.772Z" fill="#082B18"/>
<path d="M108.054 273.772H99.5122V282.314H108.054V273.772Z" fill="#082B18"/>
<path d="M116.346 273.772H107.805V282.314H116.346V273.772Z" fill="#082B18"/>
<path d="M124.639 273.772H116.098V282.314H124.639V273.772Z" fill="#082B18"/>
<path d="M141.224 273.772H132.683V282.314H141.224V273.772Z" fill="#082B18"/>
<path d="M149.517 273.772H140.976V282.314H149.517V273.772Z" fill="#082B18"/>
<path d="M174.395 273.772H165.854V282.314H174.395V273.772Z" fill="#082B18"/>
<path d="M190.98 273.772H182.439V282.314H190.98V273.772Z" fill="#082B18"/>
<path d="M240.737 273.772H232.195V282.314H240.737V273.772Z" fill="#082B18"/>
<path d="M257.322 273.772H248.781V282.314H257.322V273.772Z" fill="#082B18"/>
<path d="M265.615 273.772H257.073V282.314H265.615V273.772Z" fill="#082B18"/>
<path d="M273.907 273.772H265.366V282.314H273.907V273.772Z" fill="#082B18"/>
<path d="M74.883 282.065H66.3416V290.607H74.883V282.065Z" fill="#082B18"/>
<path d="M83.1755 282.065H74.634V290.607H83.1755V282.065Z" fill="#082B18"/>
<path d="M108.054 282.065H99.5122V290.607H108.054V282.065Z" fill="#082B18"/>
<path d="M116.346 282.065H107.805V290.607H116.346V282.065Z" fill="#082B18"/>
<path d="M132.932 282.065H124.39V290.607H132.932V282.065Z" fill="#082B18"/>
<path d="M141.224 282.065H132.683V290.607H141.224V282.065Z" fill="#082B18"/>
<path d="M174.395 282.065H165.854V290.607H174.395V282.065Z" fill="#082B18"/>
<path d="M182.688 282.065H174.146V290.607H182.688V282.065Z" fill="#082B18"/>
<path d="M190.98 282.065H182.439V290.607H190.98V282.065Z" fill="#082B18"/>
<path d="M199.273 282.065H190.732V290.607H199.273V282.065Z" fill="#082B18"/>
<path d="M207.566 282.065H199.024V290.607H207.566V282.065Z" fill="#082B18"/>
<path d="M240.737 282.065H232.195V290.607H240.737V282.065Z" fill="#082B18"/>
<path d="M249.029 282.065H240.488V290.607H249.029V282.065Z" fill="#082B18"/>
<path d="M265.615 282.065H257.073V290.607H265.615V282.065Z" fill="#082B18"/>
<path d="M282.2 282.065H273.658V290.607H282.2V282.065Z" fill="#082B18"/>
<path d="M307.078 282.065H298.537V290.607H307.078V282.065Z" fill="#082B18"/>
<path d="M83.1755 290.358H74.634V298.899H83.1755V290.358Z" fill="#082B18"/>
<path d="M99.7609 290.358H91.2195V298.899H99.7609V290.358Z" fill="#082B18"/>
<path d="M132.932 290.358H124.39V298.899H132.932V290.358Z" fill="#082B18"/>
<path d="M149.517 290.358H140.976V298.899H149.517V290.358Z" fill="#082B18"/>
<path d="M157.81 290.358H149.268V298.899H157.81V290.358Z" fill="#082B18"/>
<path d="M174.395 290.358H165.854V298.899H174.395V290.358Z" fill="#082B18"/>
<path d="M182.688 290.358H174.146V298.899H182.688V290.358Z" fill="#082B18"/>
<path d="M199.273 290.358H190.732V298.899H199.273V290.358Z" fill="#082B18"/>
<path d="M224.151 290.358H215.61V298.899H224.151V290.358Z" fill="#082B18"/>
<path d="M232.444 290.358H223.902V298.899H232.444V290.358Z" fill="#082B18"/>
<path d="M240.737 290.358H232.195V298.899H240.737V290.358Z" fill="#082B18"/>
<path d="M249.029 290.358H240.488V298.899H249.029V290.358Z" fill="#082B18"/>
<path d="M257.322 290.358H248.781V298.899H257.322V290.358Z" fill="#082B18"/>
<path d="M265.615 290.358H257.073V298.899H265.615V290.358Z" fill="#082B18"/>
<path d="M307.078 290.358H298.537V298.899H307.078V290.358Z" fill="#082B18"/>
<path d="M83.1755 298.651H74.634V307.192H83.1755V298.651Z" fill="#082B18"/>
<path d="M91.4682 298.651H82.9268V307.192H91.4682V298.651Z" fill="#082B18"/>
<path d="M124.639 298.651H116.098V307.192H124.639V298.651Z" fill="#082B18"/>
<path d="M132.932 298.651H124.39V307.192H132.932V298.651Z" fill="#082B18"/>
<path d="M166.102 298.651H157.561V307.192H166.102V298.651Z" fill="#082B18"/>
<path d="M174.395 298.651H165.854V307.192H174.395V298.651Z" fill="#082B18"/>
<path d="M199.273 298.651H190.732V307.192H199.273V298.651Z" fill="#082B18"/>
<path d="M215.859 298.651H207.317V307.192H215.859V298.651Z" fill="#082B18"/>
<path d="M224.151 298.651H215.61V307.192H224.151V298.651Z" fill="#082B18"/>
<path d="M282.2 298.651H273.658V307.192H282.2V298.651Z" fill="#082B18"/>
<path d="M290.493 298.651H281.951V307.192H290.493V298.651Z" fill="#082B18"/>
<path d="M298.785 298.651H290.244V307.192H298.785V298.651Z" fill="#082B18"/>
<path d="M307.078 298.651H298.537V307.192H307.078V298.651Z" fill="#082B18"/>
<path d="M0 0.114014V58.1628H58.0488V0.114014H0ZM49.7561 49.8701H8.29268V8.4067H49.7561V49.8701Z" fill="#082B18"/>
<path d="M248.781 0.114014V58.1628H306.829V0.114014H248.781ZM298.537 49.8701H257.073V8.4067H298.537V49.8701Z" fill="#082B18"/>
<path d="M0 248.895V306.943H58.0488V248.895H0ZM49.7561 298.651H8.29268V257.187H49.7561V298.651Z" fill="#082B18"/>
<path d="M41.4635 16.6995H16.5854V41.5775H41.4635V16.6995Z" fill="#082B18"/>
<path d="M290.244 16.6995H265.366V41.5775H290.244V16.6995Z" fill="#082B18"/>
<path d="M41.4635 265.479H16.5854V290.358H41.4635V265.479Z" fill="#082B18"/>
</svg>
