<svg width="45" height="43" viewBox="0 0 45 43" fill="none" xmlns="http://www.w3.org/2000/svg">
<path d="M22.1336 0H22.033C9.86452 0 0 9.46995 0 21.1517V21.2483C0 32.9301 9.86452 42.4 22.033 42.4H22.1336C34.3022 42.4 44.1667 32.9301 44.1667 21.2483V21.1517C44.1667 9.46995 34.3022 0 22.1336 0Z" fill="#00B0F2"/>
<path d="M8.36507 20.476C8.42697 20.4463 8.48889 20.4181 8.54924 20.3914C9.59836 19.9249 10.6614 19.4882 11.7229 19.0515C11.7802 19.0515 11.8761 18.9876 11.9302 18.9668C12.0122 18.9326 12.0943 18.8999 12.1763 18.8658L12.6482 18.6712C12.9639 18.5419 13.278 18.4127 13.5937 18.2835C14.2234 18.025 14.8532 17.7665 15.483 17.5066C16.7426 16.9896 18.0037 16.4712 19.2633 15.9542C20.5228 15.4373 21.7839 14.9189 23.0435 14.4019C24.303 13.885 25.5641 13.3665 26.8237 12.8496C28.0833 12.3326 29.3444 11.8142 30.604 11.2973C30.884 11.1814 31.1873 11.0091 31.4875 10.9586C31.7397 10.9155 31.9857 10.8323 32.2395 10.7863C32.7207 10.6986 33.2515 10.663 33.7126 10.8546C33.872 10.9214 34.019 11.015 34.1412 11.1324C34.7261 11.6879 34.6441 12.6 34.5203 13.3814C33.6584 18.8271 32.7966 24.2744 31.9331 29.7202C31.8155 30.4674 31.6546 31.2873 31.0403 31.7597C30.5204 32.1593 29.7807 32.2039 29.1386 32.0345C28.4964 31.8637 27.9301 31.5057 27.3746 31.1536C25.0705 29.689 22.765 28.2243 20.4609 26.7596C19.9131 26.412 19.3035 25.9574 19.3097 25.3261C19.3128 24.9458 19.5495 24.6071 19.7909 24.3056C21.7932 21.7981 24.6821 20.0749 26.8314 17.6833C27.1347 17.3461 27.373 16.7371 26.9568 16.5425C26.7092 16.4266 26.4245 16.5841 26.1986 16.7341C23.3576 18.6281 20.5182 20.5236 17.6772 22.4175C16.7503 23.0355 15.7786 23.6713 14.6614 23.8228C13.6618 23.9595 12.656 23.6921 11.6889 23.4188C10.878 23.19 10.0687 22.9553 9.26256 22.7132C8.83394 22.5854 8.39138 22.4473 8.06025 22.1576C7.72911 21.8679 7.53881 21.3807 7.73842 20.9945C7.86375 20.7523 8.1067 20.5993 8.36201 20.4745L8.36507 20.476Z" fill="#FEFFFC"/>
</svg>
