<svg width="45" height="43" viewBox="0 0 45 43" fill="none" xmlns="http://www.w3.org/2000/svg">
<path d="M22.3004 0H22.1998C10.0313 0 0.166748 9.46995 0.166748 21.1517V21.2483C0.166748 32.9301 10.0313 42.4 22.1998 42.4H22.3004C34.4689 42.4 44.3334 32.9301 44.3334 21.2483V21.1517C44.3334 9.46995 34.4689 0 22.3004 0Z" fill="#00E510"/>
<path d="M26.5539 27.4009C20.9014 27.4009 16.3026 22.9845 16.301 17.5581C16.3026 16.1825 17.4693 15.064 18.8991 15.064C19.0461 15.064 19.1915 15.0759 19.3308 15.0996C19.6372 15.1486 19.9281 15.2482 20.1958 15.3982C20.2345 15.4205 20.2608 15.4561 20.2669 15.4977L20.8642 19.1119C20.872 19.155 20.858 19.1966 20.8286 19.2278C20.499 19.5783 20.0782 19.8309 19.6093 19.9571L19.3834 20.018L19.4685 20.2275C20.2391 22.1111 21.8081 23.6159 23.7717 24.3586L23.9899 24.4418L24.0534 24.2249C24.1849 23.7748 24.4479 23.3708 24.8131 23.0544C24.8394 23.0306 24.875 23.0187 24.9106 23.0187C24.9183 23.0187 24.9261 23.0187 24.9354 23.0202L28.7001 23.5936C28.745 23.601 28.7821 23.6248 28.8054 23.6619C28.9601 23.9189 29.0638 24.1997 29.1164 24.4938C29.1411 24.6245 29.152 24.7627 29.152 24.9067C29.152 26.2808 27.9868 27.3994 26.5539 27.4009Z" fill="#FDFDFD"/>
<path d="M36.578 20.0093C36.2731 16.7027 34.6948 13.6351 32.1339 11.3728C29.5575 9.09701 26.2152 7.84326 22.7197 7.84326C15.0478 7.84326 8.80573 13.8357 8.80573 21.2007C8.80573 23.6725 9.51596 26.0805 10.8606 28.178L7.86182 34.5507L17.4633 33.5688C19.1329 34.2254 20.9 34.5581 22.7181 34.5581C23.1963 34.5581 23.6868 34.5343 24.1789 34.4853C24.6121 34.4407 25.0501 34.3754 25.4802 34.2922C31.9049 33.0459 36.595 27.5719 36.6321 21.272V21.2007C36.6321 20.7996 36.6136 20.3985 36.5764 20.0093H36.578ZM17.8331 30.7716L12.521 31.3153L14.107 27.9418L13.7898 27.5333C13.7666 27.5036 13.7434 27.4739 13.7171 27.4397C12.3399 25.614 11.6126 23.4571 11.6126 21.2022C11.6126 15.3226 16.5952 10.5394 22.7197 10.5394C28.4574 10.5394 33.3207 14.8369 33.7896 20.3228C33.8144 20.6169 33.8283 20.9125 33.8283 21.2037C33.8283 21.2868 33.8267 21.3685 33.8252 21.4562C33.7076 26.3746 30.1285 30.5518 25.1212 31.6154C24.739 31.6971 24.3475 31.7595 23.9576 31.7996C23.5522 31.8441 23.1359 31.8664 22.7228 31.8664C21.2512 31.8664 19.8215 31.5931 18.4706 31.0524C18.3205 30.9944 18.1735 30.932 18.0358 30.8682L17.8346 30.7746L17.8331 30.7716Z" fill="#FDFDFD"/>
</svg>
