<svg width="53" height="68" viewBox="0 0 53 68" fill="none" xmlns="http://www.w3.org/2000/svg">
<circle cx="26.5" cy="34.5" r="26.5" fill="#082B18"/>
<path d="M24.224 27.536C24.224 27.184 24.192 26.96 24.128 26.864C24.096 26.768 24.032 26.72 23.936 26.72C23.84 26.72 23.616 26.8 23.264 26.96C22.944 27.12 22.592 27.28 22.208 27.44L20.768 28.064L20.576 27.44C22.336 26.672 24.064 25.728 25.76 24.608C27.488 23.488 28.992 22.368 30.272 21.248L30.704 21.68L29.888 22.496C29.696 22.688 29.536 22.88 29.408 23.072C29.312 23.264 29.216 23.568 29.12 23.984C29.056 24.368 29.008 24.912 28.976 25.616C28.944 26.288 28.928 27.184 28.928 28.304V40.928C28.928 42.08 28.96 43.104 29.024 44C29.12 44.896 29.28 45.728 29.504 46.496C29.728 47.264 30.032 47.984 30.416 48.656C30.8 49.328 31.28 50 31.856 50.672L31.328 51.008C30.624 50.272 29.968 49.488 29.36 48.656C28.784 47.792 28.272 46.896 27.824 45.968C27.472 46.576 27.024 47.184 26.48 47.792C25.968 48.4 25.392 48.992 24.752 49.568C24.144 50.144 23.504 50.672 22.832 51.152C22.16 51.664 21.504 52.08 20.864 52.4L20.576 51.92C21.248 51.376 21.808 50.864 22.256 50.384C22.736 49.936 23.12 49.424 23.408 48.848C23.696 48.272 23.904 47.616 24.032 46.88C24.16 46.112 24.224 45.168 24.224 44.048V27.536Z" fill="#FFF4DE"/>
</svg>
