<svg width="53" height="68" viewBox="0 0 53 68" fill="none" xmlns="http://www.w3.org/2000/svg">
<circle cx="26.5" cy="34.5" r="26.5" fill="#082B18"/>
<path d="M32.8 50.432C31.68 50.304 30.4 50.192 28.96 50.096C27.52 50.032 25.984 50 24.352 50C23.328 50 22.432 50 21.664 50C20.928 50.032 20.24 50.064 19.6 50.096C18.992 50.16 18.416 50.24 17.872 50.336C17.36 50.432 16.832 50.544 16.288 50.672L16.048 50.192C17.104 49.168 18.112 48.176 19.072 47.216C20.032 46.224 20.96 45.232 21.856 44.24C22.752 43.248 23.632 42.24 24.496 41.216C25.392 40.16 26.304 39.056 27.232 37.904C26.56 38 25.968 38.048 25.456 38.048C23.952 38.048 22.672 37.84 21.616 37.424C20.56 36.976 19.696 36.384 19.024 35.648C18.384 34.912 17.904 34.064 17.584 33.104C17.296 32.144 17.152 31.136 17.152 30.08C17.152 29.76 17.328 29.344 17.68 28.832C18.064 28.288 18.56 27.728 19.168 27.152C19.776 26.576 20.464 26 21.232 25.424C22.032 24.848 22.848 24.32 23.68 23.84C24.512 23.36 25.328 22.976 26.128 22.688C26.928 22.4 27.648 22.256 28.288 22.256C28.96 22.256 29.664 22.432 30.4 22.784C31.168 23.104 31.856 23.584 32.464 24.224C33.104 24.832 33.616 25.568 34 26.432C34.416 27.296 34.624 28.24 34.624 29.264C32.608 31.856 30.544 34.544 28.432 37.328C26.352 40.112 24.336 42.96 22.384 45.872C24.368 45.744 26.4 45.664 28.48 45.632C30.592 45.6 32.48 45.584 34.144 45.584C34.304 45.04 34.384 44.544 34.384 44.096C34.384 43.488 34.224 42.832 33.904 42.128C33.584 41.392 32.896 40.416 31.84 39.2L32.32 38.768C32.864 39.408 33.312 39.984 33.664 40.496C34.016 40.976 34.288 41.424 34.48 41.84C34.704 42.224 34.848 42.608 34.912 42.992C35.008 43.344 35.056 43.728 35.056 44.144C35.056 44.656 34.976 45.2 34.816 45.776C34.688 46.32 34.512 46.944 34.288 47.648C34.064 48.32 33.84 49.088 33.616 49.952C33.392 50.784 33.184 51.728 32.992 52.784H32.32L32.8 50.432ZM20.992 28.64C20.992 29.408 21.184 30.192 21.568 30.992C21.952 31.792 22.448 32.512 23.056 33.152C23.696 33.792 24.416 34.32 25.216 34.736C26.016 35.152 26.848 35.36 27.712 35.36C28.544 35.36 29.264 35.088 29.872 34.544C30.48 33.968 30.784 33.104 30.784 31.952C30.784 30.928 30.576 30 30.16 29.168C29.776 28.304 29.264 27.568 28.624 26.96C28.016 26.32 27.328 25.824 26.56 25.472C25.792 25.12 25.024 24.944 24.256 24.944C23.296 24.944 22.512 25.264 21.904 25.904C21.296 26.544 20.992 27.456 20.992 28.64Z" fill="#FFF4DE"/>
</svg>
