<svg width="53" height="68" viewBox="0 0 53 68" fill="none" xmlns="http://www.w3.org/2000/svg">
<circle cx="26.5" cy="34.5" r="26.5" fill="#082B18"/>
<path d="M19.64 36.656C20.024 36.368 20.44 36.048 20.888 35.696C21.368 35.312 21.816 34.928 22.232 34.544C22.648 34.128 23.032 33.728 23.384 33.344C23.768 32.928 24.056 32.56 24.248 32.24C24.6 32.432 25.016 32.624 25.496 32.816C26.008 32.976 26.472 33.056 26.888 33.056C28.104 33.056 28.968 32.816 29.48 32.336C29.992 31.856 30.248 31.136 30.248 30.176C30.248 29.728 30.072 29.296 29.72 28.88C29.4 28.464 28.968 28.112 28.424 27.824C27.88 27.504 27.256 27.248 26.552 27.056C25.88 26.864 25.176 26.768 24.44 26.768C23.352 26.768 22.312 27.136 21.32 27.872C20.36 28.576 19.56 29.744 18.92 31.376H18.344C18.568 30.64 18.824 29.984 19.112 29.408C19.4 28.8 19.768 28.192 20.216 27.584C20.664 26.976 21.224 26.32 21.896 25.616C22.568 24.912 23.416 24.08 24.44 23.12C24.856 22.736 25.208 22.272 25.496 21.728C25.784 21.184 25.976 20.624 26.072 20.048H26.648C26.584 20.4 26.472 20.784 26.312 21.2C26.152 21.584 25.992 21.936 25.832 22.256C27.272 22.448 28.504 22.752 29.528 23.168C30.584 23.584 31.448 24.064 32.12 24.608C32.792 25.12 33.288 25.68 33.608 26.288C33.928 26.864 34.088 27.456 34.088 28.064C34.088 28.544 33.992 29.008 33.8 29.456C33.608 29.872 33.288 30.304 32.84 30.752C32.392 31.2 31.784 31.664 31.016 32.144C30.248 32.624 29.272 33.152 28.088 33.728C29.176 34.432 30.12 35.168 30.92 35.936C31.752 36.672 32.44 37.408 32.984 38.144C33.528 38.848 33.928 39.536 34.184 40.208C34.44 40.848 34.568 41.424 34.568 41.936C34.568 42.736 34.2 43.68 33.464 44.768C32.728 45.856 31.816 46.896 30.728 47.888C29.64 48.88 28.472 49.712 27.224 50.384C26.008 51.088 24.904 51.44 23.912 51.44C23.24 51.44 22.488 51.184 21.656 50.672C20.856 50.16 19.928 49.232 18.872 47.888H18.776C18.776 48.592 18.792 49.248 18.824 49.856C18.888 50.464 18.984 50.944 19.112 51.296L18.44 51.44C18.376 51.088 18.296 50.592 18.2 49.952C18.136 49.312 18.104 48.768 18.104 48.32C18.104 47.584 18.152 46.928 18.248 46.352C18.376 45.744 18.568 45.12 18.824 44.48C19.08 43.84 19.256 43.312 19.352 42.896C19.48 42.48 19.544 42.096 19.544 41.744C19.544 41.456 19.528 41.168 19.496 40.88C19.496 40.592 19.48 40.304 19.448 40.016L19.928 39.872L20.408 41.696C20.632 42.624 20.984 43.472 21.464 44.24C21.944 44.976 22.504 45.616 23.144 46.16C23.784 46.704 24.472 47.136 25.208 47.456C25.944 47.744 26.696 47.888 27.464 47.888C29.256 47.888 30.152 46.864 30.152 44.816C30.152 43.76 29.864 42.736 29.288 41.744C28.744 40.752 28.072 39.888 27.272 39.152C26.472 38.416 25.624 37.824 24.728 37.376C23.832 36.928 23.032 36.704 22.328 36.704C21.976 36.704 21.576 36.752 21.128 36.848C20.68 36.944 20.232 37.072 19.784 37.232L19.64 36.656Z" fill="#FFF4DE"/>
</svg>
