<svg width="53" height="68" viewBox="0 0 53 68" fill="none" xmlns="http://www.w3.org/2000/svg">
<circle cx="26.5" cy="34.5" r="26.5" fill="#082B18"/>
<path d="M19.112 37.04C19.848 35.76 20.44 34.208 20.888 32.384C21.368 30.56 21.608 28.496 21.608 26.192C21.608 25.392 21.56 24.656 21.464 23.984C21.4 23.28 21.288 22.656 21.128 22.112L21.464 21.968C22.232 22.448 23.208 22.8 24.392 23.024C25.576 23.248 27.208 23.36 29.288 23.36C30.28 23.36 31.096 23.344 31.736 23.312C32.376 23.28 32.856 23.2 33.176 23.072C33.528 22.944 33.768 22.784 33.896 22.592C34.024 22.368 34.088 22.08 34.088 21.728C34.088 21.344 34.04 20.976 33.944 20.624L34.52 20.48C34.68 21.056 34.808 21.696 34.904 22.4C35 23.072 35.048 23.552 35.048 23.84C35.048 24.224 35.016 24.656 34.952 25.136C34.888 25.616 34.744 26.256 34.52 27.056C34.296 27.92 34.136 28.608 34.04 29.12C33.976 29.632 33.944 30.176 33.944 30.752C33.944 31.2 33.976 31.696 34.04 32.24C34.104 32.752 34.248 33.344 34.472 34.016L33.944 34.16C33.688 33.392 33.464 32.624 33.272 31.856C33.08 31.056 32.984 30.24 32.984 29.408C32.984 29.152 32.984 28.88 32.984 28.592C32.984 28.272 33.016 27.936 33.08 27.584C32.44 27.648 31.688 27.696 30.824 27.728C29.992 27.76 29.208 27.776 28.472 27.776C27.512 27.776 26.472 27.744 25.352 27.68C24.232 27.584 23.272 27.392 22.472 27.104L22.088 30.656C24.456 31.136 26.488 31.808 28.184 32.672C29.88 33.504 31.272 34.384 32.36 35.312C33.48 36.24 34.296 37.168 34.808 38.096C35.32 39.024 35.576 39.824 35.576 40.496C35.576 41.04 35.48 41.616 35.288 42.224C35.096 42.8 34.76 43.472 34.28 44.24C34.184 44.368 33.992 44.624 33.704 45.008C33.448 45.392 33.096 45.888 32.648 46.496C32.232 47.072 31.752 47.744 31.208 48.512C30.696 49.28 30.152 50.112 29.576 51.008C29.224 51.104 28.84 51.168 28.424 51.2C28.04 51.264 27.656 51.296 27.272 51.296C26.6 51.296 25.944 51.248 25.304 51.152C24.664 51.056 23.976 50.88 23.24 50.624C22.536 50.4 21.752 50.08 20.888 49.664C20.024 49.248 19.048 48.736 17.96 48.128C18.28 47.488 18.52 46.864 18.68 46.256C18.872 45.616 19.032 44.88 19.16 44.048C19.256 43.376 19.352 42.832 19.448 42.416C19.544 41.968 19.656 41.6 19.784 41.312C19.944 40.992 20.12 40.736 20.312 40.544C20.536 40.32 20.824 40.096 21.176 39.872L21.416 40.4C20.936 40.72 20.6 41.056 20.408 41.408C20.216 41.76 20.12 42.096 20.12 42.416C20.12 42.864 20.392 43.36 20.936 43.904C21.48 44.448 22.152 44.96 22.952 45.44C23.784 45.92 24.68 46.336 25.64 46.688C26.632 47.008 27.56 47.168 28.424 47.168C29.16 47.168 29.752 47.104 30.2 46.976C30.68 46.816 31.048 46.608 31.304 46.352C31.592 46.096 31.784 45.808 31.88 45.488C31.976 45.136 32.024 44.784 32.024 44.432C32.024 43.504 31.8 42.656 31.352 41.888C30.936 41.088 30.392 40.368 29.72 39.728C29.048 39.088 28.296 38.528 27.464 38.048C26.664 37.536 25.88 37.12 25.112 36.8C24.344 36.448 23.624 36.192 22.952 36.032C22.312 35.84 21.832 35.744 21.512 35.744C21.192 35.744 20.888 35.872 20.6 36.128C20.344 36.352 20.056 36.736 19.736 37.28L19.112 37.04Z" fill="#FFF4DE"/>
</svg>
